<svg xmlns="http://www.w3.org/2000/svg" xmlns:xlink="http://www.w3.org/1999/xlink" width="65" height="65" viewBox="0 0 65 65">
  <defs>
    <linearGradient id="linear-gradient" x1="0.066" y1="-0.044" x2="0.678" y2="0.644" gradientUnits="objectBoundingBox">
      <stop offset="0" stop-color="#676767"/>
      <stop offset="0.963" stop-color="#fff"/>
    </linearGradient>
  </defs>
  <g id="Grupo_895802" data-name="Grupo 895802" transform="translate(-789 -3840.129)">
    <g id="Grupo_892285" data-name="Grupo 892285" transform="translate(658.14 3507.559)">
      <path id="Trazado_645093" data-name="Trazado 645093" d="M195.86,365.066a30.677,30.677,0,0,1-.206,3.6A32.5,32.5,0,0,1,168.5,397.158a32.573,32.573,0,0,1-11.36-.184,32.525,32.525,0,1,1,38.716-31.908Z" transform="translate(0 0)" fill="#f3c144"/>
      <g id="Grupo_892284" data-name="Grupo 892284" transform="translate(145.601 350.862)">
        <g id="Grupo_892260" data-name="Grupo 892260" transform="translate(0 0.007)" opacity="0.4" style="mix-blend-mode: multiply;isolation: isolate">
          <path id="Trazado_645094" data-name="Trazado 645094" d="M181.027,356.05h-.6c-.812,0-2.408,0-4.428.007h-.6c-1.74,0-3.752.007-5.844.014-.244-.007-.482-.007-.726,0-.007-.007-.022,0-.029,0-1.459-.007-2.94,0-4.385.007-.2-.007-.41-.007-.611,0h-5.743c-.309,0-.6,0-.891.007h-4.334v-.036h-.589a3.119,3.119,0,0,1-.546.733,3.05,3.05,0,0,1-.266.259,5.325,5.325,0,0,1-.97.683c-.122.072-.244.129-.374.194v.884c.093,0,1.8,1.272,1.8,1.287s.022.007.029.014V365a3.576,3.576,0,0,0-1.308.316c-.007-.007-.022,0-.029.014a1.106,1.106,0,0,0-.115.079,2.007,2.007,0,0,0-.252.244,2.874,2.874,0,0,0-.553.992,6.68,6.68,0,0,0-.273,2.128,4.936,4.936,0,0,0,.733,3.033c.007.007.014.022.029.029.057.05.187.18.359.345.611.6,1.732,1.718,1.732,1.718a3.12,3.12,0,0,1-.546.733,3.051,3.051,0,0,1-.266.259,4.542,4.542,0,0,1-.618.474c-.115.072-.23.144-.352.208a3.7,3.7,0,0,1-.374.194v.884l1.833,2.71.122.18c.467,1.222-.043,1.761-.115,1.833l-.007.007L172.9,402.348a31.786,31.786,0,0,0,26.56-27.868Z" transform="translate(-149.4 -356.05)" fill="url(#linear-gradient)"/>
        </g>
        <g id="Grupo_892283" data-name="Grupo 892283">
          <g id="Grupo_892279" data-name="Grupo 892279">
            <g id="Grupo_892261" data-name="Grupo 892261" transform="translate(0.697)">
              <path id="Trazado_645095" data-name="Trazado 645095" d="M152.526,356.04v.007a3.119,3.119,0,0,1-.546.733c-.079.086-.173.172-.266.259a5.326,5.326,0,0,1-.97.683c-.122.065-.244.129-.374.187v.891a6.2,6.2,0,0,0,.963-.474,4.543,4.543,0,0,0,.87-.633v5.837h.913v-7.49Z" transform="translate(-150.37 -356.04)" fill="#005b83"/>
            </g>
            <g id="Grupo_892262" data-name="Grupo 892262" transform="translate(5.786)">
              <path id="Trazado_645096" data-name="Trazado 645096" d="M162.144,358.089a3.64,3.64,0,0,0-.46-1.107,2.037,2.037,0,0,0-.748-.7,2,2,0,0,0-.6-.208,3.041,3.041,0,0,0-.453-.036,2.16,2.16,0,0,0-.438.043,1.792,1.792,0,0,0-.906.4,2.635,2.635,0,0,0-.812,1.244,6.86,6.86,0,0,0-.273,2.128,4.859,4.859,0,0,0,.74,3.026,2.043,2.043,0,0,0,1.689.776,2.07,2.07,0,0,0,1.359-.438,2.648,2.648,0,0,0,.805-1.251,6.787,6.787,0,0,0,.266-2.113A7.224,7.224,0,0,0,162.144,358.089Zm-1.2,4.205a1.233,1.233,0,0,1-2.12,0,7.02,7.02,0,0,1,.043-4.96,1.167,1.167,0,0,1,1.006-.532,1.273,1.273,0,0,1,1.071.6,7.254,7.254,0,0,1,0,4.888Z" transform="translate(-157.45 -356.04)" fill="#005b83"/>
            </g>
            <g id="Grupo_892263" data-name="Grupo 892263" transform="translate(12.277)">
              <path id="Trazado_645097" data-name="Trazado 645097" d="M168.636,356.04c-.007.014-.014.022-.022.036a3.511,3.511,0,0,1-.791.963,5.215,5.215,0,0,1-1.344.87v.891a6.2,6.2,0,0,0,.963-.474,4.543,4.543,0,0,0,.87-.633v5.837h.913v-7.49Z" transform="translate(-166.48 -356.04)" fill="#005b83"/>
            </g>
            <g id="Grupo_892264" data-name="Grupo 892264" transform="translate(17.366)">
              <path id="Trazado_645098" data-name="Trazado 645098" d="M178.4,359.059a5.305,5.305,0,0,0-.151-.97,3.64,3.64,0,0,0-.46-1.107,2.037,2.037,0,0,0-.748-.7,1.847,1.847,0,0,0-.69-.216,1.994,1.994,0,0,0-.367-.029,1.966,1.966,0,0,0-.359.029c-.007-.007-.022,0-.029,0a1.831,1.831,0,0,0-.956.41,2.689,2.689,0,0,0-.812,1.244,5.781,5.781,0,0,0-.259,1.488v.007c-.007.2-.014.41-.014.633a6.153,6.153,0,0,0,.367,2.351,2.348,2.348,0,0,0,.374.676,2.043,2.043,0,0,0,1.689.776,2.07,2.07,0,0,0,1.359-.438,2.59,2.59,0,0,0,.776-1.179.214.214,0,0,0,.029-.072,6.761,6.761,0,0,0,.273-2.113C178.426,359.562,178.419,359.3,178.4,359.059Zm-1.351,3.235a1.233,1.233,0,0,1-2.12,0,1.314,1.314,0,0,1-.151-.3,6.008,6.008,0,0,1-.28-2.142c0-.3.007-.575.029-.834a3.517,3.517,0,0,1,.446-1.682,1.167,1.167,0,0,1,1.006-.532,1.273,1.273,0,0,1,1.071.6,3.122,3.122,0,0,1,.388,1.524,9.024,9.024,0,0,1,.036.92,6.725,6.725,0,0,1-.23,2.049A1.842,1.842,0,0,1,177.053,362.294Z" transform="translate(-173.56 -356.04)" fill="#005b83"/>
            </g>
            <g id="Grupo_892265" data-name="Grupo 892265" transform="translate(23.864)">
              <path id="Trazado_645099" data-name="Trazado 645099" d="M184.749,356.04c0,.007-.007.007-.007.014a3.518,3.518,0,0,1-.805.985,5.3,5.3,0,0,1-1.337.87v.891a6.9,6.9,0,0,0,.963-.474,4.97,4.97,0,0,0,.863-.633v5.837h.913v-7.49Z" transform="translate(-182.6 -356.04)" fill="#005b83"/>
            </g>
            <g id="Grupo_892266" data-name="Grupo 892266" transform="translate(28.882)">
              <path id="Trazado_645100" data-name="Trazado 645100" d="M191.736,356.04a.007.007,0,0,1-.007.007,3.452,3.452,0,0,1-.812.992,5.3,5.3,0,0,1-1.337.87v.891a6.9,6.9,0,0,0,.963-.474,4.707,4.707,0,0,0,.863-.633v5.837h.92v-7.49Z" transform="translate(-189.58 -356.04)" fill="#005b83"/>
            </g>
            <g id="Grupo_892267" data-name="Grupo 892267" transform="translate(0 8.928)">
              <path id="Trazado_645101" data-name="Trazado 645101" d="M154.094,370.5a3.8,3.8,0,0,0-.467-1.107,2.041,2.041,0,0,0-.748-.7,2.1,2.1,0,0,0-.949-.23.441.441,0,0,0-.1-.007,2.012,2.012,0,0,0-1.208.345c-.007-.007-.022,0-.029.014a1.1,1.1,0,0,0-.115.079,2,2,0,0,0-.252.244,2.873,2.873,0,0,0-.553.992,6.68,6.68,0,0,0-.273,2.128,4.935,4.935,0,0,0,.733,3.033c.007.007.014.022.029.029a1.631,1.631,0,0,0,.359.345,2.126,2.126,0,0,0,1.308.4,2.07,2.07,0,0,0,1.359-.439,2.7,2.7,0,0,0,.805-1.243,7.1,7.1,0,0,0,.266-2.121A7.646,7.646,0,0,0,154.094,370.5Zm-1.208,4.205a1.225,1.225,0,0,1-2.12,0,7,7,0,0,1,.043-4.953,1.174,1.174,0,0,1,1.006-.539,1.273,1.273,0,0,1,1.071.6,7.14,7.14,0,0,1,0,4.888Z" transform="translate(-149.4 -368.46)" fill="#005b83"/>
            </g>
            <g id="Grupo_892268" data-name="Grupo 892268" transform="translate(6.491 8.928)">
              <path id="Trazado_645102" data-name="Trazado 645102" d="M160.586,368.46a3.286,3.286,0,0,1-.819.992,5.52,5.52,0,0,1-1.337.877v.884a5.891,5.891,0,0,0,.963-.474,4.47,4.47,0,0,0,.863-.625v5.829h.92V368.46Z" transform="translate(-158.43 -368.46)" fill="#005b83"/>
            </g>
            <g id="Grupo_892269" data-name="Grupo 892269" transform="translate(11.508 8.928)">
              <path id="Trazado_645103" data-name="Trazado 645103" d="M167.566,368.46a3.053,3.053,0,0,1-.676.863c-.043.043-.086.086-.137.129a5.71,5.71,0,0,1-1.344.877v.884a5.108,5.108,0,0,0,.719-.331c.079-.043.158-.093.244-.144a4.785,4.785,0,0,0,.87-.625v5.829h.913V368.46Z" transform="translate(-165.41 -368.46)" fill="#005b83"/>
            </g>
            <g id="Grupo_892270" data-name="Grupo 892270" transform="translate(16.597 8.928)">
              <path id="Trazado_645104" data-name="Trazado 645104" d="M177.177,370.5a3.613,3.613,0,0,0-.46-1.107,2.04,2.04,0,0,0-.748-.7,2.216,2.216,0,0,0-1.049-.237,2.05,2.05,0,0,0-1.351.439,2.655,2.655,0,0,0-.805,1.236,6.892,6.892,0,0,0-.273,2.128,4.936,4.936,0,0,0,.733,3.033,2.275,2.275,0,0,0,3.048.331,2.6,2.6,0,0,0,.812-1.243,7.1,7.1,0,0,0,.266-2.121A7.213,7.213,0,0,0,177.177,370.5Zm-1.2,4.205a1.259,1.259,0,0,1-1.057.611,1.241,1.241,0,0,1-1.057-.611,7,7,0,0,1,.043-4.953,1.157,1.157,0,0,1,1.006-.539,1.27,1.27,0,0,1,1.064.6,7.14,7.14,0,0,1,0,4.888Z" transform="translate(-172.49 -368.46)" fill="#005b83"/>
            </g>
            <g id="Grupo_892271" data-name="Grupo 892271" transform="translate(23.088 8.928)">
              <path id="Trazado_645105" data-name="Trazado 645105" d="M183.676,368.46a3.36,3.36,0,0,1-.812.992,5.71,5.71,0,0,1-1.344.877v.884a5.892,5.892,0,0,0,.963-.474,4.784,4.784,0,0,0,.87-.625v5.829h.913V368.46Z" transform="translate(-181.52 -368.46)" fill="#005b83"/>
            </g>
            <g id="Grupo_892272" data-name="Grupo 892272" transform="translate(28.105 8.928)">
              <path id="Trazado_645106" data-name="Trazado 645106" d="M190.656,368.46a3.36,3.36,0,0,1-.812.992,5.566,5.566,0,0,1-1.344.877v.884c.093-.036.194-.079.3-.122a6.792,6.792,0,0,0,.661-.352,4.784,4.784,0,0,0,.87-.625v5.829h.913V368.46Z" transform="translate(-188.5 -368.46)" fill="#005b83"/>
            </g>
            <g id="Grupo_892273" data-name="Grupo 892273" transform="translate(0.697 17.848)">
              <path id="Trazado_645107" data-name="Trazado 645107" d="M152.526,380.87v.007a3.12,3.12,0,0,1-.546.733c-.079.086-.173.173-.266.259a4.533,4.533,0,0,1-.618.474c-.115.072-.23.144-.352.208s-.244.129-.374.187v.891a6.213,6.213,0,0,0,.963-.474,4.546,4.546,0,0,0,.87-.633v5.83h.913V380.87Z" transform="translate(-150.37 -380.87)" fill="#005b83"/>
            </g>
            <g id="Grupo_892274" data-name="Grupo 892274" transform="translate(5.786 17.848)">
              <path id="Trazado_645108" data-name="Trazado 645108" d="M162.28,383.839a5,5,0,0,0-.137-.92,3.639,3.639,0,0,0-.46-1.107,2,2,0,0,0-.7-.669c-.014-.007-.036-.022-.05-.029a2.165,2.165,0,0,0-1.057-.244,2.03,2.03,0,0,0-1.344.438,2.635,2.635,0,0,0-.812,1.244,6.892,6.892,0,0,0-.273,2.128,4.859,4.859,0,0,0,.74,3.026,2.043,2.043,0,0,0,1.689.776,2.11,2.11,0,0,0,1.359-.438,2.661,2.661,0,0,0,.805-1.244,6.868,6.868,0,0,0,.266-2.12C162.309,384.371,162.3,384.09,162.28,383.839Zm-1.337,3.285a1.233,1.233,0,0,1-2.12,0,7.02,7.02,0,0,1,.043-4.96,1.167,1.167,0,0,1,1.006-.532,1.257,1.257,0,0,1,1.071.6,7.254,7.254,0,0,1,0,4.888Z" transform="translate(-157.45 -380.87)" fill="#005b83"/>
            </g>
            <g id="Grupo_892275" data-name="Grupo 892275" transform="translate(12.277 17.848)">
              <path id="Trazado_645109" data-name="Trazado 645109" d="M168.636,380.87a3.47,3.47,0,0,1-.812,1,5.1,5.1,0,0,1-.482.381,5.5,5.5,0,0,1-.863.489v.891a6.213,6.213,0,0,0,.963-.474,3.87,3.87,0,0,0,.381-.244,3.628,3.628,0,0,0,.489-.388v5.83h.913V380.87Z" transform="translate(-166.48 -380.87)" fill="#005b83"/>
            </g>
            <g id="Grupo_892276" data-name="Grupo 892276" transform="translate(17.294 17.848)">
              <path id="Trazado_645110" data-name="Trazado 645110" d="M175.616,380.87a3.354,3.354,0,0,1-.812,1,5.41,5.41,0,0,1-1.344.87v.891a6.215,6.215,0,0,0,.963-.474,4.545,4.545,0,0,0,.87-.633v5.83h.92V380.87Z" transform="translate(-173.46 -380.87)" fill="#005b83"/>
            </g>
            <g id="Grupo_892277" data-name="Grupo 892277" transform="translate(22.384 17.848)">
              <path id="Trazado_645111" data-name="Trazado 645111" d="M185.291,383.149c-.022-.086-.036-.158-.057-.23a3.64,3.64,0,0,0-.46-1.107,1.978,1.978,0,0,0-.748-.7,2.165,2.165,0,0,0-1.057-.244,2.064,2.064,0,0,0-1.351.438,2.736,2.736,0,0,0-.805,1.244,6.893,6.893,0,0,0-.273,2.128,9.029,9.029,0,0,0,.1,1.4v.007a3.486,3.486,0,0,0,.64,1.617,2.082,2.082,0,0,0,.589.51,2.172,2.172,0,0,0,1.057.266h.043a2.11,2.11,0,0,0,1.359-.438,2,2,0,0,0,.446-.5,3.081,3.081,0,0,0,.359-.74,6.775,6.775,0,0,0,.273-2.106v-.014A8.871,8.871,0,0,0,185.291,383.149ZM181.97,387.2c-.014-.022-.036-.05-.057-.079a2.983,2.983,0,0,1-.381-1.308,10.633,10.633,0,0,1-.05-1.136,4.693,4.693,0,0,1,.474-2.516,1.167,1.167,0,0,1,1.006-.532,1.257,1.257,0,0,1,1.071.6,3.614,3.614,0,0,1,.417,1.811c.007.194.014.41.014.633,0,.2-.007.388-.014.568a3.763,3.763,0,0,1-.417,1.876,1.27,1.27,0,0,1-1.064.6A1.239,1.239,0,0,1,181.97,387.2Z" transform="translate(-180.54 -380.87)" fill="#005b83"/>
            </g>
            <g id="Grupo_892278" data-name="Grupo 892278" transform="translate(28.882 17.848)">
              <path id="Trazado_645112" data-name="Trazado 645112" d="M191.736,380.87a3.509,3.509,0,0,1-.819,1,5.5,5.5,0,0,1-1.337.87v.891a6.915,6.915,0,0,0,.963-.474,4.709,4.709,0,0,0,.863-.633v5.83h.92V380.87Z" transform="translate(-189.58 -380.87)" fill="#005b83"/>
            </g>
          </g>
          <g id="Grupo_892282" data-name="Grupo 892282" transform="translate(8.718 2.832)">
            <g id="Grupo_892280" data-name="Grupo 892280" transform="translate(14.959 18.763)">
              <path id="Trazado_645113" data-name="Trazado 645113" d="M195.983,399.323a1.68,1.68,0,0,1-.487,2.325l-2.4,1.571a1.682,1.682,0,0,1-2.326-.489l-8.154-12.478a1.682,1.682,0,0,1,.487-2.326l2.4-1.571a1.682,1.682,0,0,1,2.325.488Z" transform="translate(-182.34 -386.083)" fill="#005b83"/>
            </g>
            <g id="Grupo_892281" data-name="Grupo 892281">
              <path id="Trazado_645114" data-name="Trazado 645114" d="M183.662,366.852c-.122-.266-.259-.525-.4-.776s-.273-.474-.424-.7a11.923,11.923,0,0,0-3.422-3.443,10.625,10.625,0,0,0-.913-.553,11.494,11.494,0,0,0-3.479-1.208,8.619,8.619,0,0,0-.963-.129,9.437,9.437,0,0,0-1.107-.057,11.668,11.668,0,0,0-1.8.144c-.323.05-.64.115-.956.194v.007a10.843,10.843,0,0,0-2.358.877,9.509,9.509,0,0,0-.913.51c-.072.043-.137.086-.208.129a11.328,11.328,0,0,0-4.665,6.225,11.717,11.717,0,0,0-.338,5.492,11.219,11.219,0,0,0,.424,1.711,12.044,12.044,0,0,0,1.294,2.7l.043.065a11.694,11.694,0,0,0,3.45,3.45,7.852,7.852,0,0,0,.913.546,11.668,11.668,0,0,0,5.52,1.387,11.268,11.268,0,0,0,3.4-.518c.28-.086.561-.18.827-.288a12.074,12.074,0,0,0,1.847-.942l.173-.108a11.479,11.479,0,0,0,2.365-2.063,11.241,11.241,0,0,0,1.553-2.315,10.894,10.894,0,0,0,.841-2.185A11.785,11.785,0,0,0,183.662,366.852Zm-10.308,13.585c-.165,0-.331-.007-.5-.014a6.559,6.559,0,0,1-.92-.108,8.577,8.577,0,0,1-4.1-1.847,7.892,7.892,0,0,1-.913-.855,5.181,5.181,0,0,1-.489-.575,6.6,6.6,0,0,1-.467-.64c-.007-.007-.007-.014-.014-.022a8.854,8.854,0,0,1-.913-7.878,8.7,8.7,0,0,1,.762-1.56,8.357,8.357,0,0,1,2.537-2.609,8.539,8.539,0,0,1,2.207-1.021,8.725,8.725,0,0,1,.855-.208,8.605,8.605,0,0,1,1.553-.144,7.684,7.684,0,0,1,.913.05,7.175,7.175,0,0,1,.877.137,8.89,8.89,0,0,1,6.175,4.866,7.3,7.3,0,0,1,.3.7,8.761,8.761,0,0,1-1.272,8.568,9.018,9.018,0,0,1-.841.9,8.174,8.174,0,0,1-1.136.891,8.052,8.052,0,0,1-1.783.877,5.517,5.517,0,0,1-.891.266v.007A8.735,8.735,0,0,1,173.354,380.437Z" transform="translate(-161.529 -359.98)" fill="#00cfdd"/>
            </g>
          </g>
        </g>
      </g>
    </g>
  </g>
</svg>
