<svg xmlns="http://www.w3.org/2000/svg" width="281.213" height="244.988" viewBox="0 0 281.213 244.988">
  <g id="Grupo_895800" data-name="Grupo 895800" transform="translate(-284 -3073.039)">
    <g id="Grupo_892550" data-name="Grupo 892550" transform="translate(-638.983 513.396)">
      <g id="Grupo_892543" data-name="Grupo 892543" transform="translate(992.511 2559.642)">
        <g id="Grupo_892542" data-name="Grupo 892542" transform="translate(0)">
          <g id="Grupo_892541" data-name="Grupo 892541">
            <path id="Trazado_645462" data-name="Trazado 645462" d="M1127.962,2605.732,1153.6,2580.1a66.378,66.378,0,0,0-45.133-20.455v36.312A30.27,30.27,0,0,1,1127.962,2605.732Z" transform="translate(-1108.465 -2559.642)" fill="#f2d946"/>
          </g>
        </g>
      </g>
      <g id="Grupo_892546" data-name="Grupo 892546" transform="translate(1014.646 2584.539)">
        <g id="Grupo_892545" data-name="Grupo 892545">
          <g id="Grupo_892544" data-name="Grupo 892544">
            <path id="Trazado_645463" data-name="Trazado 645463" d="M1172.778,2667.676a30.2,30.2,0,0,1-5.264,17.085l25.826,25.826a66.572,66.572,0,0,0,1.064-84.527l-25.968,25.967A30.2,30.2,0,0,1,1172.778,2667.676Z" transform="translate(-1167.514 -2626.059)" fill="#e82e45"/>
          </g>
        </g>
      </g>
      <g id="Grupo_892549" data-name="Grupo 892549" transform="translate(922.983 2559.642)">
        <g id="Grupo_892548" data-name="Grupo 892548">
          <g id="Grupo_892547" data-name="Grupo 892547">
            <path id="Trazado_645464" data-name="Trazado 645464" d="M989.565,2656.5a30.345,30.345,0,0,1-2.946-60.547v-36.312a66.58,66.58,0,1,0,49.857,113.76l-25.623-25.623A30.246,30.246,0,0,1,989.565,2656.5Z" transform="translate(-922.983 -2559.642)" fill="#35a9bc"/>
          </g>
        </g>
      </g>
    </g>
    <g id="Grupo_892557" data-name="Grupo 892557" transform="translate(-2273.251 1121.674)">
      <g id="Grupo_892553" data-name="Grupo 892553" transform="translate(2716.834 1990.888)">
        <g id="Grupo_892552" data-name="Grupo 892552" transform="translate(0 0)">
          <g id="Grupo_892551" data-name="Grupo 892551">
            <path id="Trazado_645465" data-name="Trazado 645465" d="M2793.79,2002.551a58.668,58.668,0,1,0,37.492,37.287l-55.855,18.414Z" transform="translate(-2716.834 -1999.66)" fill="#39b54a"/>
          </g>
        </g>
      </g>
      <g id="Grupo_892556" data-name="Grupo 892556" transform="translate(2784.654 1986.326)">
        <g id="Grupo_892555" data-name="Grupo 892555" transform="translate(0 0)">
          <g id="Grupo_892554" data-name="Grupo 892554">
            <path id="Trazado_645466" data-name="Trazado 645466" d="M2932.745,1986.326l-17.691,53.661,53.81-17.74A56.709,56.709,0,0,0,2932.745,1986.326Z" transform="translate(-2915.054 -1986.326)" fill="#35a9bc"/>
          </g>
        </g>
      </g>
    </g>
    <g id="Grupo_892567" data-name="Grupo 892567" transform="translate(29.874 2906.354)">
      <g id="Grupo_892560" data-name="Grupo 892560" transform="translate(391.12 299.779)">
        <g id="Grupo_892559" data-name="Grupo 892559" transform="translate(0)">
          <g id="Grupo_892558" data-name="Grupo 892558">
            <path id="Trazado_645467" data-name="Trazado 645467" d="M564.572,352.786a55.995,55.995,0,0,0-53.006-53.007v53.007h53.006Z" transform="translate(-511.566 -299.779)" fill="#f2d946"/>
          </g>
        </g>
      </g>
      <g id="Grupo_892563" data-name="Grupo 892563" transform="translate(350.739 358.591)">
        <g id="Grupo_892562" data-name="Grupo 892562" transform="translate(0)">
          <g id="Grupo_892561" data-name="Grupo 892561">
            <path id="Trazado_645468" data-name="Trazado 645468" d="M427.27,478.885l-4.1,4.1-34.577,34.577a55.755,55.755,0,0,0,34.577,14.326q1.442.074,2.9.074t2.9-.074a55.987,55.987,0,0,0,53.006-53.007H427.27Z" transform="translate(-388.589 -478.885)" fill="#39b54a"/>
          </g>
        </g>
      </g>
      <g id="Grupo_892566" data-name="Grupo 892566" transform="translate(332.234 299.779)">
        <g id="Grupo_892565" data-name="Grupo 892565">
          <g id="Grupo_892564" data-name="Grupo 892564">
            <path id="Trazado_645469" data-name="Trazado 645469" d="M385.316,354.486V299.779a55.988,55.988,0,0,0-53.006,53.007q-.073,1.442-.075,2.9t.075,2.9a55.762,55.762,0,0,0,14.325,34.576l34.577-34.576Z" transform="translate(-332.234 -299.779)" fill="#e82e45"/>
          </g>
        </g>
      </g>
    </g>
  </g>
</svg>
