<svg xmlns="http://www.w3.org/2000/svg" xmlns:xlink="http://www.w3.org/1999/xlink" width="65" height="65" viewBox="0 0 65 65">
  <defs>
    <linearGradient id="linear-gradient" x1="0.038" y1="0.196" x2="0.756" y2="0.784" gradientUnits="objectBoundingBox">
      <stop offset="0" stop-color="#676767"/>
      <stop offset="0.963" stop-color="#fff"/>
    </linearGradient>
  </defs>
  <g id="Grupo_895801" data-name="Grupo 895801" transform="translate(-226 -3826)">
    <g id="Grupo_892259" data-name="Grupo 892259" transform="translate(-4.69 3594.63)">
      <path id="Trazado_645077" data-name="Trazado 645077" d="M295.69,263.866c0,.294-.007.588-.015.875-.029,1.11-.118,2.2-.243,3.278a32.563,32.563,0,1,1,.257-4.152Z" transform="translate(0 0)" fill="#00cfdd"/>
      <g id="Grupo_892258" data-name="Grupo 892258" transform="translate(249.334 239.533)">
        <path id="Trazado_645078" data-name="Trazado 645078" d="M297.293,269.978c-.027,1.171-.109,2.326-.224,3.458-1.625,14.459-11.128,26.1-23.44,29.136a26.7,26.7,0,0,1-10.829.4c-5.085-5.838-9.463-10.908-11.128-12.947a6.533,6.533,0,0,1-.721-.946V261.6a.908.908,0,0,1,.843-.961h3.29v-3.752a1.007,1.007,0,0,1,.245-.674c.041-.047.082-.085.122-.124a.8.8,0,0,1,.475-.163h3.284v-3.745a1.027,1.027,0,0,1,.245-.674.991.991,0,0,1,.129-.124.912.912,0,0,1,.143-.085.681.681,0,0,1,.326-.078h3.29v-3.752a.908.908,0,0,1,.843-.961h12.182a.1.1,0,0,1,.048.008.089.089,0,0,0,.041.016h.054c.007-.008.02,0,.027,0a.345.345,0,0,1,.075.039.693.693,0,0,1,.156.07.831.831,0,0,1,.136.109.146.146,0,0,0,.034.023.1.1,0,0,1,.027.023.559.559,0,0,1,.061.07l1.026,1.171c.007.008.007.008.014.008l1.088,1.248h.007l1.088,1.248,1.434,1.644Z" transform="translate(-250.95 -246.51)" opacity="0.4" fill="url(#linear-gradient)" style="mix-blend-mode: multiply;isolation: isolate"/>
        <g id="Grupo_892257" data-name="Grupo 892257">
          <g id="Grupo_892243" data-name="Grupo 892243" transform="translate(0 12.39)">
            <g id="Grupo_892241" data-name="Grupo 892241" transform="translate(0 0.003)">
              <path id="Trazado_645079" data-name="Trazado 645079" d="M269.095,290.068h-16.9v-24.09H264.38l4.715,4.725h0Z" transform="translate(-251.348 -265.136)" fill="#fff"/>
              <path id="Trazado_645080" data-name="Trazado 645080" d="M269.291,269.709l-.075-.075-1.978-1.985-1.027-1.026-1.183-1.19-.394-.388a.214.214,0,0,0-.068-.068.507.507,0,0,0-.116-.1.716.716,0,0,0-.265-.116.1.1,0,0,0-.041-.014.663.663,0,0,0-.163-.014H251.793a.843.843,0,0,0-.843.843v24.092a.848.848,0,0,0,.721.829.377.377,0,0,0,.122.014h16.9a.85.85,0,0,0,.85-.85V270.308A.827.827,0,0,0,269.291,269.709Zm-1.441,19.116H252.643v-22.4h10.986l1.4,1.4,1.693,1.7.564.564.564.564Z" transform="translate(-250.95 -264.74)" fill="#fa7a49"/>
            </g>
            <g id="Grupo_892242" data-name="Grupo 892242" transform="translate(11.114)">
              <path id="Trazado_645081" data-name="Trazado 645081" d="M273.931,271.777h-5.788a.844.844,0,0,1-.828-1.011l1.073-5.353a.845.845,0,0,1,1.656.332l-.87,4.343h4.757a.844.844,0,1,1,0,1.689Z" transform="translate(-267.298 -264.736)" fill="#005b83"/>
            </g>
          </g>
          <g id="Grupo_892246" data-name="Grupo 892246" transform="translate(4.133 8.26)">
            <g id="Grupo_892244" data-name="Grupo 892244">
              <path id="Trazado_645082" data-name="Trazado 645082" d="M275.169,283.993h-16.9V259.9h12.185l4.714,4.725h0Z" transform="translate(-257.427 -259.058)" fill="#fff"/>
              <path id="Trazado_645083" data-name="Trazado 645083" d="M275.371,263.636l-1.169-1.169-.891-.891-.258-.265-.768-.761-.279-.286-1.353-1.353a.866.866,0,0,0-.428-.238,1.33,1.33,0,0,0-.17-.014H257.872a.869.869,0,0,0-.475.143c-.041.034-.082.068-.122.109a.822.822,0,0,0-.245.591V283.6a.838.838,0,0,0,.842.843h16.9a.838.838,0,0,0,.843-.843V264.228A.833.833,0,0,0,275.371,263.636Zm-1.441,19.116H258.716V260.346h10.992l.87.87.408.415.177.177.353.347,1.849,1.863.564.564Z" transform="translate(-257.03 -258.66)" fill="#fa7a49"/>
            </g>
            <g id="Grupo_892245" data-name="Grupo 892245" transform="translate(11.11 0.001)">
              <path id="Trazado_645084" data-name="Trazado 645084" d="M280.005,265.7h-5.788a.845.845,0,0,1-.828-1.011l1.074-5.353a.844.844,0,0,1,1.655.332l-.871,4.343h4.757a.845.845,0,0,1,0,1.689Z" transform="translate(-273.373 -258.662)" fill="#005b83"/>
            </g>
          </g>
          <g id="Grupo_892249" data-name="Grupo 892249" transform="translate(8.26 4.131)">
            <g id="Grupo_892247" data-name="Grupo 892247" transform="translate(0 0.002)">
              <path id="Trazado_645085" data-name="Trazado 645085" d="M281.244,277.919h-16.9V253.828h12.185l4.715,4.725h0Z" transform="translate(-263.498 -252.986)" fill="#fff"/>
              <path id="Trazado_645086" data-name="Trazado 645086" d="M281.441,257.559l-2.053-2.06-1.026-1.027-1.57-1.57-.061-.068a.119.119,0,0,0-.034-.027.836.836,0,0,0-.4-.2.663.663,0,0,0-.164-.014H263.943a.759.759,0,0,0-.326.068.761.761,0,0,0-.272.184.838.838,0,0,0-.245.591v24.092a.847.847,0,0,0,.843.843h16.9a.849.849,0,0,0,.85-.843V258.158A.827.827,0,0,0,281.441,257.559ZM280,276.676H264.793v-22.4h10.986l.87.87,1.1,1.1,1.686,1.693.564.564Z" transform="translate(-263.1 -252.59)" fill="#fa7a49"/>
            </g>
            <g id="Grupo_892248" data-name="Grupo 892248" transform="translate(11.114)">
              <path id="Trazado_645087" data-name="Trazado 645087" d="M286.08,259.629h-5.788a.844.844,0,0,1-.827-1.01l1.073-5.353a.844.844,0,1,1,1.655.331l-.87,4.343h4.757a.844.844,0,0,1,0,1.689Z" transform="translate(-279.448 -252.587)" fill="#005b83"/>
            </g>
          </g>
          <g id="Grupo_892252" data-name="Grupo 892252" transform="translate(12.393)">
            <g id="Grupo_892250" data-name="Grupo 892250">
              <path id="Trazado_645088" data-name="Trazado 645088" d="M287.319,271.844h-16.9v-24.09H282.6l4.714,4.725h0Z" transform="translate(-269.577 -246.908)" fill="#fff"/>
              <path id="Trazado_645089" data-name="Trazado 645089" d="M287.521,251.486l-1.434-1.441-1.094-1.095-1.1-1.1-1.026-1.027a.517.517,0,0,0-.061-.061.1.1,0,0,0-.027-.02.628.628,0,0,0-.2-.143.242.242,0,0,0-.061-.027.564.564,0,0,0-.143-.041c-.007,0-.02-.007-.027,0a.232.232,0,0,0-.1-.014.115.115,0,0,0-.048-.007H270.023a.843.843,0,0,0-.843.843v24.092a.839.839,0,0,0,.843.843h16.9a.842.842,0,0,0,.842-.843V252.078A.844.844,0,0,0,287.521,251.486ZM286.08,270.6H270.866V248.2h10.992l.863.87,2.794,2.794.564.564Z" transform="translate(-269.18 -246.51)" fill="#005b83"/>
            </g>
            <g id="Grupo_892251" data-name="Grupo 892251" transform="translate(11.11 0.001)">
              <path id="Trazado_645090" data-name="Trazado 645090" d="M292.155,253.553h-5.787a.844.844,0,0,1-.828-1.01l1.073-5.353a.844.844,0,1,1,1.655.332l-.871,4.343h4.757a.844.844,0,0,1,0,1.689Z" transform="translate(-285.523 -246.512)" fill="#005b83"/>
            </g>
          </g>
          <g id="Grupo_892253" data-name="Grupo 892253" transform="translate(18.09 7.138)">
            <path id="Trazado_645091" data-name="Trazado 645091" d="M281.347,257.01a4.411,4.411,0,0,1-.238.421l-.008.007a7.045,7.045,0,0,1-1.182,1.319,7.866,7.866,0,0,1-.952.734,2.322,2.322,0,0,1-.388.245,6.436,6.436,0,0,1-.761.428.621.621,0,0,1-.1.048l-.163.082v1.557c.061-.02.116-.048.177-.068.116-.048.231-.1.354-.156.252-.109.51-.245.789-.394.122-.068.245-.136.367-.211a.57.57,0,0,0,.082-.054s.007.007.007,0a2.622,2.622,0,0,0,.292-.184,6.926,6.926,0,0,0,1.149-.87v10.245h1.6V257.01Z" transform="translate(-277.56 -257.01)" fill="#005b83"/>
          </g>
          <g id="Grupo_892256" data-name="Grupo 892256" transform="translate(12.264 9.206)">
            <g id="Grupo_892254" data-name="Grupo 892254">
              <path id="Trazado_645092" data-name="Trazado 645092" d="M284.262,275.7c0,.023.006.052.006.076V278.6c0,.065-.006.141-.006.2a10.065,10.065,0,0,1-.1,1.069c-.029.21-.064.426-.106.654a23.113,23.113,0,0,1-1.249,4.4,6.152,6.152,0,0,1-.275.585,2.842,2.842,0,0,1-.374.583.536.536,0,0,1-.373.235h-10.09a.579.579,0,0,1-.3-.235,3.449,3.449,0,0,1-.351-.583c-.082-.169-.169-.363-.251-.568a32.556,32.556,0,0,1-1.671-6.6c-.03-.222-.058-.432-.075-.632-.012-.128-.025-.251-.03-.362,0-.052-.005-.1-.005-.152H269v-.022c0-.047-.005-.1-.005-.147l.005-.017v-5.094a1.253,1.253,0,0,1,1.121-1.355c.042,0,.083-.006.124-.006a1.234,1.234,0,0,1,1.087.654v1.554a.622.622,0,0,0,.3.5h.006a.607.607,0,0,0,.28.082.548.548,0,0,0,.2-.041,1.065,1.065,0,0,0,.1-.052c.005-.007.011-.007.016-.012a.568.568,0,0,0,.262-.479V261.3a1.248,1.248,0,1,1,2.5,0v11.463a.571.571,0,0,0,.262.479c.042.023.077.046.118.064a.568.568,0,0,0,.2.041.555.555,0,0,0,.321-.1.607.607,0,0,0,.2-.222.637.637,0,0,0,.064-.258v-3.891a1.119,1.119,0,1,1,2.239,0v3.891a.569.569,0,0,0,.262.479.562.562,0,0,0,.322.1.551.551,0,0,0,.315-.1.576.576,0,0,0,.269-.479v-2.249a1.116,1.116,0,0,1,2.232,0v2.249a.577.577,0,0,0,.321.515.6.6,0,0,0,.262.069c.012,0,.024-.006.037-.006a.566.566,0,0,0,.526-.444.572.572,0,0,0,.023-.134v-1.554a.651.651,0,1,1,1.3,0v1.869l-.006-.005Z" transform="translate(-268.99 -260.052)" fill="#f3c144"/>
            </g>
            <g id="Grupo_892255" data-name="Grupo 892255" transform="translate(0.815 26.182)">
              <rect id="Rectángulo_298990" data-name="Rectángulo 298990" width="13.979" height="5.254" rx="1.637" fill="#005b83"/>
            </g>
          </g>
        </g>
      </g>
    </g>
  </g>
</svg>
