<svg xmlns="http://www.w3.org/2000/svg" width="301.451" height="306.681" viewBox="0 0 301.451 306.681">
  <g id="Grupo_895799" data-name="Grupo 895799" transform="translate(-264 -5050.196)">
    <g id="Flat" transform="translate(240 5026.196)">
      <rect id="Rectángulo_299186" data-name="Rectángulo 299186" width="63.267" height="41.868" rx="8" transform="translate(143.092 24)" fill="#348ed8"/>
      <path id="Trazado_659258" data-name="Trazado 659258" d="M263.188,108.792H232L237.2,88H257.99Z" transform="translate(-72.852 -22.416)" fill="#d5d5d3"/>
      <path id="Trazado_659259" data-name="Trazado 659259" d="M224,112h41.584v10.4H224Z" transform="translate(-70.05 -30.822)" fill="#dfdfdd"/>
      <path id="Trazado_659260" data-name="Trazado 659260" d="M261.99,98.4H236L238.6,88h20.792Z" transform="translate(-74.253 -22.416)" fill="#cececc"/>
      <g id="Grupo_894595" data-name="Grupo 894595" transform="translate(98.768 101.97)">
        <path id="Trazado_659261" data-name="Trazado 659261" d="M248,144h10.4v25.99H248Z" transform="translate(-177.225 -144)" fill="#4db6e4"/>
        <path id="Trazado_659262" data-name="Trazado 659262" d="M248,328h10.4v25.99H248Z" transform="translate(-177.225 -208.446)" fill="#4db6e4"/>
        <path id="Trazado_659263" data-name="Trazado 659263" d="M139.073,185.9l6.5-8.119,25.994,20.8-6.5,8.119Z" transform="translate(-139.073 -155.833)" fill="#4db6e4"/>
        <path id="Trazado_659264" data-name="Trazado 659264" d="M139.652,326.071l31.186-20.8,5.77,8.649-31.186,20.8Z" transform="translate(-139.276 -200.484)" fill="#4db6e4"/>
        <path id="Trazado_659265" data-name="Trazado 659265" d="M323.1,198.462l25.994-20.8,6.5,8.119-25.995,20.8Z" transform="translate(-203.53 -155.789)" fill="#4db6e4"/>
        <path id="Trazado_659266" data-name="Trazado 659266" d="M315.649,314.1l5.77-8.65,31.186,20.8-5.77,8.649Z" transform="translate(-200.919 -200.549)" fill="#4db6e4"/>
      </g>
      <rect id="Rectángulo_299187" data-name="Rectángulo 299187" width="62.337" height="41.868" rx="8" transform="translate(263.114 86.337)" fill="#348ed8"/>
      <path id="Trazado_659267" data-name="Trazado 659267" d="M447.188,204.792H416L421.2,184H441.99Z" transform="translate(-137.299 -56.04)" fill="#d5d5d3"/>
      <path id="Trazado_659268" data-name="Trazado 659268" d="M408,208h41.584v10.4H408Z" transform="translate(-134.497 -64.446)" fill="#dfdfdd"/>
      <path id="Trazado_659269" data-name="Trazado 659269" d="M445.99,194.4H420l2.6-10.4h20.792Z" transform="translate(-138.7 -56.04)" fill="#cececc"/>
      <rect id="Rectángulo_299188" data-name="Rectángulo 299188" width="62.337" height="41.868" rx="8" transform="translate(24 86.337)" fill="#348ed8"/>
      <path id="Trazado_659270" data-name="Trazado 659270" d="M79.188,204.792H48L53.2,184H73.99Z" transform="translate(-8.406 -56.04)" fill="#d5d5d3"/>
      <path id="Trazado_659271" data-name="Trazado 659271" d="M40,208H81.584v10.4H40Z" transform="translate(-5.604 -64.446)" fill="#dfdfdd"/>
      <path id="Trazado_659272" data-name="Trazado 659272" d="M77.99,194.4H52L54.6,184H75.391Z" transform="translate(-9.807 -56.04)" fill="#cececc"/>
      <rect id="Rectángulo_299189" data-name="Rectángulo 299189" width="62.337" height="41.868" rx="8" transform="translate(263.114 211.011)" fill="#348ed8"/>
      <path id="Trazado_659273" data-name="Trazado 659273" d="M447.188,396.792H416L421.2,376H441.99Z" transform="translate(-137.299 -123.289)" fill="#d5d5d3"/>
      <path id="Trazado_659274" data-name="Trazado 659274" d="M408,400h41.584v10.4H408Z" transform="translate(-134.497 -131.695)" fill="#dfdfdd"/>
      <path id="Trazado_659275" data-name="Trazado 659275" d="M445.99,386.4H420l2.6-10.4h20.792Z" transform="translate(-138.7 -123.289)" fill="#cececc"/>
      <rect id="Rectángulo_299190" data-name="Rectángulo 299190" width="62.337" height="41.868" rx="8" transform="translate(24 211.011)" fill="#348ed8"/>
      <path id="Trazado_659276" data-name="Trazado 659276" d="M79.188,396.792H48L53.2,376H73.99Z" transform="translate(-8.406 -123.289)" fill="#d5d5d3"/>
      <path id="Trazado_659277" data-name="Trazado 659277" d="M40,400H81.584v10.4H40Z" transform="translate(-5.604 -131.695)" fill="#dfdfdd"/>
      <path id="Trazado_659278" data-name="Trazado 659278" d="M77.99,386.4H52L54.6,376H75.391Z" transform="translate(-9.807 -123.289)" fill="#cececc"/>
      <rect id="Rectángulo_299191" data-name="Rectángulo 299191" width="63.267" height="41.868" rx="8" transform="translate(143.092 263.114)" fill="#348ed8"/>
      <path id="Trazado_659279" data-name="Trazado 659279" d="M263.188,476.792H232L237.2,456H257.99Z" transform="translate(-72.852 -151.309)" fill="#d5d5d3"/>
      <path id="Trazado_659280" data-name="Trazado 659280" d="M224,480h41.584v10.4H224Z" transform="translate(-70.05 -159.715)" fill="#dfdfdd"/>
      <path id="Trazado_659281" data-name="Trazado 659281" d="M261.99,466.4H236l2.6-10.4h20.792Z" transform="translate(-74.253 -151.309)" fill="#cececc"/>
      <rect id="Rectángulo_299192" data-name="Rectángulo 299192" width="63.267" height="41.868" rx="8" transform="translate(143.092 143.092)" fill="#348ed8"/>
      <path id="Trazado_659282" data-name="Trazado 659282" d="M263.188,292.792H232L237.2,272H257.99Z" transform="translate(-72.852 -86.862)" fill="#d5d5d3"/>
      <path id="Trazado_659283" data-name="Trazado 659283" d="M224,296h41.584v10.4H224Z" transform="translate(-70.05 -95.269)" fill="#dfdfdd"/>
      <path id="Trazado_659284" data-name="Trazado 659284" d="M261.99,282.4H236l2.6-10.4h20.792Z" transform="translate(-74.253 -86.862)" fill="#cececc"/>
    </g>
  </g>
</svg>
