<svg xmlns="http://www.w3.org/2000/svg" width="336.5" height="330.456" viewBox="0 0 336.5 330.456">
  <g id="Grupo_895801" data-name="Grupo 895801" transform="translate(-269.25 -6154.737)">
    <g id="Grupo_894594" data-name="Grupo 894594" transform="translate(52.572 6028.792)">
      <circle id="Elipse_7296" data-name="Elipse 7296" cx="30.751" cy="30.751" r="30.751" transform="translate(220.366 260.172)" fill="#9dcdf4"/>
      <circle id="Elipse_7297" data-name="Elipse 7297" cx="33.708" cy="33.708" r="33.708" transform="translate(217.428 257.221)" fill="none" stroke="#9dcdf4" stroke-miterlimit="10.003" stroke-width="1.5"/>
      <circle id="Elipse_7298" data-name="Elipse 7298" cx="33.698" cy="33.698" r="33.698" transform="translate(290.198 143.701)" fill="none" stroke="#9dcdf4" stroke-miterlimit="10" stroke-width="1.5"/>
      <circle id="Elipse_7299" data-name="Elipse 7299" cx="33.709" cy="33.709" r="33.709" transform="translate(412.244 143.669)" fill="none" stroke="#9dcdf4" stroke-miterlimit="10.003" stroke-width="1.5"/>
      <circle id="Elipse_7300" data-name="Elipse 7300" cx="18.273" cy="18.273" r="18.273" transform="translate(510.462 188.611)" fill="none" stroke="#9dcdf4" stroke-miterlimit="10" stroke-width="1.5"/>
      <circle id="Elipse_7301" data-name="Elipse 7301" cx="18.273" cy="18.273" r="18.273" transform="translate(510.461 355.196)" fill="none" stroke="#9dcdf4" stroke-miterlimit="10" stroke-width="1.5"/>
      <circle id="Elipse_7302" data-name="Elipse 7302" cx="18.273" cy="18.273" r="18.273" transform="translate(365.783 419.105)" fill="none" stroke="#9dcdf4" stroke-miterlimit="10" stroke-width="1.5"/>
      <circle id="Elipse_7303" data-name="Elipse 7303" cx="18.273" cy="18.273" r="18.273" transform="translate(365.783 126.695)" fill="none" stroke="#9dcdf4" stroke-miterlimit="10" stroke-width="1.5"/>
      <circle id="Elipse_7304" data-name="Elipse 7304" cx="18.273" cy="18.273" r="18.273" transform="translate(220.715 188.611)" fill="none" stroke="#9dcdf4" stroke-miterlimit="10" stroke-width="1.5"/>
      <circle id="Elipse_7305" data-name="Elipse 7305" cx="18.273" cy="18.273" r="18.273" transform="translate(220.715 355.196)" fill="none" stroke="#9dcdf4" stroke-miterlimit="10" stroke-width="1.5"/>
      <circle id="Elipse_7306" data-name="Elipse 7306" cx="33.698" cy="33.698" r="33.698" transform="translate(290.198 370.75)" fill="none" stroke="#9dcdf4" stroke-miterlimit="10" stroke-width="0.871"/>
      <circle id="Elipse_7307" data-name="Elipse 7307" cx="33.698" cy="33.698" r="33.698" transform="translate(412.252 370.75)" fill="none" stroke="#9dcdf4" stroke-miterlimit="10" stroke-width="0.871"/>
      <circle id="Elipse_7308" data-name="Elipse 7308" cx="33.698" cy="33.698" r="33.698" transform="translate(485.031 257.225)" fill="none" stroke="#9dcdf4" stroke-miterlimit="10" stroke-width="1.5"/>
      <circle id="Elipse_7309" data-name="Elipse 7309" cx="30.751" cy="30.751" r="30.751" transform="translate(293.306 373.697)" fill="#9dcdf4"/>
      <circle id="Elipse_7310" data-name="Elipse 7310" cx="30.751" cy="30.751" r="30.751" transform="translate(293.145 146.647)" fill="#9dcdf4"/>
      <circle id="Elipse_7311" data-name="Elipse 7311" cx="30.751" cy="30.751" r="30.751" transform="translate(487.978 260.172)" fill="#9dcdf4"/>
      <circle id="Elipse_7312" data-name="Elipse 7312" cx="30.751" cy="30.751" r="30.751" transform="translate(415.199 373.696)" fill="#9dcdf4"/>
      <circle id="Elipse_7313" data-name="Elipse 7313" cx="30.751" cy="30.751" r="30.751" transform="translate(415.199 146.647)" fill="#9dcdf4"/>
      <g id="Grupo_894555" data-name="Grupo 894555" transform="translate(229.711 366.559)">
        <rect id="Rectángulo_299168" data-name="Rectángulo 299168" width="17.755" height="11.429" fill="#6d6d6c"/>
        <rect id="Rectángulo_299169" data-name="Rectángulo 299169" width="16.147" height="10.004" transform="translate(0.872 0.713)" fill="#3f3f3f"/>
        <path id="Trazado_659204" data-name="Trazado 659204" d="M232.78,240.082c0,.325-1.688.589-3.77.589s-3.77-.264-3.77-.589,1.688-.586,3.77-.586S232.78,239.758,232.78,240.082Z" transform="translate(-220.034 -226.851)" fill="#6d6d6c"/>
        <path id="Trazado_659205" data-name="Trazado 659205" d="M227.241,241h0a.572.572,0,0,1-.569-.569V239.32a.57.57,0,0,1,.569-.566h0a.568.568,0,0,1,.566.566v1.115A.572.572,0,0,1,227.241,241Z" transform="translate(-218.262 -227.77)" fill="#6d6d6c"/>
      </g>
      <g id="Grupo_894606" data-name="Grupo 894606" transform="translate(232.176 195.812)">
        <rect id="Rectángulo_299170" data-name="Rectángulo 299170" width="14.652" height="22.143" fill="#edebdf"/>
        <rect id="Rectángulo_299171" data-name="Rectángulo 299171" width="13.813" height="21.352" transform="translate(0.419 0.37)" fill="#6d6d6c"/>
        <rect id="Rectángulo_299172" data-name="Rectángulo 299172" width="12.927" height="17.807" transform="translate(0.862 1.62)" fill="#3f3f3f"/>
        <path id="Trazado_659206" data-name="Trazado 659206" d="M230.737,158.376h-4.271a.239.239,0,0,1-.237-.237h0a.239.239,0,0,1,.237-.237h4.271a.239.239,0,0,1,.237.237h0A.239.239,0,0,1,230.737,158.376Z" transform="translate(-221.276 -157.162)" fill="#3f3f3f"/>
        <path id="Trazado_659207" data-name="Trazado 659207" d="M226.971,167.187a.712.712,0,1,1,.712.71h0A.712.712,0,0,1,226.971,167.187Z" transform="translate(-220.357 -146.546)" fill="#3f3f3f"/>
      </g>
      <g id="Grupo_894558" data-name="Grupo 894558" transform="translate(520.782 198.484)">
        <rect id="Rectángulo_299180" data-name="Rectángulo 299180" width="19.739" height="10.378" transform="translate(0 5.013)" fill="#6d6d6c"/>
        <rect id="Rectángulo_299181" data-name="Rectángulo 299181" width="12.956" height="1.974" transform="translate(3.391 3.039)" fill="#3f3f3f"/>
        <rect id="Rectángulo_299182" data-name="Rectángulo 299182" width="9.384" height="5.013" transform="translate(5.177)" fill="#edebdf"/>
        <path id="Rectángulo_299183" data-name="Rectángulo 299183" d="M356.119,163.16H366.6a2.1,2.1,0,0,1,2.1,2.1h0v3.45h-14.68v-3.45a2.1,2.1,0,0,1,2.1-2.1Z" transform="translate(-351.612 -153.321)" fill="#3f3f3f"/>
        <rect id="Rectángulo_299184" data-name="Rectángulo 299184" width="9.384" height="5.013" transform="translate(5.177 13.632)" fill="#edebdf"/>
        <path id="Trazado_659219" data-name="Trazado 659219" d="M365.566,166.02H355.553a.794.794,0,0,1-.792-.792h0a.793.793,0,0,1,.792-.79h10.013a.793.793,0,0,1,.792.79h0A.794.794,0,0,1,365.566,166.02Z" transform="translate(-350.69 -151.739)" fill="#6d6d6c"/>
        <path id="Trazado_659220" data-name="Trazado 659220" d="M354.493,161.924a.555.555,0,1,1-.555-.555.555.555,0,0,1,.555.555Z" transform="translate(-352.397 -155.539)" fill="#3f3f3f"/>
        <path id="Trazado_659221" data-name="Trazado 659221" d="M361.961,161.924a.555.555,0,1,1-.555-.555.555.555,0,0,1,.555.555Z" transform="translate(-343.148 -155.539)" fill="#edebdf"/>
      </g>
      <g id="Grupo_894593" data-name="Grupo 894593" transform="translate(239.502 148.8)">
        <g id="Grupo_894577" data-name="Grupo 894577" transform="translate(45.315 59.007)">
          <path id="Trazado_659254" data-name="Trazado 659254" d="M415.339,199.773c-2.212.058-167.807,0-167.807,0" transform="translate(-247.532 -117.296)" fill="none" stroke="#9dcdf4" stroke-miterlimit="10" stroke-width="1.5"/>
          <line id="Línea_953" data-name="Línea 953" x2="12.605" y2="22.692" transform="translate(53.621)" fill="none" stroke="#9dcdf4" stroke-miterlimit="10" stroke-width="1.5"/>
          <line id="Línea_954" data-name="Línea 954" x1="75.383" y2="146.059" transform="translate(57.997 22.692)" fill="none" stroke="#9dcdf4" stroke-miterlimit="10" stroke-width="1.5"/>
        </g>
        <g id="Grupo_894578" data-name="Grupo 894578" transform="translate(111.54 59.007)">
          <path id="Trazado_659255" data-name="Trazado 659255" d="M322.495,199.773c2.212.058,32.4,0,32.4,0" transform="translate(-220.913 -117.296)" fill="none" stroke="#9dcdf4" stroke-miterlimit="10" stroke-width="1.5"/>
          <line id="Línea_955" data-name="Línea 955" x1="12.605" y2="22.692" transform="translate(67.153)" fill="none" stroke="#9dcdf4" stroke-miterlimit="10" stroke-width="1.5"/>
          <line id="Línea_956" data-name="Línea 956" x2="75.537" y2="146.372" transform="translate(0 22.692)" fill="none" stroke="#9dcdf4" stroke-miterlimit="10" stroke-width="1.5"/>
        </g>
        <g id="Grupo_894581" data-name="Grupo 894581" transform="translate(0.167 109.193)">
          <g id="Grupo_894579" data-name="Grupo 894579" transform="translate(14.693)">
            <line id="Línea_957" data-name="Línea 957" y1="38.979" x2="69.768" transform="translate(0 66.63)" fill="none" stroke="#9dcdf4" stroke-miterlimit="10" stroke-width="1.5"/>
            <line id="Línea_958" data-name="Línea 958" y1="105.609" x2="190.171" fill="none" stroke="#9dcdf4" stroke-miterlimit="10" stroke-width="1.5"/>
          </g>
          <g id="Grupo_894580" data-name="Grupo 894580" transform="translate(0 62.767)">
            <line id="Línea_959" data-name="Línea 959" x1="3.662" y2="31.483" transform="translate(0 2.953)" fill="none" stroke="#9dcdf4" stroke-miterlimit="10" stroke-width="1.5"/>
            <line id="Línea_960" data-name="Línea 960" x2="41.895" y2="10.089" transform="translate(9.071 68.16)" fill="none" stroke="#9dcdf4" stroke-miterlimit="10" stroke-width="1.5"/>
            <line id="Línea_961" data-name="Línea 961" x2="38.123" y2="55.842" transform="translate(27.122)" fill="none" stroke="#9dcdf4" stroke-miterlimit="10" stroke-width="1.5"/>
          </g>
        </g>
        <g id="Grupo_894584" data-name="Grupo 894584" transform="translate(85.367 107.548)">
          <g id="Grupo_894582" data-name="Grupo 894582">
            <line id="Línea_962" data-name="Línea 962" x1="188.708" y1="107.254" fill="none" stroke="#9dcdf4" stroke-miterlimit="10" stroke-width="1.5"/>
            <path id="Trazado_659256" data-name="Trazado 659256" d="M349.723,232.527" transform="translate(-161.017 -125.271)" fill="none" stroke="#9dcdf4" stroke-miterlimit="10" stroke-width="1.5"/>
          </g>
          <g id="Grupo_894583" data-name="Grupo 894583" transform="translate(140.36 64.412)">
            <line id="Línea_963" data-name="Línea 963" x2="3.662" y2="31.483" transform="translate(61.582 2.953)" fill="none" stroke="#9dcdf4" stroke-miterlimit="10" stroke-width="1.5"/>
            <line id="Línea_964" data-name="Línea 964" x1="40.165" y2="9.672" transform="translate(14.277 68.577)" fill="none" stroke="#9dcdf4" stroke-miterlimit="10" stroke-width="1.5"/>
            <line id="Línea_965" data-name="Línea 965" x1="38.123" y2="55.842" fill="none" stroke="#9dcdf4" stroke-miterlimit="10" stroke-width="1.5"/>
          </g>
        </g>
        <g id="Grupo_894587" data-name="Grupo 894587" transform="translate(205.032 33.98)">
          <g id="Grupo_894585" data-name="Grupo 894585" transform="translate(0 35.945)">
            <line id="Línea_966" data-name="Línea 966" x1="68.806" y2="38.442" transform="translate(1.478)" fill="none" stroke="#9dcdf4" stroke-miterlimit="10" stroke-width="1.5"/>
            <line id="Línea_967" data-name="Línea 967" x1="70.284" y2="39.268" fill="none" stroke="#9dcdf4" stroke-miterlimit="10" stroke-width="1.5"/>
          </g>
          <g id="Grupo_894586" data-name="Grupo 894586" transform="translate(20.695)">
            <line id="Línea_968" data-name="Línea 968" y1="33.019" x2="3.841" transform="translate(61.582 42.277)" fill="none" stroke="#9dcdf4" stroke-miterlimit="10" stroke-width="1.5"/>
            <line id="Línea_969" data-name="Línea 969" x1="38.543" y1="9.282" transform="translate(14.277)" fill="none" stroke="#9dcdf4" stroke-miterlimit="10" stroke-width="1.5"/>
            <line id="Línea_970" data-name="Línea 970" x1="38.123" y1="55.842" transform="translate(0 22.408)" fill="none" stroke="#9dcdf4" stroke-miterlimit="10" stroke-width="1.5"/>
          </g>
        </g>
        <g id="Grupo_894590" data-name="Grupo 894590" transform="translate(0 33.98)">
          <g id="Grupo_894588" data-name="Grupo 894588" transform="translate(15.018 34.282)">
            <line id="Línea_971" data-name="Línea 971" x2="70.348" y2="39.286" transform="translate(0.001)" fill="none" stroke="#9dcdf4" stroke-miterlimit="10" stroke-width="1.5"/>
            <path id="Trazado_659257" data-name="Trazado 659257" d="M234,167.064" transform="translate(-233.998 -167.063)" fill="none" stroke="#9dcdf4" stroke-miterlimit="10" stroke-width="1.5"/>
          </g>
          <g id="Grupo_894589" data-name="Grupo 894589">
            <line id="Línea_972" data-name="Línea 972" x1="3.83" y1="32.927" transform="translate(0 42.368)" fill="none" stroke="#9dcdf4" stroke-miterlimit="10" stroke-width="1.5"/>
            <line id="Línea_973" data-name="Línea 973" y1="9.672" x2="40.165" transform="translate(10.97)" fill="none" stroke="#9dcdf4" stroke-miterlimit="10" stroke-width="1.5"/>
            <line id="Línea_974" data-name="Línea 974" y1="55.842" x2="38.123" transform="translate(27.289 22.408)" fill="none" stroke="#9dcdf4" stroke-miterlimit="10" stroke-width="1.5"/>
          </g>
        </g>
        <g id="Grupo_894591" data-name="Grupo 894591" transform="translate(111.54)">
          <line id="Línea_975" data-name="Línea 975" y1="58.664" transform="translate(33.203 14.441)" fill="none" stroke="#9dcdf4" stroke-miterlimit="10" stroke-width="1.5"/>
          <line id="Línea_976" data-name="Línea 976" y1="8.634" x2="15.143" fill="none" stroke="#9dcdf4" stroke-miterlimit="10" stroke-width="1.5"/>
          <line id="Línea_977" data-name="Línea 977" x1="16.228" y1="9.253" transform="translate(50.925 0.231)" fill="none" stroke="#9dcdf4" stroke-miterlimit="10" stroke-width="1.5"/>
          <line id="Línea_978" data-name="Línea 978" x2="54.723" transform="translate(6.487 30.649)" fill="none" stroke="#9dcdf4" stroke-miterlimit="10" stroke-width="1.5"/>
        </g>
        <g id="Grupo_894592" data-name="Grupo 894592" transform="translate(112.603 73.104)">
          <line id="Línea_979" data-name="Línea 979" x2="0.747" y2="197.201" transform="translate(32.141)" fill="none" stroke="#9dcdf4" stroke-miterlimit="10" stroke-width="1.5"/>
          <line id="Línea_980" data-name="Línea 980" x1="16.514" y2="9.416" transform="translate(49.577 201.228)" fill="none" stroke="#9dcdf4" stroke-miterlimit="10" stroke-width="1.5"/>
          <line id="Línea_981" data-name="Línea 981" x2="14.72" y2="8.393" transform="translate(0 200.984)" fill="none" stroke="#9dcdf4" stroke-miterlimit="10" stroke-width="1.5"/>
          <line id="Línea_982" data-name="Línea 982" x1="54.821" transform="translate(5.49 179.213)" fill="none" stroke="#9dcdf4" stroke-miterlimit="10" stroke-width="1.5"/>
        </g>
      </g>
      <g id="Grupo_894607" data-name="Grupo 894607" transform="translate(305.158 156.957)">
        <rect id="Rectángulo_299207" data-name="Rectángulo 299207" width="35.65" height="23.766" rx="1.327" fill="#3b93c4"/>
        <path id="Trazado_659356" data-name="Trazado 659356" d="M278.425,162.713H260.6l2.973-11.882h11.882Z" transform="translate(-251.688 -127.063)" fill="#d5d5d3"/>
        <path id="Trazado_659357" data-name="Trazado 659357" d="M259.273,154.812H283.04v5.941H259.273Z" transform="translate(-253.332 -122.133)" fill="#dfdfdd"/>
        <path id="Trazado_659358" data-name="Trazado 659358" d="M276.119,156.772H261.264l1.486-5.941h11.882Z" transform="translate(-250.866 -127.063)" fill="#cececc"/>
      </g>
      <g id="Grupo_894608" data-name="Grupo 894608" transform="translate(429.424 160.139)">
        <rect id="Rectángulo_299208" data-name="Rectángulo 299208" width="35.65" height="23.766" rx="1.327" fill="#3b93c4"/>
        <path id="Trazado_659359" data-name="Trazado 659359" d="M333.936,164.134H316.113l2.971-11.882h11.882Z" transform="translate(-307.2 -128.485)" fill="#d5d5d3"/>
        <path id="Trazado_659360" data-name="Trazado 659360" d="M314.785,156.233h23.767v5.943H314.785Z" transform="translate(-308.844 -123.555)" fill="#dfdfdd"/>
        <path id="Trazado_659361" data-name="Trazado 659361" d="M331.631,158.193H316.776l1.486-5.941h11.882Z" transform="translate(-306.378 -128.485)" fill="#cececc"/>
      </g>
      <g id="Grupo_894609" data-name="Grupo 894609" transform="translate(500.905 273.136)">
        <rect id="Rectángulo_299209" data-name="Rectángulo 299209" width="35.65" height="23.766" rx="1.327" fill="#3b93c4"/>
        <path id="Trazado_659362" data-name="Trazado 659362" d="M365.869,214.614H348.044l2.973-11.884H362.9Z" transform="translate(-339.132 -178.964)" fill="#d5d5d3"/>
        <path id="Trazado_659363" data-name="Trazado 659363" d="M346.717,206.711h23.767v5.943H346.717Z" transform="translate(-340.776 -174.033)" fill="#dfdfdd"/>
        <path id="Trazado_659364" data-name="Trazado 659364" d="M363.563,208.671H348.708l1.486-5.941h11.882Z" transform="translate(-338.31 -178.964)" fill="#cececc"/>
      </g>
      <g id="Grupo_894610" data-name="Grupo 894610" transform="translate(232.647 273.857)">
        <rect id="Rectángulo_299210" data-name="Rectángulo 299210" width="35.65" height="23.766" rx="1.327" fill="#3b93c4"/>
        <path id="Trazado_659365" data-name="Trazado 659365" d="M246.033,214.936H228.208l2.971-11.884h11.884Z" transform="translate(-219.295 -179.286)" fill="#d5d5d3"/>
        <path id="Trazado_659366" data-name="Trazado 659366" d="M226.881,207.033h23.767v5.943H226.881Z" transform="translate(-220.939 -174.355)" fill="#dfdfdd"/>
        <path id="Trazado_659367" data-name="Trazado 659367" d="M243.725,208.993H228.872l1.484-5.941h11.884Z" transform="translate(-218.473 -179.286)" fill="#cececc"/>
      </g>
      <g id="Grupo_894611" data-name="Grupo 894611" transform="translate(309.09 385.138)">
        <rect id="Rectángulo_299211" data-name="Rectángulo 299211" width="35.65" height="23.766" rx="1.327" fill="#3b93c4"/>
        <path id="Trazado_659368" data-name="Trazado 659368" d="M280.182,264.646H262.357l2.971-11.882h11.884Z" transform="translate(-253.444 -228.997)" fill="#d5d5d3"/>
        <path id="Trazado_659369" data-name="Trazado 659369" d="M261.03,256.745H284.8v5.941H261.03Z" transform="translate(-255.088 -224.067)" fill="#dfdfdd"/>
        <path id="Trazado_659370" data-name="Trazado 659370" d="M277.875,258.705H263.02l1.486-5.941h11.884Z" transform="translate(-252.623 -228.997)" fill="#cececc"/>
      </g>
      <g id="Grupo_894612" data-name="Grupo 894612" transform="translate(521.316 362.62)">
        <rect id="Rectángulo_299170-2" data-name="Rectángulo 299170" width="14.652" height="22.143" transform="translate(0)" fill="#edebdf"/>
        <rect id="Rectángulo_299171-2" data-name="Rectángulo 299171" width="13.813" height="21.352" transform="translate(0.419 0.37)" fill="#6d6d6c"/>
        <rect id="Rectángulo_299172-2" data-name="Rectángulo 299172" width="12.927" height="17.807" transform="translate(0.862 1.62)" fill="#3f3f3f"/>
        <path id="Trazado_659206-2" data-name="Trazado 659206" d="M359.9,232.892h-4.271a.236.236,0,0,1-.237-.237h0a.239.239,0,0,1,.237-.237H359.9a.242.242,0,0,1,.237.237h0A.239.239,0,0,1,359.9,232.892Z" transform="translate(-350.44 -231.679)" fill="#3f3f3f"/>
        <path id="Trazado_659207-2" data-name="Trazado 659207" d="M356.136,241.7a.712.712,0,1,1,.712.712h0A.711.711,0,0,1,356.136,241.7Z" transform="translate(-349.521 -221.061)" fill="#3f3f3f"/>
      </g>
      <g id="Grupo_894555-2" data-name="Grupo 894555" transform="translate(373.911 138.058)">
        <rect id="Rectángulo_299168-2" data-name="Rectángulo 299168" width="17.755" height="11.429" fill="#6d6d6c"/>
        <rect id="Rectángulo_299169-2" data-name="Rectángulo 299169" width="16.147" height="10.004" transform="translate(0.872 0.713)" fill="#3f3f3f"/>
        <path id="Trazado_659204-2" data-name="Trazado 659204" d="M297.2,138.006c0,.325-1.688.589-3.77.589s-3.767-.264-3.767-.589,1.686-.587,3.767-.587S297.2,137.682,297.2,138.006Z" transform="translate(-284.451 -124.774)" fill="#6d6d6c"/>
        <path id="Trazado_659205-2" data-name="Trazado 659205" d="M291.658,138.925h0a.569.569,0,0,1-.569-.566v-1.115a.569.569,0,0,1,.569-.566h0a.566.566,0,0,1,.566.566v1.115A.566.566,0,0,1,291.658,138.925Z" transform="translate(-282.68 -125.693)" fill="#6d6d6c"/>
      </g>
      <g id="Grupo_894558-2" data-name="Grupo 894558" transform="translate(373.587 425.881)">
        <rect id="Rectángulo_299180-2" data-name="Rectángulo 299180" width="19.739" height="10.378" transform="translate(0 5.013)" fill="#6d6d6c"/>
        <rect id="Rectángulo_299181-2" data-name="Rectángulo 299181" width="12.956" height="1.974" transform="translate(3.391 3.039)" fill="#3f3f3f"/>
        <rect id="Rectángulo_299182-2" data-name="Rectángulo 299182" width="9.384" height="5.013" transform="translate(5.178)" fill="#edebdf"/>
        <path id="Rectángulo_299183-2" data-name="Rectángulo 299183" d="M290.364,264.743h10.479a2.1,2.1,0,0,1,2.1,2.1h0v3.45h-14.68v-3.45a2.1,2.1,0,0,1,2.1-2.1Z" transform="translate(-285.857 -254.903)" fill="#3f3f3f"/>
        <rect id="Rectángulo_299184-2" data-name="Rectángulo 299184" width="9.384" height="5.013" transform="translate(5.178 13.632)" fill="#edebdf"/>
        <path id="Trazado_659219-2" data-name="Trazado 659219" d="M299.811,267.6H289.8a.8.8,0,0,1-.792-.792h0a.793.793,0,0,1,.792-.79h10.013a.79.79,0,0,1,.79.79h0A.792.792,0,0,1,299.811,267.6Z" transform="translate(-284.935 -253.322)" fill="#6d6d6c"/>
        <path id="Trazado_659220-2" data-name="Trazado 659220" d="M288.738,263.507a.555.555,0,1,1-.555-.555.555.555,0,0,1,.555.555Z" transform="translate(-286.642 -257.122)" fill="#3f3f3f"/>
        <path id="Trazado_659221-2" data-name="Trazado 659221" d="M296.208,263.507a.556.556,0,1,1-.555-.555.555.555,0,0,1,.555.555Z" transform="translate(-277.394 -257.122)" fill="#edebdf"/>
      </g>
      <g id="Grupo_894613" data-name="Grupo 894613" transform="translate(429.424 389.594)">
        <rect id="Rectángulo_299212" data-name="Rectángulo 299212" width="35.65" height="23.766" rx="1.327" fill="#3b93c4"/>
        <path id="Trazado_659371" data-name="Trazado 659371" d="M333.936,266.638H316.113l2.971-11.884h11.882Z" transform="translate(-307.2 -230.989)" fill="#d5d5d3"/>
        <path id="Trazado_659372" data-name="Trazado 659372" d="M314.785,258.736h23.767v5.941H314.785Z" transform="translate(-308.844 -226.057)" fill="#dfdfdd"/>
        <path id="Trazado_659373" data-name="Trazado 659373" d="M331.631,260.7H316.776l1.486-5.943h11.882Z" transform="translate(-306.378 -230.989)" fill="#cececc"/>
      </g>
    </g>
  </g>
</svg>
