<svg xmlns="http://www.w3.org/2000/svg" width="355.898" height="193.606" viewBox="0 0 355.898 193.606">
  <g id="Grupo_895798" data-name="Grupo 895798" transform="translate(-264 -4571.833)">
    <g id="Icons" transform="translate(255.636 4566.851)">
      <path id="Trazado_659177" data-name="Trazado 659177" d="M98.436,121.457V102.192H11.744a3.211,3.211,0,1,1,0-6.421H47.063V76.506h6.421V95.771h96.324V76.506h6.421V95.771h35.32a3.211,3.211,0,0,1,0,6.421H104.857v19.265Z" transform="translate(0.007 2.804)" fill="#bfdbf0"/>
      <rect id="Rectángulo_299163" data-name="Rectángulo 299163" width="32.108" height="12.843" rx="3.09" transform="translate(136.972 95.364)" fill="#9ebbce"/>
      <path id="Trazado_659178" data-name="Trazado 659178" d="M312.91,102.192H216.586v19.265h-6.421V102.192H174.846a3.211,3.211,0,1,1,0-6.421h86.692V76.506h6.421V95.771h86.692a3.211,3.211,0,0,1,0,6.421h-35.32" transform="translate(6.401 2.804)" fill="#bfdbf0"/>
      <rect id="Rectángulo_299164" data-name="Rectángulo 299164" width="32.108" height="12.843" rx="3.09" transform="translate(203.723 95.364)" fill="#9ebbce"/>
      <rect id="Rectángulo_299165" data-name="Rectángulo 299165" width="32.108" height="12.843" rx="3.09" transform="translate(255.096 95.364)" fill="#9ebbce"/>
      <path id="Trazado_659179" data-name="Trazado 659179" d="M189.724,120.222H241.1a6.422,6.422,0,0,1,6.422,6.422V171.6H183.3V126.644A6.422,6.422,0,0,1,189.724,120.222Z" transform="translate(6.859 4.518)" fill="#348ed8"/>
      <path id="Trazado_659180" data-name="Trazado 659180" d="M257.515,179.985v8.573a3.211,3.211,0,0,1-3.211,3.21H177.244a3.21,3.21,0,0,1-3.21-3.21v-8.573a3.07,3.07,0,0,1,.192-1.059h83.095a3.1,3.1,0,0,1,.193,1.059Z" transform="translate(6.495 6.82)" fill="#9ebbce"/>
      <path id="Trazado_659181" data-name="Trazado 659181" d="M174.219,179.411a2.773,2.773,0,0,1,.45-.868l8.99-11.976h64.216l8.99,11.976a2.793,2.793,0,0,1,.449.868Z" transform="translate(6.503 6.335)" fill="#b0ccdd"/>
      <g id="Grupo_894550" data-name="Grupo 894550" transform="translate(199.794 134.412)">
        <path id="Trazado_659182" data-name="Trazado 659182" d="M195.782,139.122a3.21,3.21,0,0,1-2.27-5.481l3.211-3.211a3.211,3.211,0,0,1,4.539,4.54l-3.21,3.211A3.213,3.213,0,0,1,195.782,139.122Z" transform="translate(-192.572 -129.529)" fill="rgba(254,202,46,0.56)"/>
        <path id="Trazado_659183" data-name="Trazado 659183" d="M195.782,155.176a3.21,3.21,0,0,1-2.27-5.481l19.265-19.265a3.211,3.211,0,0,1,4.54,4.54l-19.265,19.265A3.209,3.209,0,0,1,195.782,155.176Z" transform="translate(-192.572 -129.529)" fill="rgba(254,202,46,0.56)"/>
      </g>
      <path id="Trazado_659184" data-name="Trazado 659184" d="M75.161,119.761h51.373a6.421,6.421,0,0,1,6.421,6.421v44.951H68.74V126.182A6.422,6.422,0,0,1,75.161,119.761Z" transform="translate(2.367 4.5)" fill="#348ed8"/>
      <path id="Trazado_659185" data-name="Trazado 659185" d="M142.952,179.524V188.1a3.211,3.211,0,0,1-3.211,3.211H62.682a3.211,3.211,0,0,1-3.211-3.211v-8.572a3.1,3.1,0,0,1,.192-1.06h83.1a3.079,3.079,0,0,1,.192,1.06Z" transform="translate(2.004 6.802)" fill="#9ebbce"/>
      <path id="Trazado_659186" data-name="Trazado 659186" d="M59.656,178.949a2.8,2.8,0,0,1,.45-.867l8.99-11.976h64.216l8.99,11.976a2.8,2.8,0,0,1,.45.867Z" transform="translate(2.011 6.317)" fill="#b0ccdd"/>
      <g id="Grupo_894551" data-name="Grupo 894551" transform="translate(80.741 133.933)">
        <path id="Trazado_659187" data-name="Trazado 659187" d="M81.22,138.661a3.211,3.211,0,0,1-2.271-5.481l3.211-3.211a3.211,3.211,0,0,1,4.54,4.54L83.49,137.72A3.211,3.211,0,0,1,81.22,138.661Z" transform="translate(-78.01 -129.068)" fill="rgba(254,202,46,0.56)"/>
        <path id="Trazado_659188" data-name="Trazado 659188" d="M81.22,154.715a3.211,3.211,0,0,1-2.271-5.481l19.265-19.265a3.211,3.211,0,0,1,4.54,4.54L83.49,153.774A3.211,3.211,0,0,1,81.22,154.715Z" transform="translate(-78.01 -129.068)" fill="rgba(254,202,46,0.56)"/>
      </g>
      <rect id="Rectángulo_299166" data-name="Rectángulo 299166" width="32.108" height="12.843" rx="3.09" transform="translate(85.599 95.364)" fill="#9ebbce"/>
      <rect id="Rectángulo_299167" data-name="Rectángulo 299167" width="32.108" height="12.843" rx="3.09" transform="translate(34.05 95.364)" fill="#9ebbce"/>
      <path id="Trazado_659189" data-name="Trazado 659189" d="M24.054,5.444H75.427a6.421,6.421,0,0,1,6.421,6.421V56.816H17.633V11.865A6.421,6.421,0,0,1,24.054,5.444Z" transform="translate(0.363 0.018)" fill="#348ed8"/>
      <path id="Trazado_659190" data-name="Trazado 659190" d="M91.845,65.207v8.572a3.211,3.211,0,0,1-3.211,3.211H11.575a3.211,3.211,0,0,1-3.211-3.211V65.207a3.075,3.075,0,0,1,.192-1.06h83.1a3.1,3.1,0,0,1,.192,1.06Z" transform="translate(0 2.32)" fill="#9ebbce"/>
      <path id="Trazado_659191" data-name="Trazado 659191" d="M8.549,64.632A2.79,2.79,0,0,1,9,63.765l8.99-11.976H82.2L91.2,63.765a2.79,2.79,0,0,1,.45.867Z" transform="translate(0.007 1.835)" fill="#b0ccdd"/>
      <g id="Grupo_894552" data-name="Grupo 894552" transform="translate(27.629 15.133)">
        <path id="Trazado_659192" data-name="Trazado 659192" d="M30.112,24.344a3.21,3.21,0,0,1-2.27-5.481l3.211-3.211a3.211,3.211,0,0,1,4.54,4.54L32.383,23.4A3.213,3.213,0,0,1,30.112,24.344Z" transform="translate(-26.902 -14.75)" fill="rgba(254,202,46,0.56)"/>
        <path id="Trazado_659193" data-name="Trazado 659193" d="M30.112,40.4a3.21,3.21,0,0,1-2.27-5.481L47.107,15.652a3.211,3.211,0,0,1,4.54,4.54L32.383,39.457A3.212,3.212,0,0,1,30.112,40.4Z" transform="translate(-26.902 -14.75)" fill="rgba(254,202,46,0.56)"/>
      </g>
      <path id="Trazado_659194" data-name="Trazado 659194" d="M124.614,5.444h51.373a6.421,6.421,0,0,1,6.421,6.421V56.816H118.193V11.865A6.421,6.421,0,0,1,124.614,5.444Z" transform="translate(4.306 0.018)" fill="#348ed8"/>
      <path id="Trazado_659195" data-name="Trazado 659195" d="M192.4,65.207v8.572a3.211,3.211,0,0,1-3.211,3.211H112.135a3.211,3.211,0,0,1-3.211-3.211V65.207a3.1,3.1,0,0,1,.192-1.06h83.1a3.075,3.075,0,0,1,.192,1.06Z" transform="translate(3.943 2.32)" fill="#9ebbce"/>
      <path id="Trazado_659196" data-name="Trazado 659196" d="M109.109,64.632a2.79,2.79,0,0,1,.45-.867l8.99-11.976h64.216l8.99,11.976a2.79,2.79,0,0,1,.45.867Z" transform="translate(3.95 1.835)" fill="#b0ccdd"/>
      <g id="Grupo_894553" data-name="Grupo 894553" transform="translate(132.133 15.133)">
        <path id="Trazado_659197" data-name="Trazado 659197" d="M130.673,24.344a3.211,3.211,0,0,1-2.271-5.481l3.211-3.211a3.211,3.211,0,0,1,4.54,4.54l-3.211,3.21A3.212,3.212,0,0,1,130.673,24.344Z" transform="translate(-127.463 -14.75)" fill="rgba(254,202,46,0.56)"/>
        <path id="Trazado_659198" data-name="Trazado 659198" d="M130.673,40.4a3.211,3.211,0,0,1-2.271-5.481l19.265-19.265a3.211,3.211,0,0,1,4.54,4.54L132.943,39.457A3.211,3.211,0,0,1,130.673,40.4Z" transform="translate(-127.463 -14.75)" fill="rgba(254,202,46,0.56)"/>
      </g>
      <path id="Trazado_659199" data-name="Trazado 659199" d="M235.657,4.982H287.03a6.422,6.422,0,0,1,6.421,6.422V56.355H229.235V11.4A6.422,6.422,0,0,1,235.657,4.982Z" transform="translate(8.66)" fill="#348ed8"/>
      <path id="Trazado_659200" data-name="Trazado 659200" d="M303.447,64.745v8.573a3.21,3.21,0,0,1-3.21,3.21H223.177a3.211,3.211,0,0,1-3.211-3.21V64.745a3.1,3.1,0,0,1,.193-1.059h83.1a3.068,3.068,0,0,1,.192,1.059Z" transform="translate(8.296 2.302)" fill="#9ebbce"/>
      <path id="Trazado_659201" data-name="Trazado 659201" d="M220.152,64.171a2.777,2.777,0,0,1,.449-.867l8.99-11.977h64.216L302.8,63.3a2.755,2.755,0,0,1,.45.867Z" transform="translate(8.304 1.817)" fill="#b0ccdd"/>
      <g id="Grupo_894554" data-name="Grupo 894554" transform="translate(247.528 14.654)">
        <path id="Trazado_659202" data-name="Trazado 659202" d="M241.715,23.882a3.21,3.21,0,0,1-2.27-5.481l3.21-3.21a3.211,3.211,0,0,1,4.54,4.539l-3.211,3.211A3.207,3.207,0,0,1,241.715,23.882Z" transform="translate(-238.505 -14.289)" fill="rgba(254,202,46,0.56)"/>
        <path id="Trazado_659203" data-name="Trazado 659203" d="M241.715,39.937a3.21,3.21,0,0,1-2.27-5.481l19.264-19.265a3.211,3.211,0,0,1,4.54,4.539L243.985,39A3.212,3.212,0,0,1,241.715,39.937Z" transform="translate(-238.505 -14.289)" fill="rgba(254,202,46,0.56)"/>
      </g>
    </g>
  </g>
</svg>
