<svg xmlns="http://www.w3.org/2000/svg" xmlns:xlink="http://www.w3.org/1999/xlink" width="65.159" height="65.159" viewBox="0 0 65.159 65.159">
  <defs>
    <linearGradient id="linear-gradient" x1="0.069" y1="0.076" x2="0.754" y2="0.708" gradientUnits="objectBoundingBox">
      <stop offset="0" stop-color="#676767"/>
      <stop offset="0.963" stop-color="#fff"/>
    </linearGradient>
  </defs>
  <g id="Grupo_895803" data-name="Grupo 895803" transform="translate(-212 -4083.8)">
    <g id="Grupo_892316" data-name="Grupo 892316" transform="translate(180.97 3852.43)">
      <path id="Trazado_645126" data-name="Trazado 645126" d="M96.189,263.949c0,.191,0,.383-.007.567a32.04,32.04,0,0,1-.788,6.607A32.648,32.648,0,0,1,73.627,294.96c-.162.052-.309.1-.464.133a.056.056,0,0,1-.029.015,31.361,31.361,0,0,1-4.707,1.061c-.722.111-1.444.192-2.18.243-.869.081-1.746.118-2.637.118a32.579,32.579,0,1,1,32.58-32.579Z" transform="translate(0 0)" fill="#fa7a49"/>
      <g id="Grupo_892315" data-name="Grupo 892315" transform="translate(41.619 244.264)">
        <path id="Trazado_645127" data-name="Trazado 645127" d="M89.737,259.309h-.11v-.118a1.06,1.06,0,0,0-.471-.891,1.178,1.178,0,0,0-.383-.162,1.124,1.124,0,0,0-.221-.022H72.935l-7.219-7.174.007-.015a.423.423,0,0,0,.044-.324.474.474,0,0,0-.11-.184.4.4,0,0,0-.088-.066l-1.311-.759a.259.259,0,0,0-.1-.044.417.417,0,0,0-.479.192l-.53.928c-.015,0-1.208-1.149-1.208-1.149a.419.419,0,0,0-.516-.3l-1.466.4a.431.431,0,0,0-.3.516l.28,1.031v.007a4.05,4.05,0,0,0-.744.567l-.921-.538a.446.446,0,0,0-.42,0,.464.464,0,0,0-.162.155l-.295.516s-.958-.884-1.039-.994l-.663-.854a.3.3,0,0,0-.331-.1.249.249,0,0,0-.088.044l-.28.221-.8-.832-.007-.007a.279.279,0,0,0-.074-.236.261.261,0,0,0-.184-.1l-1.075-.133a.257.257,0,0,0-.228.074.23.23,0,0,0-.066.081.247.247,0,0,0-.037.1l-.007.007-.1.766a2.193,2.193,0,0,0-.317.066,2.306,2.306,0,0,0-.317.111v-.007l-.471-.611a.3.3,0,0,0-.427-.052l-.847.663h-.007a.322.322,0,0,0-.044.052.27.27,0,0,0-.069.178.286.286,0,0,0,.062.19v.007l.471.611c-.059.088-.118.184-.177.273s-.1.2-.147.295l-.766-.1a.293.293,0,0,0-.331.258l-.007.007-.133,1.068a.3.3,0,0,0,.265.339l.766.1c.022.1.037.214.066.317a2.272,2.272,0,0,0,.1.317l-.265.206-.346.273q-.022.011-.022.022a.154.154,0,0,0-.059.081.293.293,0,0,0,.029.317l.663.854a.224.224,0,0,0,.059.059c.3.273,1.591,1.237,1.6,1.3l-1.856.5a.562.562,0,0,0-.236.125,1.149,1.149,0,0,0-.118.147.547.547,0,0,0-.044.405l.368,1.355a4.752,4.752,0,0,0-.508.346,6.018,6.018,0,0,0-.464.4l-.007.007-1.215-.7a.542.542,0,0,0-.4-.059.467.467,0,0,0-.265.14.743.743,0,0,0-.1.118l-.994,1.731a.563.563,0,0,0,.206.759s.987,1.768,1.053,1.915v.007l-.987.265-.361.1a.553.553,0,0,0-.4.678v.007l.516,1.923a.451.451,0,0,0,.14.236.535.535,0,0,0,.545.155l.273-.074,1.3,1.613-.169.287a.564.564,0,0,0-.052.42.647.647,0,0,0,.14.25.483.483,0,0,0,.118.1l.943.538c.022,0,1.532,1.893,1.532,1.893v8.574a1.076,1.076,0,0,0,.656.987s0-.007.007,0a.964.964,0,0,0,.412.088H51.9v.111c0,.295,9.031,9.48,18.135,18.584.737-.052,1.458-.133,2.18-.243a31.369,31.369,0,0,0,4.707-1.061.056.056,0,0,0,.029-.015c.155-.037.3-.081.464-.133A32.648,32.648,0,0,0,99.18,275.735a32.04,32.04,0,0,0,.788-6.607C94.311,263.537,89.943,259.309,89.737,259.309Z" transform="translate(-45.406 -248.875)" opacity="0.4" fill="url(#linear-gradient)" style="mix-blend-mode: multiply;isolation: isolate"/>
        <g id="Grupo_892314" data-name="Grupo 892314">
          <g id="Grupo_892312" data-name="Grupo 892312" transform="translate(5.304 9.24)">
            <g id="Grupo_892310" data-name="Grupo 892310">
              <path id="Trazado_645128" data-name="Trazado 645128" d="M90.451,261.419H53.68a1.074,1.074,0,0,0-1.074,1.074v22.059a1.074,1.074,0,0,0,1.074,1.073H68.4v1.753H61a.875.875,0,0,0-.877.877v.657a.876.876,0,0,0,.877.876H83.127a.876.876,0,0,0,.877-.876v-.657a.875.875,0,0,0-.877-.877H75.734v-1.753H90.451a1.074,1.074,0,0,0,1.074-1.073V262.493A1.074,1.074,0,0,0,90.451,261.419Z" transform="translate(-52.606 -261.419)" fill="#005b83"/>
              <g id="Grupo_892304" data-name="Grupo 892304" transform="translate(2.405 1.855)">
                <rect id="Rectángulo_298995" data-name="Rectángulo 298995" width="34.22" height="20.196" fill="#fff"/>
              </g>
              <g id="Grupo_892305" data-name="Grupo 892305" transform="translate(12.241 8.479)">
                <rect id="Rectángulo_298996" data-name="Rectángulo 298996" width="2.599" height="11.663" fill="#005b83"/>
              </g>
              <g id="Grupo_892306" data-name="Grupo 892306" transform="translate(16.239 10.175)">
                <rect id="Rectángulo_298997" data-name="Rectángulo 298997" width="2.599" height="9.968" fill="#00cfdd"/>
              </g>
              <g id="Grupo_892307" data-name="Grupo 892307" transform="translate(20.238 7.106)">
                <rect id="Rectángulo_298998" data-name="Rectángulo 298998" width="2.599" height="13.036" fill="#f3c144"/>
              </g>
              <g id="Grupo_892308" data-name="Grupo 892308" transform="translate(24.236 5.901)">
                <rect id="Rectángulo_298999" data-name="Rectángulo 298999" width="2.599" height="14.242" fill="#fa7a49"/>
              </g>
              <g id="Grupo_892309" data-name="Grupo 892309" transform="translate(28.234 4.891)">
                <rect id="Rectángulo_299000" data-name="Rectángulo 299000" width="2.599" height="15.251" fill="#00cfdd"/>
              </g>
            </g>
            <g id="Grupo_892311" data-name="Grupo 892311" transform="translate(8.242 10.175)">
              <rect id="Rectángulo_299001" data-name="Rectángulo 299001" width="2.599" height="9.968" fill="#00cfdd"/>
            </g>
          </g>
          <g id="Grupo_892313" data-name="Grupo 892313">
            <path id="Trazado_645129" data-name="Trazado 645129" d="M68.949,254.079l-.39-1.466a.427.427,0,0,0-.523-.3l-1.031.28a4.051,4.051,0,0,0-.567-.744l.523-.906.007-.015a.423.423,0,0,0,.044-.324.337.337,0,0,0-.11-.184.776.776,0,0,0-.088-.074l-1.311-.759a.428.428,0,0,0-.1-.037.417.417,0,0,0-.479.192l-.53.928a4.326,4.326,0,0,0-.928-.118l-.28-1.031a.419.419,0,0,0-.516-.3l-1.466.4a.416.416,0,0,0-.295.516l.273,1.031a4.316,4.316,0,0,0-.744.567l-.921-.53a.408.408,0,0,0-.42,0,.464.464,0,0,0-.162.155l-.295.516-.457.8a.326.326,0,0,0-.044.118.3.3,0,0,0-.258-.287l-.766-.1a3.246,3.246,0,0,0-.177-.633l.611-.471a.3.3,0,0,0,.052-.427l-.656-.854h-.007a.282.282,0,0,0-.331-.1.249.249,0,0,0-.088.044l-.28.221-.331.25a3.122,3.122,0,0,0-.575-.324l.1-.759v-.007a.291.291,0,0,0-.081-.236.261.261,0,0,0-.184-.1l-1.075-.133a.257.257,0,0,0-.228.074.23.23,0,0,0-.066.081.247.247,0,0,0-.037.1l-.1.773h-.007a2.193,2.193,0,0,0-.317.066c-.1.03-.214.066-.317.1l-.471-.611a.3.3,0,0,0-.427-.052l-.847.663a.173.173,0,0,0-.052.052.289.289,0,0,0-.007.368v.007l.479.6a.007.007,0,0,1-.007.007c-.059.088-.118.184-.177.273s-.1.2-.14.295h-.007l-.766-.1a.293.293,0,0,0-.331.258l-.14,1.075a.3.3,0,0,0,.265.339l.766.1c.022.1.037.214.066.317a2.3,2.3,0,0,0,.11.317H51.33l-.265.206-.346.265v.007q-.022.011-.022.022a.154.154,0,0,0-.059.081.293.293,0,0,0,.029.317l.663.854a.224.224,0,0,0,.059.059.3.3,0,0,0,.368-.007l.611-.479a2.927,2.927,0,0,0,.567.331l-.1.766a.3.3,0,0,0,.265.339l1.068.133a.3.3,0,0,0,.339-.258l.1-.773a2.78,2.78,0,0,0,.633-.169l.479.611a.3.3,0,0,0,.42.052l.854-.663a.3.3,0,0,0,.052-.42l-.471-.619a2.893,2.893,0,0,0,.324-.567l.766.1a.3.3,0,0,0,.339-.258l.125-.987a.405.405,0,0,0,.206.317l.921.53a4.327,4.327,0,0,0-.118.928l-1.031.28a.427.427,0,0,0-.3.523l.4,1.458a.423.423,0,0,0,.516.3l1.031-.28a4.086,4.086,0,0,0,.575.744l-.221.383-.317.545a.422.422,0,0,0,.155.575l1.282.737.037.022a.4.4,0,0,0,.442-.022.38.38,0,0,0,.133-.133l.538-.928a3.86,3.86,0,0,0,.928.118l.25.943.022.1a.429.429,0,0,0,.523.295l1.458-.39a.43.43,0,0,0,.3-.523l-.28-1.031a3.036,3.036,0,0,0,.435-.3,2.667,2.667,0,0,0,.309-.265l.464.265.464.265a.416.416,0,0,0,.575-.155l.066-.111.692-1.2a.429.429,0,0,0-.155-.582l-.928-.53a4.332,4.332,0,0,0,.125-.928l1.031-.28A.424.424,0,0,0,68.949,254.079Zm-13.7.243a1.822,1.822,0,1,1,.324-2.556A1.818,1.818,0,0,1,55.248,254.322Zm7.469-2a2.551,2.551,0,1,1-1.8,3.123A2.548,2.548,0,0,1,62.717,252.326Z" transform="translate(-46.649 -248.875)" fill="#f3c144"/>
            <path id="Trazado_645130" data-name="Trazado 645130" d="M60.074,266.389l-.523-1.923a.548.548,0,0,0-.678-.4l-1.355.368a5.484,5.484,0,0,0-.751-.98l.324-.56.376-.656a.55.55,0,0,0-.206-.759l-.766-.442-.958-.552a.55.55,0,0,0-.759.206l-.2.346-.5.869a5.2,5.2,0,0,0-1.223-.162l-.192-.707-.169-.648a.561.561,0,0,0-.685-.39l-.066.022-1.856.493a.576.576,0,0,0-.236.133,1.145,1.145,0,0,0-.118.147.589.589,0,0,0-.037.405l.361,1.355a4.744,4.744,0,0,0-.508.346,5.991,5.991,0,0,0-.464.4l-1.215-.7a.528.528,0,0,0-.405-.052.468.468,0,0,0-.265.14.745.745,0,0,0-.1.118l-.994,1.731a.563.563,0,0,0,.206.759l1.215.7a5.548,5.548,0,0,0-.155,1.215h-.007l-.987.273-.361.1a.553.553,0,0,0-.4.678v.007l.523,1.923a.5.5,0,0,0,.133.236.535.535,0,0,0,.545.155l.273-.074,1.083-.295a5.162,5.162,0,0,0,.751.98l-.538.928-.162.287a.535.535,0,0,0-.059.42.647.647,0,0,0,.14.25c.037.029.074.059.118.088l.943.545.788.449a.545.545,0,0,0,.751-.2.007.007,0,0,0,.007-.007l.7-1.208a5.617,5.617,0,0,0,1.223.155L53,274.256a.508.508,0,0,0,.11.206.56.56,0,0,0,.575.184l1.923-.516a.553.553,0,0,0,.39-.678l-.361-1.363a5.719,5.719,0,0,0,.98-.744l1.208.7a.563.563,0,0,0,.766-.206l.361-.626.633-1.1a.559.559,0,0,0-.206-.759l-1.215-.707a5.547,5.547,0,0,0,.155-1.215l1.355-.368A.552.552,0,0,0,60.074,266.389Zm-6.453,4.176a3.089,3.089,0,0,1-.508.1,3.341,3.341,0,0,1-2.4-.678,3.3,3.3,0,0,1-1.2-1.79,3.354,3.354,0,0,1,1.2-3.528,3.206,3.206,0,0,1,1.164-.582,3.357,3.357,0,0,1,1.746,6.482Z" transform="translate(-45.406 -251.801)" fill="#f3c144"/>
          </g>
        </g>
      </g>
    </g>
  </g>
</svg>
