<svg xmlns="http://www.w3.org/2000/svg" xmlns:xlink="http://www.w3.org/1999/xlink" width="1030" height="367" viewBox="0 0 1030 367">
  <defs>
    <clipPath id="clip-path">
      <rect id="Rectángulo_299252" data-name="Rectángulo 299252" width="1030" height="367" transform="translate(284 939)" fill="#fff" stroke="#707070" stroke-width="1"/>
    </clipPath>
    <linearGradient id="linear-gradient" x1="-2.852" y1="0.261" x2="-0.936" y2="0.261" gradientUnits="objectBoundingBox">
      <stop offset="0" stop-color="#ff00bf"/>
      <stop offset="1" stop-color="red"/>
    </linearGradient>
    <linearGradient id="linear-gradient-2" y1="0.5" x2="1" y2="0.5" gradientUnits="objectBoundingBox">
      <stop offset="0" stop-color="#ff0061"/>
      <stop offset="1" stop-color="#ff0061"/>
    </linearGradient>
  </defs>
  <g id="Enmascarar_grupo_130539" data-name="Enmascarar grupo 130539" transform="translate(-284 -939)" clip-path="url(#clip-path)">
    <g id="Grupo_880840" data-name="Grupo 880840" transform="translate(470.969 1112.484)">
      <g id="Grupo_880860" data-name="Grupo 880860" transform="translate(0 0)">
        <path id="Trazado_117745" data-name="Trazado 117745" d="M406.777,423.958a36.813,36.813,0,0,1-36.771,36.771,1.613,1.613,0,1,1,0-3.225,33.546,33.546,0,0,0,0-67.093,1.612,1.612,0,1,1,0-3.225A36.813,36.813,0,0,1,406.777,423.958Z" transform="translate(-368.393 -387.187)" fill="url(#linear-gradient)"/>
      </g>
      <path id="Trazado_117779" data-name="Trazado 117779" d="M492.759,448.279l-20.925,11.475-20.925,11.475s6.5-11.353,6.34-23.441c-.134-10.209-5.289-24.278-5.289-24.278l20.4,12.384Z" transform="translate(-410.198 -410.598)" fill="url(#linear-gradient-2)"/>
    </g>
    <g id="Grupo_880842" data-name="Grupo 880842" transform="translate(724.466 1005.063)">
      <g id="Grupo_880860-2" data-name="Grupo 880860" transform="translate(0 0)">
        <path id="Trazado_117745-2" data-name="Trazado 117745" d="M406.777,423.958a36.813,36.813,0,0,1-36.771,36.771,1.613,1.613,0,1,1,0-3.225,33.643,33.643,0,0,0,22.486-8.673,33.532,33.532,0,0,0-22.486-58.419,1.612,1.612,0,1,1,0-3.225A36.813,36.813,0,0,1,406.777,423.958Z" transform="translate(-368.393 -387.187)" fill="#feca2e"/>
      </g>
      <path id="Trazado_117779-2" data-name="Trazado 117779" d="M492.759,448.279l-20.925,11.475-20.925,11.475s6.5-11.353,6.34-23.441c-.134-10.209-5.289-24.278-5.289-24.278l20.4,12.384Z" transform="translate(-412.525 -410.597)" fill="#feca2e"/>
    </g>
    <g id="Grupo_890138" data-name="Grupo 890138" transform="translate(853.948 938.882)">
      <g id="Grupo_880860-3" data-name="Grupo 880860" transform="translate(0 0)">
        <path id="Trazado_117745-3" data-name="Trazado 117745" d="M368.393,423.958a36.813,36.813,0,0,0,36.771,36.771,1.613,1.613,0,1,0,0-3.225,33.546,33.546,0,0,1,0-67.092,1.612,1.612,0,1,0,0-3.225A36.812,36.812,0,0,0,368.393,423.958Z" transform="translate(-368.393 -387.187)" fill="#feca2e"/>
      </g>
    </g>
    <g id="Grupo_890149" data-name="Grupo 890149" transform="translate(853.948 1143.862)">
      <g id="Grupo_880860-4" data-name="Grupo 880860" transform="translate(0 0)">
        <path id="Trazado_117745-4" data-name="Trazado 117745" d="M368.393,423.958a36.813,36.813,0,0,0,36.771,36.771,1.613,1.613,0,1,0,0-3.225,33.546,33.546,0,0,1,0-67.092,1.612,1.612,0,1,0,0-3.225A36.812,36.812,0,0,0,368.393,423.958Z" transform="translate(-368.393 -387.187)" fill="#feca2e"/>
      </g>
    </g>
    <g id="Grupo_890146" data-name="Grupo 890146" transform="translate(864.398 1022.229)">
      <g id="Grupo_880860-5" data-name="Grupo 880860" transform="translate(0 0)">
        <path id="Trazado_117745-5" data-name="Trazado 117745" d="M368.393,423.958a36.813,36.813,0,0,0,36.771,36.771,1.613,1.613,0,1,0,0-3.225,33.546,33.546,0,0,1,0-67.092,1.612,1.612,0,1,0,0-3.225A36.812,36.812,0,0,0,368.393,423.958Z" transform="translate(-368.393 -387.187)" fill="#feca2e"/>
      </g>
    </g>
    <g id="Grupo_890150" data-name="Grupo 890150" transform="translate(864.398 1227.21)">
      <g id="Grupo_880860-6" data-name="Grupo 880860" transform="translate(0 0)">
        <path id="Trazado_117745-6" data-name="Trazado 117745" d="M368.393,423.958a36.813,36.813,0,0,0,36.771,36.771,1.613,1.613,0,1,0,0-3.225,33.546,33.546,0,0,1,0-67.092,1.612,1.612,0,1,0,0-3.225A36.812,36.812,0,0,0,368.393,423.958Z" transform="translate(-368.393 -387.187)" fill="#feca2e"/>
      </g>
    </g>
    <path id="Trazado_661314" data-name="Trazado 661314" d="M9.578,7.523H6.094V17H3.75V7.523H.313v-1.9H9.578ZM13.148,17H10.883V8.547h2.266ZM10.75,6.359a1.112,1.112,0,0,1,.34-.836,1.277,1.277,0,0,1,.926-.328,1.28,1.28,0,0,1,.922.328,1.105,1.105,0,0,1,.344.836,1.108,1.108,0,0,1-.348.844,1.448,1.448,0,0,1-1.836,0A1.108,1.108,0,0,1,10.75,6.359Zm11.867,6.492a5.07,5.07,0,0,1-.887,3.129,2.843,2.843,0,0,1-2.395,1.176,2.633,2.633,0,0,1-2.07-.891V20.25H15.008V8.547H17.1l.078.828a2.654,2.654,0,0,1,2.141-.984,2.862,2.862,0,0,1,2.43,1.156,5.207,5.207,0,0,1,.867,3.188Zm-2.258-.164a3.327,3.327,0,0,0-.418-1.82,1.361,1.361,0,0,0-1.215-.641,1.478,1.478,0,0,0-1.461.813V14.5a1.5,1.5,0,0,0,1.477.836Q20.359,15.336,20.359,12.688Zm3.3.008a5.013,5.013,0,0,1,.484-2.242A3.546,3.546,0,0,1,25.543,8.93a4.069,4.069,0,0,1,2.113-.539,3.849,3.849,0,0,1,2.793,1.047,4.2,4.2,0,0,1,1.207,2.844l.016.578a4.418,4.418,0,0,1-1.086,3.121,3.775,3.775,0,0,1-2.914,1.176,3.793,3.793,0,0,1-2.918-1.172,4.5,4.5,0,0,1-1.09-3.187Zm2.258.16a3.16,3.16,0,0,0,.453,1.843,1.628,1.628,0,0,0,2.578.008,3.457,3.457,0,0,0,.461-2.015,3.128,3.128,0,0,0-.461-1.831,1.5,1.5,0,0,0-1.3-.649,1.474,1.474,0,0,0-1.281.646A3.516,3.516,0,0,0,25.922,12.856Zm11.719,1.808a.727.727,0,0,0-.41-.652,4.659,4.659,0,0,0-1.316-.426Q32.9,12.953,32.9,11.023a2.323,2.323,0,0,1,.934-1.879,3.766,3.766,0,0,1,2.441-.754,4.053,4.053,0,0,1,2.574.758,2.388,2.388,0,0,1,.965,1.969H37.555a1.092,1.092,0,0,0-.312-.8A1.322,1.322,0,0,0,36.266,10a1.351,1.351,0,0,0-.883.258.814.814,0,0,0-.312.656.7.7,0,0,0,.355.605,3.657,3.657,0,0,0,1.2.4,9.8,9.8,0,0,1,1.422.379,2.336,2.336,0,0,1,1.789,2.273,2.2,2.2,0,0,1-.992,1.871,4.28,4.28,0,0,1-2.562.715,4.47,4.47,0,0,1-1.887-.379A3.166,3.166,0,0,1,33.1,15.738a2.414,2.414,0,0,1-.469-1.426h2.141a1.179,1.179,0,0,0,.445.922,1.766,1.766,0,0,0,1.109.32,1.635,1.635,0,0,0,.98-.246A.766.766,0,0,0,37.641,14.664Zm7.281-1.953a5.094,5.094,0,0,1,.887-3.148,2.877,2.877,0,0,1,2.426-1.172,2.589,2.589,0,0,1,2.039.922V5h2.266V17H50.5l-.109-.9a2.657,2.657,0,0,1-2.172,1.055,2.869,2.869,0,0,1-2.395-1.176A5.258,5.258,0,0,1,44.922,12.711Zm2.258.168a3.337,3.337,0,0,0,.414,1.823,1.349,1.349,0,0,0,1.2.634,1.511,1.511,0,0,0,1.477-.884V11.111a1.489,1.489,0,0,0-1.461-.884Q47.18,10.227,47.18,12.879Zm11,4.277a4.15,4.15,0,0,1-3.027-1.141,4.054,4.054,0,0,1-1.168-3.039v-.219a5.106,5.106,0,0,1,.492-2.277,3.612,3.612,0,0,1,1.395-1.547,3.914,3.914,0,0,1,2.059-.543,3.508,3.508,0,0,1,2.73,1.094,4.444,4.444,0,0,1,1,3.1v.922H56.273a2.1,2.1,0,0,0,.66,1.328,2,2,0,0,0,1.395.5,2.437,2.437,0,0,0,2.039-.945l1.109,1.242A3.389,3.389,0,0,1,60.1,16.754,4.511,4.511,0,0,1,58.18,17.156Zm-.258-6.945a1.411,1.411,0,0,0-1.09.455,2.357,2.357,0,0,0-.535,1.3h3.141v-.181a1.681,1.681,0,0,0-.406-1.165A1.456,1.456,0,0,0,57.922,10.211Zm12.164,4.031,1.57-5.7h2.359L71.164,17H69.008L66.156,8.547h2.359ZM79.789,17a2.507,2.507,0,0,1-.227-.758,2.732,2.732,0,0,1-2.133.914,3,3,0,0,1-2.059-.719,2.312,2.312,0,0,1-.816-1.812,2.389,2.389,0,0,1,1-2.062,4.915,4.915,0,0,1,2.879-.727h1.039v-.484a1.393,1.393,0,0,0-.3-.937,1.183,1.183,0,0,0-.949-.352,1.345,1.345,0,0,0-.895.273.929.929,0,0,0-.324.75H74.742A2.268,2.268,0,0,1,75.2,9.727a3,3,0,0,1,1.281-.98,4.669,4.669,0,0,1,1.859-.355,3.689,3.689,0,0,1,2.48.785,2.747,2.747,0,0,1,.918,2.207v3.664a4.041,4.041,0,0,0,.336,1.82V17Zm-1.867-1.57a1.945,1.945,0,0,0,.922-.223,1.462,1.462,0,0,0,.625-.6V13.156h-.844q-1.7,0-1.8,1.172l-.008.133a.9.9,0,0,0,.3.7A1.153,1.153,0,0,0,77.922,15.43Zm10.3-4.766a6.134,6.134,0,0,0-.812-.062,1.654,1.654,0,0,0-1.68.867V17H83.469V8.547H85.6l.063,1.008a2.092,2.092,0,0,1,1.883-1.164,2.366,2.366,0,0,1,.7.1ZM91.688,17H89.422V8.547h2.266Zm-2.4-10.641a1.112,1.112,0,0,1,.34-.836,1.465,1.465,0,0,1,1.848,0,1.105,1.105,0,0,1,.344.836,1.108,1.108,0,0,1-.348.844,1.448,1.448,0,0,1-1.836,0A1.108,1.108,0,0,1,89.289,6.359ZM98.445,17a2.507,2.507,0,0,1-.227-.758,2.732,2.732,0,0,1-2.133.914,3,3,0,0,1-2.059-.719,2.312,2.312,0,0,1-.816-1.812,2.389,2.389,0,0,1,1-2.062,4.915,4.915,0,0,1,2.879-.727h1.039v-.484a1.393,1.393,0,0,0-.3-.937,1.183,1.183,0,0,0-.949-.352,1.345,1.345,0,0,0-.895.273.929.929,0,0,0-.324.75H93.4a2.268,2.268,0,0,1,.453-1.359,3,3,0,0,1,1.281-.98,4.669,4.669,0,0,1,1.859-.355,3.689,3.689,0,0,1,2.48.785,2.747,2.747,0,0,1,.918,2.207v3.664a4.041,4.041,0,0,0,.336,1.82V17Zm-1.867-1.57a1.945,1.945,0,0,0,.922-.223,1.462,1.462,0,0,0,.625-.6V13.156h-.844q-1.7,0-1.8,1.172l-.008.133a.9.9,0,0,0,.3.7A1.153,1.153,0,0,0,96.578,15.43Zm13.164-2.578a5.119,5.119,0,0,1-.867,3.168,2.872,2.872,0,0,1-2.422,1.137,2.639,2.639,0,0,1-2.2-1.055l-.1.9h-2.031V5h2.258V9.3a2.571,2.571,0,0,1,2.055-.914,2.9,2.9,0,0,1,2.426,1.137,5.126,5.126,0,0,1,.879,3.2Zm-2.258-.164a3.363,3.363,0,0,0-.406-1.871,1.374,1.374,0,0,0-1.211-.59,1.489,1.489,0,0,0-1.484.883v3.336a1.509,1.509,0,0,0,1.5.891,1.394,1.394,0,0,0,1.438-1.078A5.562,5.562,0,0,0,107.484,12.688ZM113.516,17H111.25V5h2.266Zm5.75.156a4.15,4.15,0,0,1-3.027-1.141,4.054,4.054,0,0,1-1.168-3.039v-.219a5.106,5.106,0,0,1,.492-2.277,3.612,3.612,0,0,1,1.395-1.547,3.914,3.914,0,0,1,2.059-.543,3.508,3.508,0,0,1,2.73,1.094,4.444,4.444,0,0,1,1,3.1v.922h-5.383a2.1,2.1,0,0,0,.66,1.328,2,2,0,0,0,1.395.5,2.437,2.437,0,0,0,2.039-.945l1.109,1.242a3.389,3.389,0,0,1-1.375,1.121A4.511,4.511,0,0,1,119.266,17.156Zm-.258-6.945a1.411,1.411,0,0,0-1.09.455,2.357,2.357,0,0,0-.535,1.3h3.141v-.181a1.681,1.681,0,0,0-.406-1.165A1.456,1.456,0,0,0,119.008,10.211Zm9.594,4.453a.727.727,0,0,0-.41-.652,4.659,4.659,0,0,0-1.316-.426q-3.016-.633-3.016-2.562a2.323,2.323,0,0,1,.934-1.879,3.766,3.766,0,0,1,2.441-.754,4.053,4.053,0,0,1,2.574.758,2.388,2.388,0,0,1,.965,1.969h-2.258a1.092,1.092,0,0,0-.312-.8,1.322,1.322,0,0,0-.977-.316,1.351,1.351,0,0,0-.883.258.814.814,0,0,0-.312.656.7.7,0,0,0,.355.605,3.657,3.657,0,0,0,1.2.4,9.8,9.8,0,0,1,1.422.379A2.336,2.336,0,0,1,130.8,14.57a2.205,2.205,0,0,1-.992,1.871,4.28,4.28,0,0,1-2.562.715,4.47,4.47,0,0,1-1.887-.379,3.166,3.166,0,0,1-1.293-1.039,2.414,2.414,0,0,1-.469-1.426h2.141a1.179,1.179,0,0,0,.445.922,1.766,1.766,0,0,0,1.109.32,1.635,1.635,0,0,0,.98-.246A.766.766,0,0,0,128.6,14.664Z" transform="translate(330.498 1138.49)" fill="#12263f"/>
    <path id="Trazado_661312" data-name="Trazado 661312" d="M4.484,15.977a2.082,2.082,0,0,0,1.352-.469,1.649,1.649,0,0,0,.641-1.172H7.844a2.621,2.621,0,0,1-.5,1.383,3.293,3.293,0,0,1-1.23,1.047,3.55,3.55,0,0,1-1.629.391A3.482,3.482,0,0,1,1.738,16a4.59,4.59,0,0,1-1.02-3.152v-.242a5.089,5.089,0,0,1,.453-2.2,3.451,3.451,0,0,1,1.3-1.492,3.7,3.7,0,0,1,2-.531,3.39,3.39,0,0,1,2.363.852,3.043,3.043,0,0,1,1,2.211H6.477a1.992,1.992,0,0,0-.621-1.348,1.932,1.932,0,0,0-1.379-.527,2.023,2.023,0,0,0-1.707.793,3.724,3.724,0,0,0-.605,2.293v.273a3.65,3.65,0,0,0,.6,2.25A2.033,2.033,0,0,0,4.484,15.977Zm10.2.188a3.07,3.07,0,0,1-2.477.992,2.628,2.628,0,0,1-2.059-.785,3.4,3.4,0,0,1-.715-2.324v-5.5h1.445v5.461q0,1.922,1.563,1.922a2.163,2.163,0,0,0,2.2-1.234V8.547h1.445V17H14.719Zm8.82.836a3.036,3.036,0,0,1-.2-.891A3.225,3.225,0,0,1,20.9,17.156a2.984,2.984,0,0,1-2.051-.707,2.287,2.287,0,0,1-.8-1.793,2.39,2.39,0,0,1,1-2.051,4.733,4.733,0,0,1,2.824-.73h1.406v-.664A1.623,1.623,0,0,0,22.828,10a1.821,1.821,0,0,0-1.336-.449,2.107,2.107,0,0,0-1.3.391,1.151,1.151,0,0,0-.523.945H18.219a2,2,0,0,1,.449-1.223,3.066,3.066,0,0,1,1.219-.934,4.1,4.1,0,0,1,1.691-.344,3.342,3.342,0,0,1,2.289.73,2.635,2.635,0,0,1,.859,2.012v3.891a4.757,4.757,0,0,0,.3,1.852V17Zm-2.4-1.1a2.54,2.54,0,0,0,1.289-.352,2.127,2.127,0,0,0,.883-.914V12.9H22.148q-2.656,0-2.656,1.555a1.316,1.316,0,0,0,.453,1.063A1.742,1.742,0,0,0,21.109,15.9ZM28.563,17H27.117V5h1.445Zm3.883,0H31V8.547h1.445ZM30.883,6.3a.863.863,0,0,1,.215-.594.807.807,0,0,1,.637-.242.819.819,0,0,1,.641.242.854.854,0,0,1,.219.594.826.826,0,0,1-.219.586.834.834,0,0,1-.641.234.821.821,0,0,1-.637-.234A.834.834,0,0,1,30.883,6.3Zm5.836.2V8.547H38.3V9.664H36.719v5.249a1.173,1.173,0,0,0,.211.763.888.888,0,0,0,.719.254,3.5,3.5,0,0,0,.688-.094V17a4.215,4.215,0,0,1-1.109.155,1.8,1.8,0,0,1-1.461-.586,2.517,2.517,0,0,1-.492-1.664V9.664H33.734V8.547h1.539V6.5ZM45.2,17a3.036,3.036,0,0,1-.2-.891,3.225,3.225,0,0,1-2.406,1.047,2.984,2.984,0,0,1-2.051-.707,2.287,2.287,0,0,1-.8-1.793,2.39,2.39,0,0,1,1-2.051,4.733,4.733,0,0,1,2.824-.73h1.406v-.664A1.623,1.623,0,0,0,44.523,10a1.821,1.821,0,0,0-1.336-.449,2.107,2.107,0,0,0-1.3.391,1.151,1.151,0,0,0-.523.945H39.914a2,2,0,0,1,.449-1.223,3.066,3.066,0,0,1,1.219-.934,4.1,4.1,0,0,1,1.691-.344,3.342,3.342,0,0,1,2.289.73,2.635,2.635,0,0,1,.859,2.012v3.891a4.757,4.757,0,0,0,.3,1.852V17Zm-2.4-1.1a2.54,2.54,0,0,0,1.289-.352,2.127,2.127,0,0,0,.883-.914V12.9H43.844q-2.656,0-2.656,1.555a1.316,1.316,0,0,0,.453,1.063A1.742,1.742,0,0,0,42.8,15.9Zm7.844-9.4V8.547h1.578V9.664H50.648v5.249a1.173,1.173,0,0,0,.211.763.888.888,0,0,0,.719.254,3.5,3.5,0,0,0,.688-.094V17a4.215,4.215,0,0,1-1.109.155A1.8,1.8,0,0,1,49.7,16.57a2.517,2.517,0,0,1-.492-1.664V9.664H47.664V8.547H49.2V6.5ZM55.484,17H54.039V8.547h1.445ZM53.922,6.3a.863.863,0,0,1,.215-.594.807.807,0,0,1,.637-.242.819.819,0,0,1,.641.242.854.854,0,0,1,.219.594.826.826,0,0,1-.219.586.834.834,0,0,1-.641.234.821.821,0,0,1-.637-.234A.834.834,0,0,1,53.922,6.3Zm6.664,8.734L62.68,8.547h1.477L61.125,17h-1.1L56.961,8.547h1.477ZM70.648,17a3.036,3.036,0,0,1-.2-.891,3.225,3.225,0,0,1-2.406,1.047,2.984,2.984,0,0,1-2.051-.707,2.288,2.288,0,0,1-.8-1.793,2.39,2.39,0,0,1,1-2.051,4.733,4.733,0,0,1,2.824-.73h1.406v-.664A1.623,1.623,0,0,0,69.969,10a1.821,1.821,0,0,0-1.336-.449,2.108,2.108,0,0,0-1.3.391,1.151,1.151,0,0,0-.523.945H65.359a2,2,0,0,1,.449-1.223,3.066,3.066,0,0,1,1.219-.934,4.1,4.1,0,0,1,1.691-.344,3.342,3.342,0,0,1,2.289.73,2.635,2.635,0,0,1,.859,2.012v3.891a4.757,4.757,0,0,0,.3,1.852V17Zm-2.4-1.1a2.54,2.54,0,0,0,1.289-.352,2.127,2.127,0,0,0,.883-.914V12.9H69.289q-2.656,0-2.656,1.555a1.316,1.316,0,0,0,.453,1.063A1.742,1.742,0,0,0,68.25,15.9Zm10.8-1.141a1.064,1.064,0,0,0-.441-.91,4.249,4.249,0,0,0-1.539-.559,7.277,7.277,0,0,1-1.742-.562,2.479,2.479,0,0,1-.953-.781,1.869,1.869,0,0,1-.309-1.078,2.193,2.193,0,0,1,.879-1.758A3.432,3.432,0,0,1,77.2,8.391a3.532,3.532,0,0,1,2.332.742,2.357,2.357,0,0,1,.895,1.9H78.969a1.3,1.3,0,0,0-.5-1.023,1.888,1.888,0,0,0-1.27-.43,1.976,1.976,0,0,0-1.234.344,1.082,1.082,0,0,0-.445.9.877.877,0,0,0,.414.789,5.1,5.1,0,0,0,1.5.508,7.8,7.8,0,0,1,1.754.578,2.558,2.558,0,0,1,1,.809,1.988,1.988,0,0,1,.324,1.152,2.163,2.163,0,0,1-.906,1.816,3.8,3.8,0,0,1-2.352.684,4.257,4.257,0,0,1-1.8-.359,2.922,2.922,0,0,1-1.223-1,2.42,2.42,0,0,1-.441-1.395h1.445a1.5,1.5,0,0,0,.582,1.152,2.258,2.258,0,0,0,1.434.426,2.331,2.331,0,0,0,1.316-.332A1.02,1.02,0,0,0,79.055,14.758Z" transform="translate(642.77 1029.803)" fill="#12263f"/>
    <path id="Trazado_661311" data-name="Trazado 661311" d="M10.063,17H8.555L2.828,8.234V17H1.32V5.625H2.828l5.742,8.8v-8.8h1.492Zm2.055-4.3a4.993,4.993,0,0,1,.488-2.234A3.643,3.643,0,0,1,13.965,8.93a3.7,3.7,0,0,1,1.988-.539,3.565,3.565,0,0,1,2.793,1.2,4.6,4.6,0,0,1,1.066,3.18v.1a5.036,5.036,0,0,1-.473,2.215,3.589,3.589,0,0,1-1.352,1.527,3.743,3.743,0,0,1-2.02.547,3.556,3.556,0,0,1-2.785-1.2A4.575,4.575,0,0,1,12.117,12.8Zm1.453.172a3.616,3.616,0,0,0,.652,2.258,2.211,2.211,0,0,0,3.5-.012,3.955,3.955,0,0,0,.648-2.418,3.61,3.61,0,0,0-.66-2.254,2.1,2.1,0,0,0-1.754-.863,2.075,2.075,0,0,0-1.727.852A3.925,3.925,0,0,0,13.57,12.867Zm9.414-4.32.039.938a3.122,3.122,0,0,1,2.508-1.094A2.417,2.417,0,0,1,27.945,9.75a3.2,3.2,0,0,1,1.1-.984,3.242,3.242,0,0,1,1.6-.375q2.781,0,2.828,2.945V17H32.023V11.422a1.941,1.941,0,0,0-.414-1.355,1.823,1.823,0,0,0-1.391-.449,1.916,1.916,0,0,0-1.336.48,1.949,1.949,0,0,0-.617,1.293V17H26.813V11.461a1.613,1.613,0,0,0-1.8-1.844,1.934,1.934,0,0,0-1.945,1.211V17H21.617V8.547ZM37.219,17H35.773V8.547h1.445ZM35.656,6.3a.863.863,0,0,1,.215-.594.807.807,0,0,1,.637-.242.819.819,0,0,1,.641.242.854.854,0,0,1,.219.594.826.826,0,0,1-.219.586.834.834,0,0,1-.641.234.821.821,0,0,1-.637-.234A.834.834,0,0,1,35.656,6.3ZM40.9,8.547l.047,1.063a3.08,3.08,0,0,1,2.531-1.219q2.68,0,2.7,3.023V17H44.734V11.406a1.946,1.946,0,0,0-.418-1.352,1.675,1.675,0,0,0-1.277-.437,2.086,2.086,0,0,0-1.234.375,2.546,2.546,0,0,0-.828.984V17H39.531V8.547ZM53.578,17a3.036,3.036,0,0,1-.2-.891,3.225,3.225,0,0,1-2.406,1.047,2.984,2.984,0,0,1-2.051-.707,2.287,2.287,0,0,1-.8-1.793,2.39,2.39,0,0,1,1-2.051,4.733,4.733,0,0,1,2.824-.73h1.406v-.664A1.623,1.623,0,0,0,52.9,10a1.821,1.821,0,0,0-1.336-.449,2.107,2.107,0,0,0-1.3.391,1.151,1.151,0,0,0-.523.945H48.289a2,2,0,0,1,.449-1.223,3.066,3.066,0,0,1,1.219-.934,4.1,4.1,0,0,1,1.691-.344,3.342,3.342,0,0,1,2.289.73,2.635,2.635,0,0,1,.859,2.012v3.891a4.757,4.757,0,0,0,.3,1.852V17Zm-2.4-1.1a2.54,2.54,0,0,0,1.289-.352,2.127,2.127,0,0,0,.883-.914V12.9H52.219q-2.656,0-2.656,1.555a1.316,1.316,0,0,0,.453,1.063A1.742,1.742,0,0,0,51.18,15.9ZM58.633,17H57.188V5h1.445Zm5.82.156a3.693,3.693,0,0,1-2.8-1.129,4.19,4.19,0,0,1-1.078-3.02v-.266a5.073,5.073,0,0,1,.48-2.246A3.748,3.748,0,0,1,62.4,8.949a3.378,3.378,0,0,1,1.871-.559,3.166,3.166,0,0,1,2.563,1.086,4.7,4.7,0,0,1,.914,3.109v.6H62.023a3,3,0,0,0,.73,2.02,2.3,2.3,0,0,0,1.777.77,2.517,2.517,0,0,0,1.3-.312,3.259,3.259,0,0,0,.93-.828l.883.688A3.55,3.55,0,0,1,64.453,17.156Zm-.18-7.578a1.928,1.928,0,0,0-1.469.637A3.1,3.1,0,0,0,62.07,12H66.3v-.109a2.753,2.753,0,0,0-.594-1.707A1.815,1.815,0,0,0,64.273,9.578Zm10.07,5.18a1.064,1.064,0,0,0-.441-.91,4.249,4.249,0,0,0-1.539-.559,7.277,7.277,0,0,1-1.742-.562,2.479,2.479,0,0,1-.953-.781,1.869,1.869,0,0,1-.309-1.078,2.193,2.193,0,0,1,.879-1.758,3.432,3.432,0,0,1,2.246-.719,3.532,3.532,0,0,1,2.332.742,2.357,2.357,0,0,1,.895,1.9H74.258a1.3,1.3,0,0,0-.5-1.023,1.888,1.888,0,0,0-1.27-.43,1.976,1.976,0,0,0-1.234.344,1.082,1.082,0,0,0-.445.9.877.877,0,0,0,.414.789,5.1,5.1,0,0,0,1.5.508,7.8,7.8,0,0,1,1.754.578,2.558,2.558,0,0,1,1,.809,1.988,1.988,0,0,1,.324,1.152,2.163,2.163,0,0,1-.906,1.816,3.8,3.8,0,0,1-2.352.684,4.257,4.257,0,0,1-1.8-.359,2.922,2.922,0,0,1-1.223-1A2.42,2.42,0,0,1,69.07,14.4h1.445a1.5,1.5,0,0,0,.582,1.152,2.258,2.258,0,0,0,1.434.426,2.331,2.331,0,0,0,1.316-.332A1.02,1.02,0,0,0,74.344,14.758Z" transform="translate(866.311 963.62)" fill="#12263f"/>
    <path id="Trazado_661315" data-name="Trazado 661315" d="M1.32,17V5.625H4.531a5.169,5.169,0,0,1,2.625.656A4.438,4.438,0,0,1,8.918,8.148a6.078,6.078,0,0,1,.629,2.781v.727a6.1,6.1,0,0,1-.621,2.82,4.369,4.369,0,0,1-1.773,1.859A5.5,5.5,0,0,1,4.469,17ZM2.82,6.852v8.922H4.4a3.434,3.434,0,0,0,2.7-1.079,4.458,4.458,0,0,0,.965-3.073v-.665a4.529,4.529,0,0,0-.91-3.014A3.239,3.239,0,0,0,4.57,6.852ZM13.156,17H11.711V8.547h1.445ZM11.594,6.3a.863.863,0,0,1,.215-.594.807.807,0,0,1,.637-.242.819.819,0,0,1,.641.242A.854.854,0,0,1,13.3,6.3a.826.826,0,0,1-.219.586.834.834,0,0,1-.641.234.821.821,0,0,1-.637-.234A.834.834,0,0,1,11.594,6.3Zm8.8,8.453a1.064,1.064,0,0,0-.441-.91,4.249,4.249,0,0,0-1.539-.559,7.277,7.277,0,0,1-1.742-.562,2.479,2.479,0,0,1-.953-.781,1.869,1.869,0,0,1-.309-1.078,2.193,2.193,0,0,1,.879-1.758,3.432,3.432,0,0,1,2.246-.719,3.532,3.532,0,0,1,2.332.742,2.357,2.357,0,0,1,.895,1.9H20.3a1.3,1.3,0,0,0-.5-1.023,1.888,1.888,0,0,0-1.27-.43,1.976,1.976,0,0,0-1.234.344,1.082,1.082,0,0,0-.445.9.877.877,0,0,0,.414.789,5.1,5.1,0,0,0,1.5.508,7.8,7.8,0,0,1,1.754.578,2.558,2.558,0,0,1,1,.809,1.988,1.988,0,0,1,.324,1.152,2.163,2.163,0,0,1-.906,1.816,3.8,3.8,0,0,1-2.352.684,4.257,4.257,0,0,1-1.8-.359,2.922,2.922,0,0,1-1.223-1,2.42,2.42,0,0,1-.441-1.395h1.445a1.5,1.5,0,0,0,.582,1.152,2.258,2.258,0,0,0,1.434.426,2.331,2.331,0,0,0,1.316-.332A1.02,1.02,0,0,0,20.391,14.758Zm6.719,1.219a2.082,2.082,0,0,0,1.352-.469,1.649,1.649,0,0,0,.641-1.172h1.367a2.621,2.621,0,0,1-.5,1.383,3.293,3.293,0,0,1-1.23,1.047,3.55,3.55,0,0,1-1.629.391A3.482,3.482,0,0,1,24.363,16a4.59,4.59,0,0,1-1.02-3.152v-.242a5.089,5.089,0,0,1,.453-2.2,3.451,3.451,0,0,1,1.3-1.492,3.7,3.7,0,0,1,2-.531,3.39,3.39,0,0,1,2.363.852,3.043,3.043,0,0,1,1,2.211H29.1a1.992,1.992,0,0,0-.621-1.348A1.932,1.932,0,0,0,27.1,9.578a2.023,2.023,0,0,0-1.707.793,3.724,3.724,0,0,0-.605,2.293v.273a3.65,3.65,0,0,0,.6,2.25A2.033,2.033,0,0,0,27.109,15.977Zm9.07-6.133a4.331,4.331,0,0,0-.711-.055A1.9,1.9,0,0,0,33.539,11v6H32.094V8.547H33.5l.023.977a2.251,2.251,0,0,1,2.016-1.133,1.477,1.477,0,0,1,.641.109Zm4.836,7.313a3.693,3.693,0,0,1-2.8-1.129,4.19,4.19,0,0,1-1.078-3.02v-.266a5.073,5.073,0,0,1,.48-2.246,3.748,3.748,0,0,1,1.344-1.547,3.378,3.378,0,0,1,1.871-.559A3.166,3.166,0,0,1,43.4,9.477a4.7,4.7,0,0,1,.914,3.109v.6H38.586a3,3,0,0,0,.73,2.02,2.3,2.3,0,0,0,1.777.77,2.517,2.517,0,0,0,1.3-.312,3.259,3.259,0,0,0,.93-.828l.883.688A3.55,3.55,0,0,1,41.016,17.156Zm-.18-7.578a1.928,1.928,0,0,0-1.469.637A3.1,3.1,0,0,0,38.633,12h4.234v-.109a2.753,2.753,0,0,0-.594-1.707A1.815,1.815,0,0,0,40.836,9.578ZM47.945,6.5V8.547h1.578V9.664H47.945v5.249a1.173,1.173,0,0,0,.211.763.888.888,0,0,0,.719.254,3.5,3.5,0,0,0,.688-.094V17a4.215,4.215,0,0,1-1.109.155,1.8,1.8,0,0,1-1.461-.586,2.517,2.517,0,0,1-.492-1.664V9.664H44.961V8.547H46.5V6.5ZM56.43,17a3.036,3.036,0,0,1-.2-.891,3.225,3.225,0,0,1-2.406,1.047,2.984,2.984,0,0,1-2.051-.707,2.287,2.287,0,0,1-.8-1.793,2.39,2.39,0,0,1,1-2.051,4.733,4.733,0,0,1,2.824-.73H56.2v-.664A1.623,1.623,0,0,0,55.75,10a1.821,1.821,0,0,0-1.336-.449,2.107,2.107,0,0,0-1.3.391,1.151,1.151,0,0,0-.523.945H51.141a2,2,0,0,1,.449-1.223,3.066,3.066,0,0,1,1.219-.934A4.1,4.1,0,0,1,54.5,8.391a3.342,3.342,0,0,1,2.289.73,2.635,2.635,0,0,1,.859,2.012v3.891a4.757,4.757,0,0,0,.3,1.852V17Zm-2.4-1.1a2.54,2.54,0,0,0,1.289-.352,2.127,2.127,0,0,0,.883-.914V12.9H55.07q-2.656,0-2.656,1.555a1.316,1.316,0,0,0,.453,1.063A1.742,1.742,0,0,0,54.031,15.9Zm10.8-1.141a1.064,1.064,0,0,0-.441-.91,4.249,4.249,0,0,0-1.539-.559,7.277,7.277,0,0,1-1.742-.562,2.479,2.479,0,0,1-.953-.781,1.869,1.869,0,0,1-.309-1.078,2.193,2.193,0,0,1,.879-1.758,3.432,3.432,0,0,1,2.246-.719,3.532,3.532,0,0,1,2.332.742,2.357,2.357,0,0,1,.895,1.9H64.75a1.3,1.3,0,0,0-.5-1.023,1.888,1.888,0,0,0-1.27-.43,1.976,1.976,0,0,0-1.234.344,1.082,1.082,0,0,0-.445.9.877.877,0,0,0,.414.789,5.1,5.1,0,0,0,1.5.508,7.8,7.8,0,0,1,1.754.578,2.558,2.558,0,0,1,1,.809,1.988,1.988,0,0,1,.324,1.152,2.163,2.163,0,0,1-.906,1.816,3.8,3.8,0,0,1-2.352.684,4.257,4.257,0,0,1-1.8-.359,2.922,2.922,0,0,1-1.223-1,2.42,2.42,0,0,1-.441-1.395h1.445a1.5,1.5,0,0,0,.582,1.152,2.258,2.258,0,0,0,1.434.426,2.331,2.331,0,0,0,1.316-.332A1.02,1.02,0,0,0,64.836,14.758Z" transform="translate(866.311 1168.601)" fill="#12263f"/>
    <path id="Trazado_661313" data-name="Trazado 661313" d="M10.07,11.68A7.037,7.037,0,0,1,9.508,14.6a4.261,4.261,0,0,1-1.594,1.9,4.385,4.385,0,0,1-2.406.656,4.348,4.348,0,0,1-2.383-.66,4.363,4.363,0,0,1-1.613-1.883,6.752,6.752,0,0,1-.59-2.832v-.82a6.953,6.953,0,0,1,.57-2.9A4.347,4.347,0,0,1,3.105,6.137a4.329,4.329,0,0,1,2.387-.668,4.41,4.41,0,0,1,2.41.66A4.253,4.253,0,0,1,9.508,8.043a7.071,7.071,0,0,1,.563,2.918Zm-1.492-.734A5.1,5.1,0,0,0,7.766,7.84,2.68,2.68,0,0,0,5.492,6.758,2.651,2.651,0,0,0,3.254,7.84a5,5,0,0,0-.84,3v.836a5.107,5.107,0,0,0,.824,3.082,2.662,2.662,0,0,0,2.27,1.121,2.652,2.652,0,0,0,2.25-1.059,5.079,5.079,0,0,0,.82-3.035Zm7.6-1.1a4.331,4.331,0,0,0-.711-.055A1.9,1.9,0,0,0,13.539,11v6H12.094V8.547H13.5l.023.977a2.251,2.251,0,0,1,2.016-1.133,1.477,1.477,0,0,1,.641.109Zm.977,2.859a4.952,4.952,0,0,1,.922-3.129,3.137,3.137,0,0,1,4.766-.168V5h1.445V17H22.961l-.07-.906a2.943,2.943,0,0,1-2.414,1.063,2.887,2.887,0,0,1-2.395-1.2,5.008,5.008,0,0,1-.926-3.141Zm1.445.164a3.749,3.749,0,0,0,.594,2.25,1.92,1.92,0,0,0,1.641.813A2.108,2.108,0,0,0,22.844,14.7V10.813a2.125,2.125,0,0,0-1.992-1.2,1.929,1.929,0,0,0-1.656.82A4.128,4.128,0,0,0,18.6,12.867ZM28.1,17H26.656V8.547H28.1ZM26.539,6.3a.863.863,0,0,1,.215-.594.807.807,0,0,1,.637-.242.819.819,0,0,1,.641.242.854.854,0,0,1,.219.594.826.826,0,0,1-.219.586.834.834,0,0,1-.641.234.821.821,0,0,1-.637-.234A.834.834,0,0,1,26.539,6.3Zm5.242,2.242.047,1.063a3.08,3.08,0,0,1,2.531-1.219q2.68,0,2.7,3.023V17H35.617V11.406a1.946,1.946,0,0,0-.418-1.352,1.675,1.675,0,0,0-1.277-.437,2.086,2.086,0,0,0-1.234.375,2.546,2.546,0,0,0-.828.984V17H30.414V8.547ZM44.461,17a3.036,3.036,0,0,1-.2-.891,3.225,3.225,0,0,1-2.406,1.047,2.984,2.984,0,0,1-2.051-.707,2.287,2.287,0,0,1-.8-1.793,2.39,2.39,0,0,1,1-2.051,4.733,4.733,0,0,1,2.824-.73h1.406v-.664A1.623,1.623,0,0,0,43.781,10a1.821,1.821,0,0,0-1.336-.449,2.107,2.107,0,0,0-1.3.391,1.151,1.151,0,0,0-.523.945H39.172a2,2,0,0,1,.449-1.223,3.066,3.066,0,0,1,1.219-.934,4.1,4.1,0,0,1,1.691-.344,3.342,3.342,0,0,1,2.289.73,2.635,2.635,0,0,1,.859,2.012v3.891a4.757,4.757,0,0,0,.3,1.852V17Zm-2.4-1.1a2.54,2.54,0,0,0,1.289-.352,2.127,2.127,0,0,0,.883-.914V12.9H43.1q-2.656,0-2.656,1.555a1.316,1.316,0,0,0,.453,1.063A1.742,1.742,0,0,0,42.063,15.9ZM49.516,17H48.07V5h1.445Zm5.82.156a3.693,3.693,0,0,1-2.8-1.129,4.19,4.19,0,0,1-1.078-3.02v-.266a5.073,5.073,0,0,1,.48-2.246,3.748,3.748,0,0,1,1.344-1.547,3.378,3.378,0,0,1,1.871-.559,3.166,3.166,0,0,1,2.563,1.086,4.7,4.7,0,0,1,.914,3.109v.6H52.906a3,3,0,0,0,.73,2.02,2.3,2.3,0,0,0,1.777.77,2.517,2.517,0,0,0,1.3-.312,3.259,3.259,0,0,0,.93-.828l.883.688A3.55,3.55,0,0,1,55.336,17.156Zm-.18-7.578a1.928,1.928,0,0,0-1.469.637A3.1,3.1,0,0,0,52.953,12h4.234v-.109a2.753,2.753,0,0,0-.594-1.707A1.815,1.815,0,0,0,55.156,9.578Zm10.07,5.18a1.064,1.064,0,0,0-.441-.91,4.249,4.249,0,0,0-1.539-.559,7.277,7.277,0,0,1-1.742-.562,2.479,2.479,0,0,1-.953-.781,1.869,1.869,0,0,1-.309-1.078,2.193,2.193,0,0,1,.879-1.758,3.432,3.432,0,0,1,2.246-.719,3.532,3.532,0,0,1,2.332.742,2.357,2.357,0,0,1,.895,1.9H65.141a1.3,1.3,0,0,0-.5-1.023,1.888,1.888,0,0,0-1.27-.43,1.976,1.976,0,0,0-1.234.344,1.082,1.082,0,0,0-.445.9.877.877,0,0,0,.414.789,5.1,5.1,0,0,0,1.5.508,7.8,7.8,0,0,1,1.754.578,2.558,2.558,0,0,1,1,.809,1.988,1.988,0,0,1,.324,1.152,2.163,2.163,0,0,1-.906,1.816,3.8,3.8,0,0,1-2.352.684,4.257,4.257,0,0,1-1.8-.359,2.922,2.922,0,0,1-1.223-1,2.42,2.42,0,0,1-.441-1.395H61.4a1.5,1.5,0,0,0,.582,1.152,2.258,2.258,0,0,0,1.434.426,2.331,2.331,0,0,0,1.316-.332A1.02,1.02,0,0,0,65.227,14.758Z" transform="translate(876.761 1046.969)" fill="#12263f"/>
    <path id="Trazado_661317" data-name="Trazado 661317" d="M9.688,13.391a4.185,4.185,0,0,1-1.332,2.785,4.365,4.365,0,0,1-2.98.98,4.008,4.008,0,0,1-3.23-1.445A5.815,5.815,0,0,1,.93,11.844V10.75A6.481,6.481,0,0,1,1.5,7.961,4.231,4.231,0,0,1,3.1,6.113a4.47,4.47,0,0,1,2.406-.645A4.11,4.11,0,0,1,8.414,6.48a4.235,4.235,0,0,1,1.273,2.8H8.18a3.268,3.268,0,0,0-.848-1.975A2.565,2.565,0,0,0,5.508,6.7,2.684,2.684,0,0,0,3.254,7.759a4.882,4.882,0,0,0-.816,3.026v1.1a5.018,5.018,0,0,0,.773,2.948A2.5,2.5,0,0,0,5.375,15.93a2.887,2.887,0,0,0,1.918-.566,3.143,3.143,0,0,0,.887-1.973Zm1.438-.7a4.993,4.993,0,0,1,.488-2.234A3.643,3.643,0,0,1,12.973,8.93a3.7,3.7,0,0,1,1.988-.539,3.565,3.565,0,0,1,2.793,1.2,4.6,4.6,0,0,1,1.066,3.18v.1a5.036,5.036,0,0,1-.473,2.215A3.589,3.589,0,0,1,17,16.609a3.743,3.743,0,0,1-2.02.547,3.556,3.556,0,0,1-2.785-1.2A4.575,4.575,0,0,1,11.125,12.8Zm1.453.172a3.616,3.616,0,0,0,.652,2.258,2.211,2.211,0,0,0,3.5-.012,3.955,3.955,0,0,0,.648-2.418,3.61,3.61,0,0,0-.66-2.254,2.1,2.1,0,0,0-1.754-.863,2.075,2.075,0,0,0-1.727.852A3.925,3.925,0,0,0,12.578,12.867ZM22,8.547l.047,1.063a3.08,3.08,0,0,1,2.531-1.219q2.68,0,2.7,3.023V17H25.836V11.406a1.946,1.946,0,0,0-.418-1.352,1.675,1.675,0,0,0-1.277-.437,2.086,2.086,0,0,0-1.234.375,2.546,2.546,0,0,0-.828.984V17H20.633V8.547ZM31.422,6.5V8.547H33V9.664H31.422v5.249a1.173,1.173,0,0,0,.211.763.888.888,0,0,0,.719.254,3.5,3.5,0,0,0,.688-.094V17a4.215,4.215,0,0,1-1.109.155,1.8,1.8,0,0,1-1.461-.586,2.517,2.517,0,0,1-.492-1.664V9.664H28.438V8.547h1.539V6.5ZM36.258,17H34.813V8.547h1.445ZM34.7,6.3a.863.863,0,0,1,.215-.594.807.807,0,0,1,.637-.242.819.819,0,0,1,.641.242.854.854,0,0,1,.219.594.826.826,0,0,1-.219.586.834.834,0,0,1-.641.234.821.821,0,0,1-.637-.234A.834.834,0,0,1,34.7,6.3Zm5.242,2.242.047,1.063a3.08,3.08,0,0,1,2.531-1.219q2.68,0,2.7,3.023V17H43.773V11.406a1.946,1.946,0,0,0-.418-1.352,1.675,1.675,0,0,0-1.277-.437,2.086,2.086,0,0,0-1.234.375,2.546,2.546,0,0,0-.828.984V17H38.57V8.547Zm12.68,7.617a3.07,3.07,0,0,1-2.477.992,2.628,2.628,0,0,1-2.059-.785,3.4,3.4,0,0,1-.715-2.324v-5.5h1.445v5.461q0,1.922,1.563,1.922a2.163,2.163,0,0,0,2.2-1.234V8.547h1.445V17H52.648Zm8.82.836a3.036,3.036,0,0,1-.2-.891,3.225,3.225,0,0,1-2.406,1.047,2.984,2.984,0,0,1-2.051-.707,2.287,2.287,0,0,1-.8-1.793,2.39,2.39,0,0,1,1-2.051,4.733,4.733,0,0,1,2.824-.73h1.406v-.664A1.623,1.623,0,0,0,60.758,10a1.821,1.821,0,0,0-1.336-.449,2.107,2.107,0,0,0-1.3.391,1.151,1.151,0,0,0-.523.945H56.148A2,2,0,0,1,56.6,9.668a3.066,3.066,0,0,1,1.219-.934,4.1,4.1,0,0,1,1.691-.344,3.342,3.342,0,0,1,2.289.73,2.635,2.635,0,0,1,.859,2.012v3.891a4.757,4.757,0,0,0,.3,1.852V17Zm-2.4-1.1a2.54,2.54,0,0,0,1.289-.352,2.127,2.127,0,0,0,.883-.914V12.9H60.078q-2.656,0-2.656,1.555a1.316,1.316,0,0,0,.453,1.063A1.742,1.742,0,0,0,59.039,15.9Zm10.8-1.141a1.064,1.064,0,0,0-.441-.91,4.249,4.249,0,0,0-1.539-.559,7.277,7.277,0,0,1-1.742-.562,2.479,2.479,0,0,1-.953-.781,1.869,1.869,0,0,1-.309-1.078,2.193,2.193,0,0,1,.879-1.758,3.432,3.432,0,0,1,2.246-.719,3.532,3.532,0,0,1,2.332.742,2.357,2.357,0,0,1,.895,1.9H69.758a1.3,1.3,0,0,0-.5-1.023,1.888,1.888,0,0,0-1.27-.43,1.976,1.976,0,0,0-1.234.344,1.082,1.082,0,0,0-.445.9.877.877,0,0,0,.414.789,5.1,5.1,0,0,0,1.5.508,7.8,7.8,0,0,1,1.754.578,2.558,2.558,0,0,1,1,.809,1.988,1.988,0,0,1,.324,1.152,2.163,2.163,0,0,1-.906,1.816,3.8,3.8,0,0,1-2.352.684,4.257,4.257,0,0,1-1.8-.359,2.922,2.922,0,0,1-1.223-1A2.42,2.42,0,0,1,64.57,14.4h1.445a1.5,1.5,0,0,0,.582,1.152,2.258,2.258,0,0,0,1.434.426,2.331,2.331,0,0,0,1.316-.332A1.02,1.02,0,0,0,69.844,14.758Z" transform="translate(873.14 1251.948)" fill="#12263f"/>
    <g id="Grupo_890107" data-name="Grupo 890107" transform="translate(470.969 1112.484)">
      <g id="Grupo_880860-7" data-name="Grupo 880860" transform="translate(0 0)">
        <path id="Trazado_117745-7" data-name="Trazado 117745" d="M406.777,423.958a36.813,36.813,0,0,1-36.771,36.771,1.613,1.613,0,1,1,0-3.225,33.546,33.546,0,0,0,0-67.093,1.612,1.612,0,1,1,0-3.225A36.813,36.813,0,0,1,406.777,423.958Z" transform="translate(-368.393 -387.187)" fill="#feca2e"/>
      </g>
      <path id="Trazado_117779-3" data-name="Trazado 117779" d="M492.759,448.279l-20.925,11.475-20.925,11.475s6.5-11.353,6.34-23.441c-.134-10.209-5.289-24.278-5.289-24.278l20.4,12.384Z" transform="translate(-410.198 -410.598)" fill="#feca2e"/>
    </g>
    <g id="Grupo_890135" data-name="Grupo 890135" transform="translate(724.466 1198.059)">
      <g id="Grupo_880860-8" data-name="Grupo 880860" transform="translate(0 0.001)">
        <path id="Trazado_117745-8" data-name="Trazado 117745" d="M406.777,423.958a36.813,36.813,0,0,1-36.771,36.771,1.613,1.613,0,1,1,0-3.225,33.546,33.546,0,0,0,0-67.093,1.612,1.612,0,1,1,0-3.225A36.813,36.813,0,0,1,406.777,423.958Z" transform="translate(-368.393 -387.187)" fill="#feca2e"/>
      </g>
      <path id="Trazado_117779-4" data-name="Trazado 117779" d="M492.759,448.279l-20.925,11.475-20.925,11.475s6.5-11.353,6.34-23.441c-.134-10.209-5.289-24.278-5.289-24.278l20.4,12.384Z" transform="translate(-412.525 -410.597)" fill="#feca2e"/>
    </g>
    <path id="Trazado_661316" data-name="Trazado 661316" d="M4.484,15.977a2.082,2.082,0,0,0,1.352-.469,1.649,1.649,0,0,0,.641-1.172H7.844a2.621,2.621,0,0,1-.5,1.383,3.293,3.293,0,0,1-1.23,1.047,3.55,3.55,0,0,1-1.629.391A3.482,3.482,0,0,1,1.738,16a4.59,4.59,0,0,1-1.02-3.152v-.242a5.089,5.089,0,0,1,.453-2.2,3.451,3.451,0,0,1,1.3-1.492,3.7,3.7,0,0,1,2-.531,3.39,3.39,0,0,1,2.363.852,3.043,3.043,0,0,1,1,2.211H6.477a1.992,1.992,0,0,0-.621-1.348,1.932,1.932,0,0,0-1.379-.527,2.023,2.023,0,0,0-1.707.793,3.724,3.724,0,0,0-.605,2.293v.273a3.65,3.65,0,0,0,.6,2.25A2.033,2.033,0,0,0,4.484,15.977Zm10.2.188a3.07,3.07,0,0,1-2.477.992,2.628,2.628,0,0,1-2.059-.785,3.4,3.4,0,0,1-.715-2.324v-5.5h1.445v5.461q0,1.922,1.563,1.922a2.163,2.163,0,0,0,2.2-1.234V8.547h1.445V17H14.719Zm8.82.836a3.036,3.036,0,0,1-.2-.891A3.225,3.225,0,0,1,20.9,17.156a2.984,2.984,0,0,1-2.051-.707,2.287,2.287,0,0,1-.8-1.793,2.39,2.39,0,0,1,1-2.051,4.733,4.733,0,0,1,2.824-.73h1.406v-.664A1.623,1.623,0,0,0,22.828,10a1.821,1.821,0,0,0-1.336-.449,2.107,2.107,0,0,0-1.3.391,1.151,1.151,0,0,0-.523.945H18.219a2,2,0,0,1,.449-1.223,3.066,3.066,0,0,1,1.219-.934,4.1,4.1,0,0,1,1.691-.344,3.342,3.342,0,0,1,2.289.73,2.635,2.635,0,0,1,.859,2.012v3.891a4.757,4.757,0,0,0,.3,1.852V17Zm-2.4-1.1a2.54,2.54,0,0,0,1.289-.352,2.127,2.127,0,0,0,.883-.914V12.9H22.148q-2.656,0-2.656,1.555a1.316,1.316,0,0,0,.453,1.063A1.742,1.742,0,0,0,21.109,15.9Zm7.25-7.352.047,1.063a3.08,3.08,0,0,1,2.531-1.219q2.68,0,2.7,3.023V17H32.2V11.406a1.946,1.946,0,0,0-.418-1.352A1.675,1.675,0,0,0,30.5,9.617a2.086,2.086,0,0,0-1.234.375,2.546,2.546,0,0,0-.828.984V17H26.992V8.547ZM37.781,6.5V8.547h1.578V9.664H37.781v5.249a1.173,1.173,0,0,0,.211.763.888.888,0,0,0,.719.254,3.5,3.5,0,0,0,.688-.094V17a4.215,4.215,0,0,1-1.109.155,1.8,1.8,0,0,1-1.461-.586,2.517,2.517,0,0,1-.492-1.664V9.664H34.8V8.547h1.539V6.5ZM42.617,17H41.172V8.547h1.445ZM41.055,6.3a.863.863,0,0,1,.215-.594.807.807,0,0,1,.637-.242.819.819,0,0,1,.641.242.854.854,0,0,1,.219.594.826.826,0,0,1-.219.586.834.834,0,0,1-.641.234.821.821,0,0,1-.637-.234A.834.834,0,0,1,41.055,6.3Zm5.836.2V8.547h1.578V9.664H46.891v5.249a1.173,1.173,0,0,0,.211.763.888.888,0,0,0,.719.254,3.5,3.5,0,0,0,.688-.094V17a4.215,4.215,0,0,1-1.109.155,1.8,1.8,0,0,1-1.461-.586,2.517,2.517,0,0,1-.492-1.664V9.664H43.906V8.547h1.539V6.5ZM55.375,17a3.036,3.036,0,0,1-.2-.891,3.225,3.225,0,0,1-2.406,1.047,2.984,2.984,0,0,1-2.051-.707,2.287,2.287,0,0,1-.8-1.793,2.39,2.39,0,0,1,1-2.051,4.733,4.733,0,0,1,2.824-.73h1.406v-.664A1.623,1.623,0,0,0,54.7,10a1.821,1.821,0,0,0-1.336-.449,2.107,2.107,0,0,0-1.3.391,1.151,1.151,0,0,0-.523.945H50.086a2,2,0,0,1,.449-1.223,3.066,3.066,0,0,1,1.219-.934,4.1,4.1,0,0,1,1.691-.344,3.342,3.342,0,0,1,2.289.73,2.635,2.635,0,0,1,.859,2.012v3.891a4.757,4.757,0,0,0,.3,1.852V17Zm-2.4-1.1a2.54,2.54,0,0,0,1.289-.352,2.127,2.127,0,0,0,.883-.914V12.9H54.016q-2.656,0-2.656,1.555a1.316,1.316,0,0,0,.453,1.063A1.742,1.742,0,0,0,52.977,15.9ZM60.82,6.5V8.547H62.4V9.664H60.82v5.249a1.173,1.173,0,0,0,.211.763.888.888,0,0,0,.719.254,3.5,3.5,0,0,0,.688-.094V17a4.215,4.215,0,0,1-1.109.155,1.8,1.8,0,0,1-1.461-.586,2.517,2.517,0,0,1-.492-1.664V9.664H57.836V8.547h1.539V6.5ZM65.656,17H64.211V8.547h1.445ZM64.094,6.3a.863.863,0,0,1,.215-.594.807.807,0,0,1,.637-.242.819.819,0,0,1,.641.242A.854.854,0,0,1,65.8,6.3a.826.826,0,0,1-.219.586.834.834,0,0,1-.641.234.821.821,0,0,1-.637-.234A.834.834,0,0,1,64.094,6.3Zm6.664,8.734,2.094-6.492h1.477L71.3,17H70.2L67.133,8.547h1.477ZM80.82,17a3.036,3.036,0,0,1-.2-.891,3.225,3.225,0,0,1-2.406,1.047,2.984,2.984,0,0,1-2.051-.707,2.288,2.288,0,0,1-.8-1.793,2.39,2.39,0,0,1,1-2.051,4.733,4.733,0,0,1,2.824-.73h1.406v-.664A1.623,1.623,0,0,0,80.141,10,1.821,1.821,0,0,0,78.8,9.555a2.108,2.108,0,0,0-1.3.391,1.151,1.151,0,0,0-.523.945H75.531a2,2,0,0,1,.449-1.223A3.066,3.066,0,0,1,77.2,8.734a4.1,4.1,0,0,1,1.691-.344,3.342,3.342,0,0,1,2.289.73,2.635,2.635,0,0,1,.859,2.012v3.891a4.757,4.757,0,0,0,.3,1.852V17Zm-2.4-1.1a2.54,2.54,0,0,0,1.289-.352,2.127,2.127,0,0,0,.883-.914V12.9H79.461q-2.656,0-2.656,1.555a1.316,1.316,0,0,0,.453,1.063A1.742,1.742,0,0,0,78.422,15.9Zm10.8-1.141a1.064,1.064,0,0,0-.441-.91,4.249,4.249,0,0,0-1.539-.559,7.277,7.277,0,0,1-1.742-.562,2.479,2.479,0,0,1-.953-.781,1.869,1.869,0,0,1-.309-1.078,2.193,2.193,0,0,1,.879-1.758,3.432,3.432,0,0,1,2.246-.719,3.532,3.532,0,0,1,2.332.742,2.357,2.357,0,0,1,.895,1.9H89.141a1.3,1.3,0,0,0-.5-1.023,1.888,1.888,0,0,0-1.27-.43,1.976,1.976,0,0,0-1.234.344,1.082,1.082,0,0,0-.445.9.877.877,0,0,0,.414.789,5.1,5.1,0,0,0,1.5.508,7.8,7.8,0,0,1,1.754.578,2.558,2.558,0,0,1,1,.809,1.988,1.988,0,0,1,.324,1.152,2.163,2.163,0,0,1-.906,1.816,3.8,3.8,0,0,1-2.352.684,4.257,4.257,0,0,1-1.8-.359,2.922,2.922,0,0,1-1.223-1,2.42,2.42,0,0,1-.441-1.395H85.4a1.5,1.5,0,0,0,.582,1.152,2.258,2.258,0,0,0,1.434.426,2.331,2.331,0,0,0,1.316-.332A1.02,1.02,0,0,0,89.227,14.758Z" transform="translate(642.77 1222.307)" fill="#12263f"/>
    <path id="Trazado_636853" data-name="Trazado 636853" d="M18.63,11.026,9.315,16.134,0,21.242A23.391,23.391,0,0,0,2.822,10.807C2.763,6.263.468,0,.468,0L9.548,5.513Z" transform="translate(542.131 1115.211) rotate(-45)" fill="#fd9927"/>
    <path id="Trazado_636859" data-name="Trazado 636859" d="M18.63,11.026,9.315,16.134,0,21.242A23.391,23.391,0,0,0,2.822,10.807C2.763,6.263.468,0,.468,0L9.548,5.513Z" transform="matrix(0.951, -0.309, 0.309, 0.951, 804.7, 998.75)" fill="#fd9927"/>
    <path id="Trazado_636867" data-name="Trazado 636867" d="M18.63,11.026,9.315,16.134,0,21.242A23.391,23.391,0,0,0,2.822,10.807C2.763,6.263.468,0,.468,0L9.548,5.513Z" transform="matrix(0.951, -0.309, 0.309, 0.951, 804.7, 1203.729)" fill="#fd9927"/>
    <path id="Trazado_636856" data-name="Trazado 636856" d="M18.63,11.026,9.315,16.134,0,21.242A23.391,23.391,0,0,0,2.822,10.807C2.763,6.263.468,0,.468,0L9.548,5.513Z" transform="translate(572.529 1079.746) rotate(-45)" fill="#fd9927"/>
    <path id="Trazado_636860" data-name="Trazado 636860" d="M18.63,11.026,9.315,16.134,0,21.242A23.391,23.391,0,0,0,2.822,10.807C2.763,6.263.468,0,.468,0L9.548,5.513Z" transform="matrix(0.951, -0.309, 0.309, 0.951, 834.76, 989.03)" fill="#fd9927"/>
    <path id="Trazado_636865" data-name="Trazado 636865" d="M18.63,11.026,9.315,16.134,0,21.242A23.391,23.391,0,0,0,2.822,10.807C2.763,6.263.468,0,.468,0L9.548,5.513Z" transform="matrix(0.951, -0.309, 0.309, 0.951, 834.76, 1194.011)" fill="#fd9927"/>
    <path id="Trazado_636854" data-name="Trazado 636854" d="M18.63,11.026,9.315,16.134,0,21.242A23.391,23.391,0,0,0,2.822,10.807C2.763,6.263.468,0,.468,0L9.548,5.513Z" transform="translate(582.435 1201.479) rotate(41)" fill="#fd9927"/>
    <path id="Trazado_636862" data-name="Trazado 636862" d="M18.63,11.026,9.315,16.134,0,21.242A23.391,23.391,0,0,0,2.822,10.807C2.763,6.263.468,0,.468,0L9.548,5.513Z" transform="translate(842.428 1056.123) rotate(4)" fill="#fd9927"/>
    <path id="Trazado_636864" data-name="Trazado 636864" d="M18.63,11.026,9.315,16.134,0,21.242A23.391,23.391,0,0,0,2.822,10.807C2.763,6.263.468,0,.468,0L9.548,5.513Z" transform="translate(842.428 1261.104) rotate(4)" fill="#fd9927"/>
    <path id="Trazado_636855" data-name="Trazado 636855" d="M18.63,11.026,9.315,16.134,0,21.242A23.391,23.391,0,0,0,2.822,10.807C2.763,6.263.468,0,.468,0L9.548,5.513Z" transform="translate(553.303 1170.637) rotate(41)" fill="#fd9927"/>
    <path id="Trazado_636863" data-name="Trazado 636863" d="M18.63,11.026,9.315,16.134,0,21.242A23.391,23.391,0,0,0,2.822,10.807C2.763,6.263.468,0,.468,0L9.548,5.513Z" transform="translate(811.831 1053.325) rotate(4)" fill="#fd9927"/>
    <path id="Trazado_636866" data-name="Trazado 636866" d="M18.63,11.026,9.315,16.134,0,21.242A23.391,23.391,0,0,0,2.822,10.807C2.763,6.263.468,0,.468,0L9.548,5.513Z" transform="translate(811.831 1258.306) rotate(4)" fill="#fd9927"/>
    <g id="Grupo_890139" data-name="Grupo 890139" transform="translate(590.662 1037.64)">
      <g id="Grupo_890131" data-name="Grupo 890131" transform="translate(0 -0.001)">
        <g id="Grupo_890129" data-name="Grupo 890129">
          <path id="Trazado_117746" data-name="Trazado 117746" d="M365.937,514.327l-1.377-.061a.8.8,0,0,1,.056-1.6l.059,0,1.261.035h.058a.811.811,0,0,1-.044,1.621Z" transform="translate(-347.403 -477.108)" fill="#fd9927"/>
          <path id="Trazado_117747" data-name="Trazado 117747" d="M352.8,512.279l-1.332-.347a.768.768,0,0,1,.374-1.489l.056.014,1.226.3.056.013a.779.779,0,0,1-.368,1.514Z" transform="translate(-338.193 -475.504)" fill="#fd9927"/>
          <path id="Trazado_117748" data-name="Trazado 117748" d="M340.412,507.5l-1.227-.619a.736.736,0,0,1,.652-1.32l.05.024,1.138.551.049.024a.748.748,0,1,1-.652,1.346Z" transform="translate(-329.55 -471.982)" fill="#fd9927"/>
          <path id="Trazado_117749" data-name="Trazado 117749" d="M329.334,500.216l-1.067-.86a.705.705,0,0,1,.875-1.106l.042.032,1,.779.041.032a.716.716,0,0,1-.88,1.13Z" transform="translate(-321.859 -466.712)" fill="#fd9927"/>
          <path id="Trazado_117750" data-name="Trazado 117750" d="M320.054,490.783l-.861-1.062a.669.669,0,0,1,1.031-.854l.032.038.819.97.032.038a.683.683,0,0,1-1.044.881Z" transform="translate(-315.464 -459.952)" fill="#fd9927"/>
          <path id="Trazado_117751" data-name="Trazado 117751" d="M312.976,479.61l-.619-1.218a.632.632,0,0,1,1.12-.584l.022.042.6,1.122.022.042a.645.645,0,0,1-1.139.608Z" transform="translate(-310.643 -451.991)" fill="#fd9927"/>
          <path id="Trazado_117752" data-name="Trazado 117752" d="M308.429,467.19l-.348-1.318a.594.594,0,0,1,1.146-.315l.012.043.35,1.226.012.043a.608.608,0,1,1-1.169.334Z" transform="translate(-307.627 -443.178)" fill="#fd9927"/>
          <path id="Trazado_117753" data-name="Trazado 117753" d="M306.61,454.069l-.066-1.359a.561.561,0,0,1,1.12-.064l0,.041.082,1.275,0,.041a.571.571,0,0,1-1.14.074Z" transform="translate(-306.543 -433.898)" fill="#fd9927"/>
          <path id="Trazado_117754" data-name="Trazado 117754" d="M307.017,440.838l.217-1.341a.531.531,0,0,1,1.051.161l-.006.039-.184,1.267-.006.039a.542.542,0,1,1-1.073-.156Z" transform="translate(-306.876 -424.568)" fill="#fd9927"/>
          <path id="Trazado_117755" data-name="Trazado 117755" d="M310.04,428.089l.494-1.264a.5.5,0,0,1,.939.358l-.013.035-.448,1.2-.013.035a.513.513,0,0,1-.961-.358Z" transform="translate(-309.013 -415.616)" fill="#fd9927"/>
          <path id="Trazado_117756" data-name="Trazado 117756" d="M315.739,416.383l.742-1.133a.479.479,0,0,1,.8.522l-.02.03-.7,1.078-.019.03a.483.483,0,0,1-.812-.525Z" transform="translate(-313.05 -407.428)" fill="#fd9927"/>
          <path id="Trazado_117757" data-name="Trazado 117757" d="M323.779,406.21l.96-.953a.47.47,0,0,1,.663.665l-.024.025-.907.909-.024.024a.473.473,0,0,1-.67-.668Z" transform="translate(-318.744 -400.354)" fill="#fd9927"/>
          <path id="Trazado_117758" data-name="Trazado 117758" d="M333.856,398.045l1.138-.732a.46.46,0,0,1,.5.772l-.029.019-1.077.7-.028.019a.463.463,0,0,1-.505-.777Z" transform="translate(-325.884 -394.73)" fill="#fd9927"/>
          <path id="Trazado_117759" data-name="Trazado 117759" d="M345.538,392.26l1.265-.476a.45.45,0,0,1,.319.841l-.031.012-1.2.459-.031.012a.453.453,0,1,1-.324-.847Z" transform="translate(-334.163 -390.816)" fill="#fd9927"/>
          <path id="Trazado_117760" data-name="Trazado 117760" d="M358.3,389.091l1.336-.206a.453.453,0,1,1,.138.9h0l-.033,0-1.272.188-.033,0a.449.449,0,0,1-.134-.888Z" transform="translate(-343.208 -388.764)" fill="#fd9927"/>
          <path id="Trazado_117761" data-name="Trazado 117761" d="M371.546,388.474l1.351.076a.463.463,0,1,1-.052.925h0l-.034,0-1.284-.079-.034,0a.46.46,0,0,1,.054-.918Z" transform="translate(-352.587 -388.474)" fill="#fd9927"/>
        </g>
        <g id="Grupo_890130" data-name="Grupo 890130" transform="translate(14.895 0)">
          <path id="Trazado_117746-2" data-name="Trazado 117746" d="M364.643,514.327l1.377-.061a.8.8,0,0,0-.056-1.6l-.059,0-1.261.035h-.058a.811.811,0,0,0,.044,1.621Z" transform="translate(-362.429 -477.107)" fill="#fd9927"/>
          <path id="Trazado_117747-2" data-name="Trazado 117747" d="M351.867,512.279l1.332-.347a.768.768,0,0,0-.374-1.489l-.056.014-1.226.3-.056.013a.779.779,0,0,0,.368,1.514Z" transform="translate(-345.724 -475.503)" fill="#fd9927"/>
          <path id="Trazado_117748-2" data-name="Trazado 117748" d="M339.865,507.5l1.227-.619a.736.736,0,0,0-.652-1.32l-.05.024-1.138.551-.049.024a.748.748,0,1,0,.652,1.346Z" transform="translate(-329.98 -471.982)" fill="#fd9927"/>
          <path id="Trazado_117749-2" data-name="Trazado 117749" d="M329.17,500.216l1.067-.86a.705.705,0,0,0-.875-1.106l-.042.032-1,.779-.041.032a.716.716,0,0,0,.88,1.13Z" transform="translate(-315.898 -466.712)" fill="#fd9927"/>
          <path id="Trazado_117750-2" data-name="Trazado 117750" d="M320.257,490.783l.861-1.062a.669.669,0,0,0-1.031-.854l-.032.038-.819.97-.032.038a.683.683,0,0,0,1.044.881Z" transform="translate(-304.1 -459.952)" fill="#fd9927"/>
          <path id="Trazado_117751-2" data-name="Trazado 117751" d="M313.509,479.61l.619-1.218a.632.632,0,0,0-1.12-.584l-.022.042-.6,1.122-.022.042a.645.645,0,0,0,1.139.608Z" transform="translate(-295.095 -451.991)" fill="#fd9927"/>
          <path id="Trazado_117752-2" data-name="Trazado 117752" d="M309.257,467.19l.348-1.318a.594.594,0,0,0-1.146-.315l-.012.043-.35,1.226-.012.043a.608.608,0,1,0,1.168.334Z" transform="translate(-289.312 -443.178)" fill="#fd9927"/>
          <path id="Trazado_117753-2" data-name="Trazado 117753" d="M307.684,454.069l.066-1.359a.561.561,0,0,0-1.12-.064l0,.041-.082,1.275,0,.041a.571.571,0,0,0,1.14.074Z" transform="translate(-287.004 -433.898)" fill="#fd9927"/>
          <path id="Trazado_117754-2" data-name="Trazado 117754" d="M308.283,440.838l-.217-1.341a.531.531,0,0,0-1.051.161l.006.039.184,1.267.006.039a.542.542,0,1,0,1.073-.156Z" transform="translate(-287.676 -424.568)" fill="#fd9927"/>
          <path id="Trazado_117755-2" data-name="Trazado 117755" d="M311.468,428.089l-.494-1.264a.5.5,0,0,0-.939.358l.013.035.448,1.2.013.035a.513.513,0,1,0,.961-.358Z" transform="translate(-291.747 -415.616)" fill="#fd9927"/>
          <path id="Trazado_117756-2" data-name="Trazado 117756" d="M317.283,416.383l-.742-1.133a.479.479,0,0,0-.8.522l.02.03.7,1.078.019.03a.483.483,0,0,0,.812-.525Z" transform="translate(-299.225 -407.428)" fill="#fd9927"/>
          <path id="Trazado_117757-2" data-name="Trazado 117757" d="M325.4,406.21l-.96-.953a.47.47,0,0,0-.663.665l.024.025.907.909.024.024a.473.473,0,0,0,.67-.668Z" transform="translate(-309.687 -400.354)" fill="#fd9927"/>
          <path id="Trazado_117758-2" data-name="Trazado 117758" d="M335.489,398.045l-1.138-.732a.46.46,0,0,0-.5.772l.029.019,1.077.7.028.019a.463.463,0,0,0,.505-.777Z" transform="translate(-322.714 -394.73)" fill="#fd9927"/>
          <path id="Trazado_117759-2" data-name="Trazado 117759" d="M347.118,392.26l-1.265-.476a.45.45,0,0,0-.319.841l.031.012,1.2.459.031.012a.453.453,0,1,0,.323-.847Z" transform="translate(-337.746 -390.815)" fill="#fd9927"/>
          <path id="Trazado_117760-2" data-name="Trazado 117760" d="M359.777,389.091l-1.336-.206a.453.453,0,1,0-.138.9h0l.033,0,1.272.188.033,0a.449.449,0,0,0,.134-.889Z" transform="translate(-354.121 -388.764)" fill="#fd9927"/>
          <path id="Trazado_117761-2" data-name="Trazado 117761" d="M372.849,388.474l-1.351.076a.463.463,0,1,0,.052.925h0l.034,0,1.284-.079.034,0a.46.46,0,0,0-.054-.918Z" transform="translate(-371.061 -388.474)" fill="#fd9927"/>
        </g>
      </g>
    </g>
    <g id="Grupo_890143" data-name="Grupo 890143" transform="translate(948.722 954.51)">
      <g id="Grupo_890131-2" data-name="Grupo 890131" transform="translate(0 0)">
        <g id="Grupo_890129-2" data-name="Grupo 890129">
          <path id="Trazado_117746-3" data-name="Trazado 117746" d="M365.937,514.327l-1.377-.061a.8.8,0,0,1,.056-1.6l.059,0,1.261.035h.058a.811.811,0,0,1-.044,1.621Z" transform="translate(-347.403 -477.108)" fill="#fd9927"/>
          <path id="Trazado_117747-3" data-name="Trazado 117747" d="M352.8,512.279l-1.332-.347a.768.768,0,0,1,.374-1.489l.056.014,1.226.3.056.013a.779.779,0,0,1-.368,1.514Z" transform="translate(-338.193 -475.504)" fill="#fd9927"/>
          <path id="Trazado_117748-3" data-name="Trazado 117748" d="M340.412,507.5l-1.227-.619a.736.736,0,0,1,.652-1.32l.05.024,1.138.551.049.024a.748.748,0,1,1-.652,1.346Z" transform="translate(-329.55 -471.982)" fill="#fd9927"/>
          <path id="Trazado_117749-3" data-name="Trazado 117749" d="M329.334,500.216l-1.067-.86a.705.705,0,0,1,.875-1.106l.042.032,1,.779.041.032a.716.716,0,0,1-.88,1.13Z" transform="translate(-321.859 -466.712)" fill="#fd9927"/>
          <path id="Trazado_117750-3" data-name="Trazado 117750" d="M320.054,490.783l-.861-1.062a.669.669,0,0,1,1.031-.854l.032.038.819.97.032.038a.683.683,0,0,1-1.044.881Z" transform="translate(-315.464 -459.952)" fill="#fd9927"/>
          <path id="Trazado_117751-3" data-name="Trazado 117751" d="M312.976,479.61l-.619-1.218a.632.632,0,0,1,1.12-.584l.022.042.6,1.122.022.042a.645.645,0,0,1-1.139.608Z" transform="translate(-310.643 -451.991)" fill="#fd9927"/>
          <path id="Trazado_117752-3" data-name="Trazado 117752" d="M308.429,467.19l-.348-1.318a.594.594,0,0,1,1.146-.315l.012.043.35,1.226.012.043a.608.608,0,1,1-1.169.334Z" transform="translate(-307.627 -443.178)" fill="#fd9927"/>
          <path id="Trazado_117753-3" data-name="Trazado 117753" d="M306.61,454.069l-.066-1.359a.561.561,0,0,1,1.12-.064l0,.041.082,1.275,0,.041a.571.571,0,0,1-1.14.074Z" transform="translate(-306.543 -433.898)" fill="#fd9927"/>
          <path id="Trazado_117754-3" data-name="Trazado 117754" d="M307.017,440.838l.217-1.341a.531.531,0,0,1,1.051.161l-.006.039-.184,1.267-.006.039a.542.542,0,1,1-1.073-.156Z" transform="translate(-306.876 -424.568)" fill="#fd9927"/>
          <path id="Trazado_117755-3" data-name="Trazado 117755" d="M310.04,428.089l.494-1.264a.5.5,0,0,1,.939.358l-.013.035-.448,1.2-.013.035a.513.513,0,0,1-.961-.358Z" transform="translate(-309.013 -415.616)" fill="#fd9927"/>
          <path id="Trazado_117756-3" data-name="Trazado 117756" d="M315.739,416.383l.742-1.133a.479.479,0,0,1,.8.522l-.02.03-.7,1.078-.019.03a.483.483,0,0,1-.812-.525Z" transform="translate(-313.05 -407.428)" fill="#fd9927"/>
          <path id="Trazado_117757-3" data-name="Trazado 117757" d="M323.779,406.21l.96-.953a.47.47,0,0,1,.663.665l-.024.025-.907.909-.024.024a.473.473,0,0,1-.67-.668Z" transform="translate(-318.744 -400.354)" fill="#fd9927"/>
          <path id="Trazado_117758-3" data-name="Trazado 117758" d="M333.856,398.045l1.138-.732a.46.46,0,0,1,.5.772l-.029.019-1.077.7-.028.019a.463.463,0,0,1-.505-.777Z" transform="translate(-325.884 -394.73)" fill="#fd9927"/>
          <path id="Trazado_117759-3" data-name="Trazado 117759" d="M345.538,392.26l1.265-.476a.45.45,0,0,1,.319.841l-.031.012-1.2.459-.031.012a.453.453,0,1,1-.324-.847Z" transform="translate(-334.163 -390.816)" fill="#fd9927"/>
          <path id="Trazado_117760-3" data-name="Trazado 117760" d="M358.3,389.091l1.336-.206a.453.453,0,1,1,.138.9h0l-.033,0-1.272.188-.033,0a.449.449,0,0,1-.134-.888Z" transform="translate(-343.208 -388.764)" fill="#fd9927"/>
          <path id="Trazado_117761-3" data-name="Trazado 117761" d="M371.546,388.474l1.351.076a.463.463,0,1,1-.052.925h0l-.034,0-1.284-.079-.034,0a.46.46,0,0,1,.054-.918Z" transform="translate(-352.587 -388.474)" fill="#fd9927"/>
        </g>
        <g id="Grupo_890130-2" data-name="Grupo 890130" transform="translate(14.895 0)">
          <path id="Trazado_117746-4" data-name="Trazado 117746" d="M364.643,514.327l1.377-.061a.8.8,0,0,0-.056-1.6l-.059,0-1.261.035h-.058a.811.811,0,0,0,.044,1.621Z" transform="translate(-362.429 -477.107)" fill="#fd9927"/>
          <path id="Trazado_117747-4" data-name="Trazado 117747" d="M351.867,512.279l1.332-.347a.768.768,0,0,0-.374-1.489l-.056.014-1.226.3-.056.013a.779.779,0,0,0,.368,1.514Z" transform="translate(-345.724 -475.503)" fill="#fd9927"/>
          <path id="Trazado_117748-4" data-name="Trazado 117748" d="M339.865,507.5l1.227-.619a.736.736,0,0,0-.652-1.32l-.05.024-1.138.551-.049.024a.748.748,0,1,0,.652,1.346Z" transform="translate(-329.98 -471.982)" fill="#fd9927"/>
          <path id="Trazado_117749-4" data-name="Trazado 117749" d="M329.17,500.216l1.067-.86a.705.705,0,0,0-.875-1.106l-.042.032-1,.779-.041.032a.716.716,0,0,0,.88,1.13Z" transform="translate(-315.898 -466.712)" fill="#fd9927"/>
          <path id="Trazado_117750-4" data-name="Trazado 117750" d="M320.257,490.783l.861-1.062a.669.669,0,0,0-1.031-.854l-.032.038-.819.97-.032.038a.683.683,0,0,0,1.044.881Z" transform="translate(-304.1 -459.952)" fill="#fd9927"/>
          <path id="Trazado_117751-4" data-name="Trazado 117751" d="M313.509,479.61l.619-1.218a.632.632,0,0,0-1.12-.584l-.022.042-.6,1.122-.022.042a.645.645,0,0,0,1.139.608Z" transform="translate(-295.095 -451.991)" fill="#fd9927"/>
          <path id="Trazado_117752-4" data-name="Trazado 117752" d="M309.257,467.19l.348-1.318a.594.594,0,0,0-1.146-.315l-.012.043-.35,1.226-.012.043a.608.608,0,1,0,1.168.334Z" transform="translate(-289.312 -443.178)" fill="#fd9927"/>
          <path id="Trazado_117753-4" data-name="Trazado 117753" d="M307.684,454.069l.066-1.359a.561.561,0,0,0-1.12-.064l0,.041-.082,1.275,0,.041a.571.571,0,0,0,1.14.074Z" transform="translate(-287.004 -433.898)" fill="#fd9927"/>
          <path id="Trazado_117754-4" data-name="Trazado 117754" d="M308.283,440.838l-.217-1.341a.531.531,0,0,0-1.051.161l.006.039.184,1.267.006.039a.542.542,0,1,0,1.073-.156Z" transform="translate(-287.676 -424.568)" fill="#fd9927"/>
          <path id="Trazado_117755-4" data-name="Trazado 117755" d="M311.468,428.089l-.494-1.264a.5.5,0,0,0-.939.358l.013.035.448,1.2.013.035a.513.513,0,1,0,.961-.358Z" transform="translate(-291.747 -415.616)" fill="#fd9927"/>
          <path id="Trazado_117756-4" data-name="Trazado 117756" d="M317.283,416.383l-.742-1.133a.479.479,0,0,0-.8.522l.02.03.7,1.078.019.03a.483.483,0,0,0,.812-.525Z" transform="translate(-299.225 -407.428)" fill="#fd9927"/>
          <path id="Trazado_117757-4" data-name="Trazado 117757" d="M325.4,406.21l-.96-.953a.47.47,0,0,0-.663.665l.024.025.907.909.024.024a.473.473,0,0,0,.67-.668Z" transform="translate(-309.687 -400.354)" fill="#fd9927"/>
          <path id="Trazado_117758-4" data-name="Trazado 117758" d="M335.489,398.045l-1.138-.732a.46.46,0,0,0-.5.772l.029.019,1.077.7.028.019a.463.463,0,0,0,.505-.777Z" transform="translate(-322.714 -394.73)" fill="#fd9927"/>
          <path id="Trazado_117759-4" data-name="Trazado 117759" d="M347.118,392.26l-1.265-.476a.45.45,0,0,0-.319.841l.031.012,1.2.459.031.012a.453.453,0,1,0,.323-.847Z" transform="translate(-337.746 -390.815)" fill="#fd9927"/>
          <path id="Trazado_117760-4" data-name="Trazado 117760" d="M359.777,389.091l-1.336-.206a.453.453,0,1,0-.138.9h0l.033,0,1.272.188.033,0a.449.449,0,0,0,.134-.889Z" transform="translate(-354.121 -388.764)" fill="#fd9927"/>
          <path id="Trazado_117761-4" data-name="Trazado 117761" d="M372.849,388.474l-1.351.076a.463.463,0,1,0,.052.925h0l.034,0,1.284-.079.034,0a.46.46,0,0,0-.054-.918Z" transform="translate(-371.061 -388.474)" fill="#fd9927"/>
        </g>
      </g>
    </g>
    <g id="Grupo_890148" data-name="Grupo 890148" transform="translate(948.722 1159.49)">
      <g id="Grupo_890131-3" data-name="Grupo 890131" transform="translate(0 0)">
        <g id="Grupo_890129-3" data-name="Grupo 890129">
          <path id="Trazado_117746-5" data-name="Trazado 117746" d="M365.937,514.327l-1.377-.061a.8.8,0,0,1,.056-1.6l.059,0,1.261.035h.058a.811.811,0,0,1-.044,1.621Z" transform="translate(-347.403 -477.108)" fill="#fd9927"/>
          <path id="Trazado_117747-5" data-name="Trazado 117747" d="M352.8,512.279l-1.332-.347a.768.768,0,0,1,.374-1.489l.056.014,1.226.3.056.013a.779.779,0,0,1-.368,1.514Z" transform="translate(-338.193 -475.504)" fill="#fd9927"/>
          <path id="Trazado_117748-5" data-name="Trazado 117748" d="M340.412,507.5l-1.227-.619a.736.736,0,0,1,.652-1.32l.05.024,1.138.551.049.024a.748.748,0,1,1-.652,1.346Z" transform="translate(-329.55 -471.982)" fill="#fd9927"/>
          <path id="Trazado_117749-5" data-name="Trazado 117749" d="M329.334,500.216l-1.067-.86a.705.705,0,0,1,.875-1.106l.042.032,1,.779.041.032a.716.716,0,0,1-.88,1.13Z" transform="translate(-321.859 -466.712)" fill="#fd9927"/>
          <path id="Trazado_117750-5" data-name="Trazado 117750" d="M320.054,490.783l-.861-1.062a.669.669,0,0,1,1.031-.854l.032.038.819.97.032.038a.683.683,0,0,1-1.044.881Z" transform="translate(-315.464 -459.952)" fill="#fd9927"/>
          <path id="Trazado_117751-5" data-name="Trazado 117751" d="M312.976,479.61l-.619-1.218a.632.632,0,0,1,1.12-.584l.022.042.6,1.122.022.042a.645.645,0,0,1-1.139.608Z" transform="translate(-310.643 -451.991)" fill="#fd9927"/>
          <path id="Trazado_117752-5" data-name="Trazado 117752" d="M308.429,467.19l-.348-1.318a.594.594,0,0,1,1.146-.315l.012.043.35,1.226.012.043a.608.608,0,1,1-1.169.334Z" transform="translate(-307.627 -443.178)" fill="#fd9927"/>
          <path id="Trazado_117753-5" data-name="Trazado 117753" d="M306.61,454.069l-.066-1.359a.561.561,0,0,1,1.12-.064l0,.041.082,1.275,0,.041a.571.571,0,0,1-1.14.074Z" transform="translate(-306.543 -433.898)" fill="#fd9927"/>
          <path id="Trazado_117754-5" data-name="Trazado 117754" d="M307.017,440.838l.217-1.341a.531.531,0,0,1,1.051.161l-.006.039-.184,1.267-.006.039a.542.542,0,1,1-1.073-.156Z" transform="translate(-306.876 -424.568)" fill="#fd9927"/>
          <path id="Trazado_117755-5" data-name="Trazado 117755" d="M310.04,428.089l.494-1.264a.5.5,0,0,1,.939.358l-.013.035-.448,1.2-.013.035a.513.513,0,0,1-.961-.358Z" transform="translate(-309.013 -415.616)" fill="#fd9927"/>
          <path id="Trazado_117756-5" data-name="Trazado 117756" d="M315.739,416.383l.742-1.133a.479.479,0,0,1,.8.522l-.02.03-.7,1.078-.019.03a.483.483,0,0,1-.812-.525Z" transform="translate(-313.05 -407.428)" fill="#fd9927"/>
          <path id="Trazado_117757-5" data-name="Trazado 117757" d="M323.779,406.21l.96-.953a.47.47,0,0,1,.663.665l-.024.025-.907.909-.024.024a.473.473,0,0,1-.67-.668Z" transform="translate(-318.744 -400.354)" fill="#fd9927"/>
          <path id="Trazado_117758-5" data-name="Trazado 117758" d="M333.856,398.045l1.138-.732a.46.46,0,0,1,.5.772l-.029.019-1.077.7-.028.019a.463.463,0,0,1-.505-.777Z" transform="translate(-325.884 -394.73)" fill="#fd9927"/>
          <path id="Trazado_117759-5" data-name="Trazado 117759" d="M345.538,392.26l1.265-.476a.45.45,0,0,1,.319.841l-.031.012-1.2.459-.031.012a.453.453,0,1,1-.324-.847Z" transform="translate(-334.163 -390.816)" fill="#fd9927"/>
          <path id="Trazado_117760-5" data-name="Trazado 117760" d="M358.3,389.091l1.336-.206a.453.453,0,1,1,.138.9h0l-.033,0-1.272.188-.033,0a.449.449,0,0,1-.134-.888Z" transform="translate(-343.208 -388.764)" fill="#fd9927"/>
          <path id="Trazado_117761-5" data-name="Trazado 117761" d="M371.546,388.474l1.351.076a.463.463,0,1,1-.052.925h0l-.034,0-1.284-.079-.034,0a.46.46,0,0,1,.054-.918Z" transform="translate(-352.587 -388.474)" fill="#fd9927"/>
        </g>
        <g id="Grupo_890130-3" data-name="Grupo 890130" transform="translate(14.895 0)">
          <path id="Trazado_117746-6" data-name="Trazado 117746" d="M364.643,514.327l1.377-.061a.8.8,0,0,0-.056-1.6l-.059,0-1.261.035h-.058a.811.811,0,0,0,.044,1.621Z" transform="translate(-362.429 -477.107)" fill="#fd9927"/>
          <path id="Trazado_117747-6" data-name="Trazado 117747" d="M351.867,512.279l1.332-.347a.768.768,0,0,0-.374-1.489l-.056.014-1.226.3-.056.013a.779.779,0,0,0,.368,1.514Z" transform="translate(-345.724 -475.503)" fill="#fd9927"/>
          <path id="Trazado_117748-6" data-name="Trazado 117748" d="M339.865,507.5l1.227-.619a.736.736,0,0,0-.652-1.32l-.05.024-1.138.551-.049.024a.748.748,0,1,0,.652,1.346Z" transform="translate(-329.98 -471.982)" fill="#fd9927"/>
          <path id="Trazado_117749-6" data-name="Trazado 117749" d="M329.17,500.216l1.067-.86a.705.705,0,0,0-.875-1.106l-.042.032-1,.779-.041.032a.716.716,0,0,0,.88,1.13Z" transform="translate(-315.898 -466.712)" fill="#fd9927"/>
          <path id="Trazado_117750-6" data-name="Trazado 117750" d="M320.257,490.783l.861-1.062a.669.669,0,0,0-1.031-.854l-.032.038-.819.97-.032.038a.683.683,0,0,0,1.044.881Z" transform="translate(-304.1 -459.952)" fill="#fd9927"/>
          <path id="Trazado_117751-6" data-name="Trazado 117751" d="M313.509,479.61l.619-1.218a.632.632,0,0,0-1.12-.584l-.022.042-.6,1.122-.022.042a.645.645,0,0,0,1.139.608Z" transform="translate(-295.095 -451.991)" fill="#fd9927"/>
          <path id="Trazado_117752-6" data-name="Trazado 117752" d="M309.257,467.19l.348-1.318a.594.594,0,0,0-1.146-.315l-.012.043-.35,1.226-.012.043a.608.608,0,1,0,1.168.334Z" transform="translate(-289.312 -443.178)" fill="#fd9927"/>
          <path id="Trazado_117753-6" data-name="Trazado 117753" d="M307.684,454.069l.066-1.359a.561.561,0,0,0-1.12-.064l0,.041-.082,1.275,0,.041a.571.571,0,0,0,1.14.074Z" transform="translate(-287.004 -433.898)" fill="#fd9927"/>
          <path id="Trazado_117754-6" data-name="Trazado 117754" d="M308.283,440.838l-.217-1.341a.531.531,0,0,0-1.051.161l.006.039.184,1.267.006.039a.542.542,0,1,0,1.073-.156Z" transform="translate(-287.676 -424.568)" fill="#fd9927"/>
          <path id="Trazado_117755-6" data-name="Trazado 117755" d="M311.468,428.089l-.494-1.264a.5.5,0,0,0-.939.358l.013.035.448,1.2.013.035a.513.513,0,1,0,.961-.358Z" transform="translate(-291.747 -415.616)" fill="#fd9927"/>
          <path id="Trazado_117756-6" data-name="Trazado 117756" d="M317.283,416.383l-.742-1.133a.479.479,0,0,0-.8.522l.02.03.7,1.078.019.03a.483.483,0,0,0,.812-.525Z" transform="translate(-299.225 -407.428)" fill="#fd9927"/>
          <path id="Trazado_117757-6" data-name="Trazado 117757" d="M325.4,406.21l-.96-.953a.47.47,0,0,0-.663.665l.024.025.907.909.024.024a.473.473,0,0,0,.67-.668Z" transform="translate(-309.687 -400.354)" fill="#fd9927"/>
          <path id="Trazado_117758-6" data-name="Trazado 117758" d="M335.489,398.045l-1.138-.732a.46.46,0,0,0-.5.772l.029.019,1.077.7.028.019a.463.463,0,0,0,.505-.777Z" transform="translate(-322.714 -394.73)" fill="#fd9927"/>
          <path id="Trazado_117759-6" data-name="Trazado 117759" d="M347.118,392.26l-1.265-.476a.45.45,0,0,0-.319.841l.031.012,1.2.459.031.012a.453.453,0,1,0,.323-.847Z" transform="translate(-337.746 -390.815)" fill="#fd9927"/>
          <path id="Trazado_117760-6" data-name="Trazado 117760" d="M359.777,389.091l-1.336-.206a.453.453,0,1,0-.138.9h0l.033,0,1.272.188.033,0a.449.449,0,0,0,.134-.889Z" transform="translate(-354.121 -388.764)" fill="#fd9927"/>
          <path id="Trazado_117761-6" data-name="Trazado 117761" d="M372.849,388.474l-1.351.076a.463.463,0,1,0,.052.925h0l.034,0,1.284-.079.034,0a.46.46,0,0,0-.054-.918Z" transform="translate(-371.061 -388.474)" fill="#fd9927"/>
        </g>
      </g>
    </g>
    <g id="Grupo_890144" data-name="Grupo 890144" transform="translate(951.147 1037.512)">
      <g id="Grupo_890131-4" data-name="Grupo 890131" transform="translate(0 0.001)">
        <g id="Grupo_890129-4" data-name="Grupo 890129">
          <path id="Trazado_117746-7" data-name="Trazado 117746" d="M365.937,514.327l-1.377-.061a.8.8,0,0,1,.056-1.6l.059,0,1.261.035h.058a.811.811,0,0,1-.044,1.621Z" transform="translate(-347.403 -477.108)" fill="#fd9927"/>
          <path id="Trazado_117747-7" data-name="Trazado 117747" d="M352.8,512.279l-1.332-.347a.768.768,0,0,1,.374-1.489l.056.014,1.226.3.056.013a.779.779,0,0,1-.368,1.514Z" transform="translate(-338.193 -475.504)" fill="#fd9927"/>
          <path id="Trazado_117748-7" data-name="Trazado 117748" d="M340.412,507.5l-1.227-.619a.736.736,0,0,1,.652-1.32l.05.024,1.138.551.049.024a.748.748,0,1,1-.652,1.346Z" transform="translate(-329.55 -471.982)" fill="#fd9927"/>
          <path id="Trazado_117749-7" data-name="Trazado 117749" d="M329.334,500.216l-1.067-.86a.705.705,0,0,1,.875-1.106l.042.032,1,.779.041.032a.716.716,0,0,1-.88,1.13Z" transform="translate(-321.859 -466.712)" fill="#fd9927"/>
          <path id="Trazado_117750-7" data-name="Trazado 117750" d="M320.054,490.783l-.861-1.062a.669.669,0,0,1,1.031-.854l.032.038.819.97.032.038a.683.683,0,0,1-1.044.881Z" transform="translate(-315.464 -459.952)" fill="#fd9927"/>
          <path id="Trazado_117751-7" data-name="Trazado 117751" d="M312.976,479.61l-.619-1.218a.632.632,0,0,1,1.12-.584l.022.042.6,1.122.022.042a.645.645,0,0,1-1.139.608Z" transform="translate(-310.643 -451.991)" fill="#fd9927"/>
          <path id="Trazado_117752-7" data-name="Trazado 117752" d="M308.429,467.19l-.348-1.318a.594.594,0,0,1,1.146-.315l.012.043.35,1.226.012.043a.608.608,0,1,1-1.169.334Z" transform="translate(-307.627 -443.178)" fill="#fd9927"/>
          <path id="Trazado_117753-7" data-name="Trazado 117753" d="M306.61,454.069l-.066-1.359a.561.561,0,0,1,1.12-.064l0,.041.082,1.275,0,.041a.571.571,0,0,1-1.14.074Z" transform="translate(-306.543 -433.898)" fill="#fd9927"/>
          <path id="Trazado_117754-7" data-name="Trazado 117754" d="M307.017,440.838l.217-1.341a.531.531,0,0,1,1.051.161l-.006.039-.184,1.267-.006.039a.542.542,0,1,1-1.073-.156Z" transform="translate(-306.876 -424.568)" fill="#fd9927"/>
          <path id="Trazado_117755-7" data-name="Trazado 117755" d="M310.04,428.089l.494-1.264a.5.5,0,0,1,.939.358l-.013.035-.448,1.2-.013.035a.513.513,0,0,1-.961-.358Z" transform="translate(-309.013 -415.616)" fill="#fd9927"/>
          <path id="Trazado_117756-7" data-name="Trazado 117756" d="M315.739,416.383l.742-1.133a.479.479,0,0,1,.8.522l-.02.03-.7,1.078-.019.03a.483.483,0,0,1-.812-.525Z" transform="translate(-313.05 -407.428)" fill="#fd9927"/>
          <path id="Trazado_117757-7" data-name="Trazado 117757" d="M323.779,406.21l.96-.953a.47.47,0,0,1,.663.665l-.024.025-.907.909-.024.024a.473.473,0,0,1-.67-.668Z" transform="translate(-318.744 -400.354)" fill="#fd9927"/>
          <path id="Trazado_117758-7" data-name="Trazado 117758" d="M333.856,398.045l1.138-.732a.46.46,0,0,1,.5.772l-.029.019-1.077.7-.028.019a.463.463,0,0,1-.505-.777Z" transform="translate(-325.884 -394.73)" fill="#fd9927"/>
          <path id="Trazado_117759-7" data-name="Trazado 117759" d="M345.538,392.26l1.265-.476a.45.45,0,0,1,.319.841l-.031.012-1.2.459-.031.012a.453.453,0,1,1-.324-.847Z" transform="translate(-334.163 -390.816)" fill="#fd9927"/>
          <path id="Trazado_117760-7" data-name="Trazado 117760" d="M358.3,389.091l1.336-.206a.453.453,0,1,1,.138.9h0l-.033,0-1.272.188-.033,0a.449.449,0,0,1-.134-.888Z" transform="translate(-343.208 -388.764)" fill="#fd9927"/>
          <path id="Trazado_117761-7" data-name="Trazado 117761" d="M371.546,388.474l1.351.076a.463.463,0,1,1-.052.925h0l-.034,0-1.284-.079-.034,0a.46.46,0,0,1,.054-.918Z" transform="translate(-352.587 -388.474)" fill="#fd9927"/>
        </g>
        <g id="Grupo_890130-4" data-name="Grupo 890130" transform="translate(14.895 0)">
          <path id="Trazado_117746-8" data-name="Trazado 117746" d="M364.643,514.327l1.377-.061a.8.8,0,0,0-.056-1.6l-.059,0-1.261.035h-.058a.811.811,0,0,0,.044,1.621Z" transform="translate(-362.429 -477.107)" fill="#fd9927"/>
          <path id="Trazado_117747-8" data-name="Trazado 117747" d="M351.867,512.279l1.332-.347a.768.768,0,0,0-.374-1.489l-.056.014-1.226.3-.056.013a.779.779,0,0,0,.368,1.514Z" transform="translate(-345.724 -475.503)" fill="#fd9927"/>
          <path id="Trazado_117748-8" data-name="Trazado 117748" d="M339.865,507.5l1.227-.619a.736.736,0,0,0-.652-1.32l-.05.024-1.138.551-.049.024a.748.748,0,1,0,.652,1.346Z" transform="translate(-329.98 -471.982)" fill="#fd9927"/>
          <path id="Trazado_117749-8" data-name="Trazado 117749" d="M329.17,500.216l1.067-.86a.705.705,0,0,0-.875-1.106l-.042.032-1,.779-.041.032a.716.716,0,0,0,.88,1.13Z" transform="translate(-315.898 -466.712)" fill="#fd9927"/>
          <path id="Trazado_117750-8" data-name="Trazado 117750" d="M320.257,490.783l.861-1.062a.669.669,0,0,0-1.031-.854l-.032.038-.819.97-.032.038a.683.683,0,0,0,1.044.881Z" transform="translate(-304.1 -459.952)" fill="#fd9927"/>
          <path id="Trazado_117751-8" data-name="Trazado 117751" d="M313.509,479.61l.619-1.218a.632.632,0,0,0-1.12-.584l-.022.042-.6,1.122-.022.042a.645.645,0,0,0,1.139.608Z" transform="translate(-295.095 -451.991)" fill="#fd9927"/>
          <path id="Trazado_117752-8" data-name="Trazado 117752" d="M309.257,467.19l.348-1.318a.594.594,0,0,0-1.146-.315l-.012.043-.35,1.226-.012.043a.608.608,0,1,0,1.168.334Z" transform="translate(-289.312 -443.178)" fill="#fd9927"/>
          <path id="Trazado_117753-8" data-name="Trazado 117753" d="M307.684,454.069l.066-1.359a.561.561,0,0,0-1.12-.064l0,.041-.082,1.275,0,.041a.571.571,0,0,0,1.14.074Z" transform="translate(-287.004 -433.898)" fill="#fd9927"/>
          <path id="Trazado_117754-8" data-name="Trazado 117754" d="M308.283,440.838l-.217-1.341a.531.531,0,0,0-1.051.161l.006.039.184,1.267.006.039a.542.542,0,1,0,1.073-.156Z" transform="translate(-287.676 -424.568)" fill="#fd9927"/>
          <path id="Trazado_117755-8" data-name="Trazado 117755" d="M311.468,428.089l-.494-1.264a.5.5,0,0,0-.939.358l.013.035.448,1.2.013.035a.513.513,0,1,0,.961-.358Z" transform="translate(-291.747 -415.616)" fill="#fd9927"/>
          <path id="Trazado_117756-8" data-name="Trazado 117756" d="M317.283,416.383l-.742-1.133a.479.479,0,0,0-.8.522l.02.03.7,1.078.019.03a.483.483,0,0,0,.812-.525Z" transform="translate(-299.225 -407.428)" fill="#fd9927"/>
          <path id="Trazado_117757-8" data-name="Trazado 117757" d="M325.4,406.21l-.96-.953a.47.47,0,0,0-.663.665l.024.025.907.909.024.024a.473.473,0,0,0,.67-.668Z" transform="translate(-309.687 -400.354)" fill="#fd9927"/>
          <path id="Trazado_117758-8" data-name="Trazado 117758" d="M335.489,398.045l-1.138-.732a.46.46,0,0,0-.5.772l.029.019,1.077.7.028.019a.463.463,0,0,0,.505-.777Z" transform="translate(-322.714 -394.73)" fill="#fd9927"/>
          <path id="Trazado_117759-8" data-name="Trazado 117759" d="M347.118,392.26l-1.265-.476a.45.45,0,0,0-.319.841l.031.012,1.2.459.031.012a.453.453,0,1,0,.323-.847Z" transform="translate(-337.746 -390.815)" fill="#fd9927"/>
          <path id="Trazado_117760-8" data-name="Trazado 117760" d="M359.777,389.091l-1.336-.206a.453.453,0,1,0-.138.9h0l.033,0,1.272.188.033,0a.449.449,0,0,0,.134-.889Z" transform="translate(-354.121 -388.764)" fill="#fd9927"/>
          <path id="Trazado_117761-8" data-name="Trazado 117761" d="M372.849,388.474l-1.351.076a.463.463,0,1,0,.052.925h0l.034,0,1.284-.079.034,0a.46.46,0,0,0-.054-.918Z" transform="translate(-371.061 -388.474)" fill="#fd9927"/>
        </g>
      </g>
    </g>
    <g id="Grupo_890152" data-name="Grupo 890152" transform="translate(951.147 1242.492)">
      <g id="Grupo_890131-5" data-name="Grupo 890131" transform="translate(0 0.001)">
        <g id="Grupo_890129-5" data-name="Grupo 890129">
          <path id="Trazado_117746-9" data-name="Trazado 117746" d="M365.937,514.327l-1.377-.061a.8.8,0,0,1,.056-1.6l.059,0,1.261.035h.058a.811.811,0,0,1-.044,1.621Z" transform="translate(-347.403 -477.108)" fill="#fd9927"/>
          <path id="Trazado_117747-9" data-name="Trazado 117747" d="M352.8,512.279l-1.332-.347a.768.768,0,0,1,.374-1.489l.056.014,1.226.3.056.013a.779.779,0,0,1-.368,1.514Z" transform="translate(-338.193 -475.504)" fill="#fd9927"/>
          <path id="Trazado_117748-9" data-name="Trazado 117748" d="M340.412,507.5l-1.227-.619a.736.736,0,0,1,.652-1.32l.05.024,1.138.551.049.024a.748.748,0,1,1-.652,1.346Z" transform="translate(-329.55 -471.982)" fill="#fd9927"/>
          <path id="Trazado_117749-9" data-name="Trazado 117749" d="M329.334,500.216l-1.067-.86a.705.705,0,0,1,.875-1.106l.042.032,1,.779.041.032a.716.716,0,0,1-.88,1.13Z" transform="translate(-321.859 -466.712)" fill="#fd9927"/>
          <path id="Trazado_117750-9" data-name="Trazado 117750" d="M320.054,490.783l-.861-1.062a.669.669,0,0,1,1.031-.854l.032.038.819.97.032.038a.683.683,0,0,1-1.044.881Z" transform="translate(-315.464 -459.952)" fill="#fd9927"/>
          <path id="Trazado_117751-9" data-name="Trazado 117751" d="M312.976,479.61l-.619-1.218a.632.632,0,0,1,1.12-.584l.022.042.6,1.122.022.042a.645.645,0,0,1-1.139.608Z" transform="translate(-310.643 -451.991)" fill="#fd9927"/>
          <path id="Trazado_117752-9" data-name="Trazado 117752" d="M308.429,467.19l-.348-1.318a.594.594,0,0,1,1.146-.315l.012.043.35,1.226.012.043a.608.608,0,1,1-1.169.334Z" transform="translate(-307.627 -443.178)" fill="#fd9927"/>
          <path id="Trazado_117753-9" data-name="Trazado 117753" d="M306.61,454.069l-.066-1.359a.561.561,0,0,1,1.12-.064l0,.041.082,1.275,0,.041a.571.571,0,0,1-1.14.074Z" transform="translate(-306.543 -433.898)" fill="#fd9927"/>
          <path id="Trazado_117754-9" data-name="Trazado 117754" d="M307.017,440.838l.217-1.341a.531.531,0,0,1,1.051.161l-.006.039-.184,1.267-.006.039a.542.542,0,1,1-1.073-.156Z" transform="translate(-306.876 -424.568)" fill="#fd9927"/>
          <path id="Trazado_117755-9" data-name="Trazado 117755" d="M310.04,428.089l.494-1.264a.5.5,0,0,1,.939.358l-.013.035-.448,1.2-.013.035a.513.513,0,0,1-.961-.358Z" transform="translate(-309.013 -415.616)" fill="#fd9927"/>
          <path id="Trazado_117756-9" data-name="Trazado 117756" d="M315.739,416.383l.742-1.133a.479.479,0,0,1,.8.522l-.02.03-.7,1.078-.019.03a.483.483,0,0,1-.812-.525Z" transform="translate(-313.05 -407.428)" fill="#fd9927"/>
          <path id="Trazado_117757-9" data-name="Trazado 117757" d="M323.779,406.21l.96-.953a.47.47,0,0,1,.663.665l-.024.025-.907.909-.024.024a.473.473,0,0,1-.67-.668Z" transform="translate(-318.744 -400.354)" fill="#fd9927"/>
          <path id="Trazado_117758-9" data-name="Trazado 117758" d="M333.856,398.045l1.138-.732a.46.46,0,0,1,.5.772l-.029.019-1.077.7-.028.019a.463.463,0,0,1-.505-.777Z" transform="translate(-325.884 -394.73)" fill="#fd9927"/>
          <path id="Trazado_117759-9" data-name="Trazado 117759" d="M345.538,392.26l1.265-.476a.45.45,0,0,1,.319.841l-.031.012-1.2.459-.031.012a.453.453,0,1,1-.324-.847Z" transform="translate(-334.163 -390.816)" fill="#fd9927"/>
          <path id="Trazado_117760-9" data-name="Trazado 117760" d="M358.3,389.091l1.336-.206a.453.453,0,1,1,.138.9h0l-.033,0-1.272.188-.033,0a.449.449,0,0,1-.134-.888Z" transform="translate(-343.208 -388.764)" fill="#fd9927"/>
          <path id="Trazado_117761-9" data-name="Trazado 117761" d="M371.546,388.474l1.351.076a.463.463,0,1,1-.052.925h0l-.034,0-1.284-.079-.034,0a.46.46,0,0,1,.054-.918Z" transform="translate(-352.587 -388.474)" fill="#fd9927"/>
        </g>
        <g id="Grupo_890130-5" data-name="Grupo 890130" transform="translate(14.895 0)">
          <path id="Trazado_117746-10" data-name="Trazado 117746" d="M364.643,514.327l1.377-.061a.8.8,0,0,0-.056-1.6l-.059,0-1.261.035h-.058a.811.811,0,0,0,.044,1.621Z" transform="translate(-362.429 -477.107)" fill="#fd9927"/>
          <path id="Trazado_117747-10" data-name="Trazado 117747" d="M351.867,512.279l1.332-.347a.768.768,0,0,0-.374-1.489l-.056.014-1.226.3-.056.013a.779.779,0,0,0,.368,1.514Z" transform="translate(-345.724 -475.503)" fill="#fd9927"/>
          <path id="Trazado_117748-10" data-name="Trazado 117748" d="M339.865,507.5l1.227-.619a.736.736,0,0,0-.652-1.32l-.05.024-1.138.551-.049.024a.748.748,0,1,0,.652,1.346Z" transform="translate(-329.98 -471.982)" fill="#fd9927"/>
          <path id="Trazado_117749-10" data-name="Trazado 117749" d="M329.17,500.216l1.067-.86a.705.705,0,0,0-.875-1.106l-.042.032-1,.779-.041.032a.716.716,0,0,0,.88,1.13Z" transform="translate(-315.898 -466.712)" fill="#fd9927"/>
          <path id="Trazado_117750-10" data-name="Trazado 117750" d="M320.257,490.783l.861-1.062a.669.669,0,0,0-1.031-.854l-.032.038-.819.97-.032.038a.683.683,0,0,0,1.044.881Z" transform="translate(-304.1 -459.952)" fill="#fd9927"/>
          <path id="Trazado_117751-10" data-name="Trazado 117751" d="M313.509,479.61l.619-1.218a.632.632,0,0,0-1.12-.584l-.022.042-.6,1.122-.022.042a.645.645,0,0,0,1.139.608Z" transform="translate(-295.095 -451.991)" fill="#fd9927"/>
          <path id="Trazado_117752-10" data-name="Trazado 117752" d="M309.257,467.19l.348-1.318a.594.594,0,0,0-1.146-.315l-.012.043-.35,1.226-.012.043a.608.608,0,1,0,1.168.334Z" transform="translate(-289.312 -443.178)" fill="#fd9927"/>
          <path id="Trazado_117753-10" data-name="Trazado 117753" d="M307.684,454.069l.066-1.359a.561.561,0,0,0-1.12-.064l0,.041-.082,1.275,0,.041a.571.571,0,0,0,1.14.074Z" transform="translate(-287.004 -433.898)" fill="#fd9927"/>
          <path id="Trazado_117754-10" data-name="Trazado 117754" d="M308.283,440.838l-.217-1.341a.531.531,0,0,0-1.051.161l.006.039.184,1.267.006.039a.542.542,0,1,0,1.073-.156Z" transform="translate(-287.676 -424.568)" fill="#fd9927"/>
          <path id="Trazado_117755-10" data-name="Trazado 117755" d="M311.468,428.089l-.494-1.264a.5.5,0,0,0-.939.358l.013.035.448,1.2.013.035a.513.513,0,1,0,.961-.358Z" transform="translate(-291.747 -415.616)" fill="#fd9927"/>
          <path id="Trazado_117756-10" data-name="Trazado 117756" d="M317.283,416.383l-.742-1.133a.479.479,0,0,0-.8.522l.02.03.7,1.078.019.03a.483.483,0,0,0,.812-.525Z" transform="translate(-299.225 -407.428)" fill="#fd9927"/>
          <path id="Trazado_117757-10" data-name="Trazado 117757" d="M325.4,406.21l-.96-.953a.47.47,0,0,0-.663.665l.024.025.907.909.024.024a.473.473,0,0,0,.67-.668Z" transform="translate(-309.687 -400.354)" fill="#fd9927"/>
          <path id="Trazado_117758-10" data-name="Trazado 117758" d="M335.489,398.045l-1.138-.732a.46.46,0,0,0-.5.772l.029.019,1.077.7.028.019a.463.463,0,0,0,.505-.777Z" transform="translate(-322.714 -394.73)" fill="#fd9927"/>
          <path id="Trazado_117759-10" data-name="Trazado 117759" d="M347.118,392.26l-1.265-.476a.45.45,0,0,0-.319.841l.031.012,1.2.459.031.012a.453.453,0,1,0,.323-.847Z" transform="translate(-337.746 -390.815)" fill="#fd9927"/>
          <path id="Trazado_117760-10" data-name="Trazado 117760" d="M359.777,389.091l-1.336-.206a.453.453,0,1,0-.138.9h0l.033,0,1.272.188.033,0a.449.449,0,0,0,.134-.889Z" transform="translate(-354.121 -388.764)" fill="#fd9927"/>
          <path id="Trazado_117761-10" data-name="Trazado 117761" d="M372.849,388.474l-1.351.076a.463.463,0,1,0,.052.925h0l.034,0,1.284-.079.034,0a.46.46,0,0,0-.054-.918Z" transform="translate(-371.061 -388.474)" fill="#fd9927"/>
        </g>
      </g>
    </g>
    <g id="Grupo_890141" data-name="Grupo 890141" transform="translate(590.662 1216.809)">
      <g id="Grupo_890131-6" data-name="Grupo 890131" transform="translate(0 0)">
        <g id="Grupo_890129-6" data-name="Grupo 890129">
          <path id="Trazado_117746-11" data-name="Trazado 117746" d="M365.937,514.327l-1.377-.061a.8.8,0,0,1,.056-1.6l.059,0,1.261.035h.058a.811.811,0,0,1-.044,1.621Z" transform="translate(-347.403 -477.108)" fill="#fd9927"/>
          <path id="Trazado_117747-11" data-name="Trazado 117747" d="M352.8,512.279l-1.332-.347a.768.768,0,0,1,.374-1.489l.056.014,1.226.3.056.013a.779.779,0,0,1-.368,1.514Z" transform="translate(-338.193 -475.504)" fill="#fd9927"/>
          <path id="Trazado_117748-11" data-name="Trazado 117748" d="M340.412,507.5l-1.227-.619a.736.736,0,0,1,.652-1.32l.05.024,1.138.551.049.024a.748.748,0,1,1-.652,1.346Z" transform="translate(-329.55 -471.982)" fill="#fd9927"/>
          <path id="Trazado_117749-11" data-name="Trazado 117749" d="M329.334,500.216l-1.067-.86a.705.705,0,0,1,.875-1.106l.042.032,1,.779.041.032a.716.716,0,0,1-.88,1.13Z" transform="translate(-321.859 -466.712)" fill="#fd9927"/>
          <path id="Trazado_117750-11" data-name="Trazado 117750" d="M320.054,490.783l-.861-1.062a.669.669,0,0,1,1.031-.854l.032.038.819.97.032.038a.683.683,0,0,1-1.044.881Z" transform="translate(-315.464 -459.952)" fill="#fd9927"/>
          <path id="Trazado_117751-11" data-name="Trazado 117751" d="M312.976,479.61l-.619-1.218a.632.632,0,0,1,1.12-.584l.022.042.6,1.122.022.042a.645.645,0,0,1-1.139.608Z" transform="translate(-310.643 -451.991)" fill="#fd9927"/>
          <path id="Trazado_117752-11" data-name="Trazado 117752" d="M308.429,467.19l-.348-1.318a.594.594,0,0,1,1.146-.315l.012.043.35,1.226.012.043a.608.608,0,1,1-1.169.334Z" transform="translate(-307.627 -443.178)" fill="#fd9927"/>
          <path id="Trazado_117753-11" data-name="Trazado 117753" d="M306.61,454.069l-.066-1.359a.561.561,0,0,1,1.12-.064l0,.041.082,1.275,0,.041a.571.571,0,0,1-1.14.074Z" transform="translate(-306.543 -433.898)" fill="#fd9927"/>
          <path id="Trazado_117754-11" data-name="Trazado 117754" d="M307.017,440.838l.217-1.341a.531.531,0,0,1,1.051.161l-.006.039-.184,1.267-.006.039a.542.542,0,1,1-1.073-.156Z" transform="translate(-306.876 -424.568)" fill="#fd9927"/>
          <path id="Trazado_117755-11" data-name="Trazado 117755" d="M310.04,428.089l.494-1.264a.5.5,0,0,1,.939.358l-.013.035-.448,1.2-.013.035a.513.513,0,0,1-.961-.358Z" transform="translate(-309.013 -415.616)" fill="#fd9927"/>
          <path id="Trazado_117756-11" data-name="Trazado 117756" d="M315.739,416.383l.742-1.133a.479.479,0,0,1,.8.522l-.02.03-.7,1.078-.019.03a.483.483,0,0,1-.812-.525Z" transform="translate(-313.05 -407.428)" fill="#fd9927"/>
          <path id="Trazado_117757-11" data-name="Trazado 117757" d="M323.779,406.21l.96-.953a.47.47,0,0,1,.663.665l-.024.025-.907.909-.024.024a.473.473,0,0,1-.67-.668Z" transform="translate(-318.744 -400.354)" fill="#fd9927"/>
          <path id="Trazado_117758-11" data-name="Trazado 117758" d="M333.856,398.045l1.138-.732a.46.46,0,0,1,.5.772l-.029.019-1.077.7-.028.019a.463.463,0,0,1-.505-.777Z" transform="translate(-325.884 -394.73)" fill="#fd9927"/>
          <path id="Trazado_117759-11" data-name="Trazado 117759" d="M345.538,392.26l1.265-.476a.45.45,0,0,1,.319.841l-.031.012-1.2.459-.031.012a.453.453,0,1,1-.324-.847Z" transform="translate(-334.163 -390.816)" fill="#fd9927"/>
          <path id="Trazado_117760-11" data-name="Trazado 117760" d="M358.3,389.091l1.336-.206a.453.453,0,1,1,.138.9h0l-.033,0-1.272.188-.033,0a.449.449,0,0,1-.134-.888Z" transform="translate(-343.208 -388.764)" fill="#fd9927"/>
          <path id="Trazado_117761-11" data-name="Trazado 117761" d="M371.546,388.474l1.351.076a.463.463,0,1,1-.052.925h0l-.034,0-1.284-.079-.034,0a.46.46,0,0,1,.054-.918Z" transform="translate(-352.587 -388.474)" fill="#fd9927"/>
        </g>
        <g id="Grupo_890130-6" data-name="Grupo 890130" transform="translate(14.895 0)">
          <path id="Trazado_117746-12" data-name="Trazado 117746" d="M364.643,514.327l1.377-.061a.8.8,0,0,0-.056-1.6l-.059,0-1.261.035h-.058a.811.811,0,0,0,.044,1.621Z" transform="translate(-362.429 -477.107)" fill="#fd9927"/>
          <path id="Trazado_117747-12" data-name="Trazado 117747" d="M351.867,512.279l1.332-.347a.768.768,0,0,0-.374-1.489l-.056.014-1.226.3-.056.013a.779.779,0,0,0,.368,1.514Z" transform="translate(-345.724 -475.503)" fill="#fd9927"/>
          <path id="Trazado_117748-12" data-name="Trazado 117748" d="M339.865,507.5l1.227-.619a.736.736,0,0,0-.652-1.32l-.05.024-1.138.551-.049.024a.748.748,0,1,0,.652,1.346Z" transform="translate(-329.98 -471.982)" fill="#fd9927"/>
          <path id="Trazado_117749-12" data-name="Trazado 117749" d="M329.17,500.216l1.067-.86a.705.705,0,0,0-.875-1.106l-.042.032-1,.779-.041.032a.716.716,0,0,0,.88,1.13Z" transform="translate(-315.898 -466.712)" fill="#fd9927"/>
          <path id="Trazado_117750-12" data-name="Trazado 117750" d="M320.257,490.783l.861-1.062a.669.669,0,0,0-1.031-.854l-.032.038-.819.97-.032.038a.683.683,0,0,0,1.044.881Z" transform="translate(-304.1 -459.952)" fill="#fd9927"/>
          <path id="Trazado_117751-12" data-name="Trazado 117751" d="M313.509,479.61l.619-1.218a.632.632,0,0,0-1.12-.584l-.022.042-.6,1.122-.022.042a.645.645,0,0,0,1.139.608Z" transform="translate(-295.095 -451.991)" fill="#fd9927"/>
          <path id="Trazado_117752-12" data-name="Trazado 117752" d="M309.257,467.19l.348-1.318a.594.594,0,0,0-1.146-.315l-.012.043-.35,1.226-.012.043a.608.608,0,1,0,1.168.334Z" transform="translate(-289.312 -443.178)" fill="#fd9927"/>
          <path id="Trazado_117753-12" data-name="Trazado 117753" d="M307.684,454.069l.066-1.359a.561.561,0,0,0-1.12-.064l0,.041-.082,1.275,0,.041a.571.571,0,0,0,1.14.074Z" transform="translate(-287.004 -433.898)" fill="#fd9927"/>
          <path id="Trazado_117754-12" data-name="Trazado 117754" d="M308.283,440.838l-.217-1.341a.531.531,0,0,0-1.051.161l.006.039.184,1.267.006.039a.542.542,0,1,0,1.073-.156Z" transform="translate(-287.676 -424.568)" fill="#fd9927"/>
          <path id="Trazado_117755-12" data-name="Trazado 117755" d="M311.468,428.089l-.494-1.264a.5.5,0,0,0-.939.358l.013.035.448,1.2.013.035a.513.513,0,1,0,.961-.358Z" transform="translate(-291.747 -415.616)" fill="#fd9927"/>
          <path id="Trazado_117756-12" data-name="Trazado 117756" d="M317.283,416.383l-.742-1.133a.479.479,0,0,0-.8.522l.02.03.7,1.078.019.03a.483.483,0,0,0,.812-.525Z" transform="translate(-299.225 -407.428)" fill="#fd9927"/>
          <path id="Trazado_117757-12" data-name="Trazado 117757" d="M325.4,406.21l-.96-.953a.47.47,0,0,0-.663.665l.024.025.907.909.024.024a.473.473,0,0,0,.67-.668Z" transform="translate(-309.687 -400.354)" fill="#fd9927"/>
          <path id="Trazado_117758-12" data-name="Trazado 117758" d="M335.489,398.045l-1.138-.732a.46.46,0,0,0-.5.772l.029.019,1.077.7.028.019a.463.463,0,0,0,.505-.777Z" transform="translate(-322.714 -394.73)" fill="#fd9927"/>
          <path id="Trazado_117759-12" data-name="Trazado 117759" d="M347.118,392.26l-1.265-.476a.45.45,0,0,0-.319.841l.031.012,1.2.459.031.012a.453.453,0,1,0,.323-.847Z" transform="translate(-337.746 -390.815)" fill="#fd9927"/>
          <path id="Trazado_117760-12" data-name="Trazado 117760" d="M359.777,389.091l-1.336-.206a.453.453,0,1,0-.138.9h0l.033,0,1.272.188.033,0a.449.449,0,0,0,.134-.889Z" transform="translate(-354.121 -388.764)" fill="#fd9927"/>
          <path id="Trazado_117761-12" data-name="Trazado 117761" d="M372.849,388.474l-1.351.076a.463.463,0,1,0,.052.925h0l.034,0,1.284-.079.034,0a.46.46,0,0,0-.054-.918Z" transform="translate(-371.061 -388.474)" fill="#fd9927"/>
        </g>
      </g>
    </g>
  </g>
</svg>
