<svg xmlns="http://www.w3.org/2000/svg" width="409.922" height="280.506" viewBox="0 0 409.922 280.506">
  <g id="Grupo_895802" data-name="Grupo 895802" transform="translate(-231.002 -6720.145)">
    <g id="Grupo_894605" data-name="Grupo 894605" transform="translate(175.172 6609.551)">
      <path id="Trazado_659321" data-name="Trazado 659321" d="M128.9,200.137v-7.711h57.616v7.711Z" transform="translate(21.377 23.942)" fill="#4db6e4"/>
      <path id="Trazado_659322" data-name="Trazado 659322" d="M249.709,200.707V193h53.982v7.711Z" transform="translate(56.723 24.109)" fill="#4db6e4"/>
      <g id="Grupo_894597" data-name="Grupo 894597" transform="translate(55.83 269.428)">
        <rect id="Rectángulo_299199" data-name="Rectángulo 299199" width="39.151" height="26.101" rx="2.524" transform="translate(0 0)" fill="#348ed8"/>
        <path id="Trazado_659323" data-name="Trazado 659323" d="M82.978,266.719H63.4l3.262-13.05H79.716Z" transform="translate(-53.614 -227.568)" fill="#d5d5d3"/>
        <path id="Trazado_659324" data-name="Trazado 659324" d="M60.878,261.241h26.1v6.525h-26.1Z" transform="translate(-54.353 -225.352)" fill="#dfdfdd"/>
        <path id="Trazado_659325" data-name="Trazado 659325" d="M80.978,260.194H64.664l1.631-6.525H79.346Z" transform="translate(-53.245 -227.568)" fill="#cececc"/>
      </g>
      <g id="Grupo_894598" data-name="Grupo 894598" transform="translate(113.208 269.239)">
        <rect id="Rectángulo_299200" data-name="Rectángulo 299200" width="39.151" height="26.101" rx="2.524" transform="translate(0 0)" fill="#348ed8"/>
        <path id="Trazado_659326" data-name="Trazado 659326" d="M127.368,266.573H107.793l3.262-13.05h13.05Z" transform="translate(-98.005 -227.422)" fill="#d5d5d3"/>
        <path id="Trazado_659327" data-name="Trazado 659327" d="M105.269,261.1h26.1v6.525h-26.1Z" transform="translate(-98.743 -225.207)" fill="#dfdfdd"/>
        <path id="Trazado_659328" data-name="Trazado 659328" d="M125.367,260.048H109.055l1.631-6.525h13.05Z" transform="translate(-97.636 -227.422)" fill="#cececc"/>
      </g>
      <g id="Grupo_894557" data-name="Grupo 894557" transform="translate(235.087 201.692)">
        <rect id="Rectángulo_299178" data-name="Rectángulo 299178" width="37.81" height="11.404" rx="3.267" transform="translate(0 15.257)" fill="#3f3f3f"/>
        <rect id="Rectángulo_299179" data-name="Rectángulo 299179" width="37.795" height="4.677" transform="translate(0 18.531)" fill="#6d6d6c"/>
        <g id="Grupo_894556" data-name="Grupo 894556" transform="translate(3.392 19.916)">
          <path id="Trazado_659210" data-name="Trazado 659210" d="M199.223,197.523a1.043,1.043,0,1,1-1.043-1.043,1.043,1.043,0,0,1,1.043,1.043Z" transform="translate(-197.137 -196.48)" fill="#edebdf"/>
          <path id="Trazado_659211" data-name="Trazado 659211" d="M202.96,197.523a1.043,1.043,0,1,1-1.043-1.043h0A1.044,1.044,0,0,1,202.96,197.523Z" transform="translate(-196.044 -196.48)" fill="#edebdf"/>
          <path id="Trazado_659212" data-name="Trazado 659212" d="M206.7,197.523a1.043,1.043,0,1,1-1.043-1.043,1.043,1.043,0,0,1,1.043,1.043Z" transform="translate(-194.95 -196.48)" fill="#edebdf"/>
          <path id="Trazado_659213" data-name="Trazado 659213" d="M210.435,197.523a1.043,1.043,0,1,1-1.043-1.043,1.043,1.043,0,0,1,1.043,1.043Z" transform="translate(-193.857 -196.48)" fill="#edebdf"/>
          <path id="Trazado_659214" data-name="Trazado 659214" d="M214.171,197.523a1.043,1.043,0,1,1-1.043-1.043,1.043,1.043,0,0,1,1.043,1.043Z" transform="translate(-192.764 -196.48)" fill="#edebdf"/>
          <path id="Trazado_659215" data-name="Trazado 659215" d="M217.909,197.523a1.043,1.043,0,1,1-1.043-1.043,1.043,1.043,0,0,1,1.043,1.043Z" transform="translate(-191.67 -196.48)" fill="#edebdf"/>
          <path id="Trazado_659216" data-name="Trazado 659216" d="M221.646,197.523a1.043,1.043,0,1,1-1.043-1.043h0a1.042,1.042,0,0,1,1.042,1.043Z" transform="translate(-190.577 -196.48)" fill="#edebdf"/>
        </g>
        <path id="Trazado_659217" data-name="Trazado 659217" d="M200.283,196.33H198.3V182.061a.992.992,0,0,1,.99-.989h0a.991.991,0,0,1,.989.989Z" transform="translate(-193.404 -181.072)" fill="#6d6d6c"/>
        <path id="Trazado_659218" data-name="Trazado 659218" d="M220.409,196.33H218.43V182.061a.992.992,0,0,1,.99-.989h0a.991.991,0,0,1,.989.989Z" transform="translate(-187.515 -181.072)" fill="#6d6d6c"/>
      </g>
      <g id="Grupo_894557-2" data-name="Grupo 894557" transform="translate(86.864 198.958)">
        <rect id="Rectángulo_299178-2" data-name="Rectángulo 299178" width="37.81" height="11.404" rx="3.267" transform="translate(0 15.257)" fill="#3f3f3f"/>
        <rect id="Rectángulo_299179-2" data-name="Rectángulo 299179" width="37.795" height="4.677" transform="translate(0 18.531)" fill="#6d6d6c"/>
        <g id="Grupo_894556-2" data-name="Grupo 894556" transform="translate(3.393 19.916)">
          <path id="Trazado_659210-2" data-name="Trazado 659210" d="M84.549,195.408a1.042,1.042,0,1,1-1.043-1.043,1.043,1.043,0,0,1,1.043,1.043Z" transform="translate(-82.464 -194.365)" fill="#edebdf"/>
          <path id="Trazado_659211-2" data-name="Trazado 659211" d="M88.286,195.408a1.043,1.043,0,1,1-1.043-1.043h0A1.044,1.044,0,0,1,88.286,195.408Z" transform="translate(-81.371 -194.365)" fill="#edebdf"/>
          <path id="Trazado_659212-2" data-name="Trazado 659212" d="M92.024,195.408a1.042,1.042,0,1,1-1.043-1.043,1.043,1.043,0,0,1,1.043,1.043Z" transform="translate(-80.277 -194.365)" fill="#edebdf"/>
          <path id="Trazado_659213-2" data-name="Trazado 659213" d="M95.761,195.408a1.043,1.043,0,1,1-1.043-1.043,1.043,1.043,0,0,1,1.043,1.043Z" transform="translate(-79.184 -194.365)" fill="#edebdf"/>
          <path id="Trazado_659214-2" data-name="Trazado 659214" d="M99.5,195.408a1.042,1.042,0,1,1-1.042-1.043,1.042,1.042,0,0,1,1.042,1.043Z" transform="translate(-78.091 -194.365)" fill="#edebdf"/>
          <path id="Trazado_659215-2" data-name="Trazado 659215" d="M103.235,195.408a1.042,1.042,0,1,1-1.042-1.043,1.042,1.042,0,0,1,1.042,1.043Z" transform="translate(-76.997 -194.365)" fill="#edebdf"/>
          <path id="Trazado_659216-2" data-name="Trazado 659216" d="M106.972,195.408a1.042,1.042,0,1,1-1.042-1.043h0a1.042,1.042,0,0,1,1.042,1.042Z" transform="translate(-75.904 -194.365)" fill="#edebdf"/>
        </g>
        <path id="Trazado_659217-2" data-name="Trazado 659217" d="M85.61,194.215H83.63V179.946a.992.992,0,0,1,.99-.989h0a.993.993,0,0,1,.99.989Z" transform="translate(-78.73 -178.957)" fill="#6d6d6c"/>
        <path id="Trazado_659218-2" data-name="Trazado 659218" d="M105.736,194.215h-1.979V179.946a.991.991,0,0,1,.989-.989h0a.992.992,0,0,1,.99.989Z" transform="translate(-72.842 -178.957)" fill="#6d6d6c"/>
      </g>
      <g id="Grupo_894557-3" data-name="Grupo 894557" transform="translate(394.289 200.884)">
        <rect id="Rectángulo_299178-3" data-name="Rectángulo 299178" width="37.81" height="11.404" rx="3.267" transform="translate(0 15.258)" fill="#3f3f3f"/>
        <rect id="Rectángulo_299179-3" data-name="Rectángulo 299179" width="37.795" height="4.677" transform="translate(0 18.531)" fill="#6d6d6c"/>
        <g id="Grupo_894556-3" data-name="Grupo 894556" transform="translate(3.392 19.917)">
          <path id="Trazado_659210-3" data-name="Trazado 659210" d="M322.389,196.9a1.042,1.042,0,1,1-1.042-1.043,1.043,1.043,0,0,1,1.042,1.043Z" transform="translate(-320.304 -195.856)" fill="#edebdf"/>
          <path id="Trazado_659211-3" data-name="Trazado 659211" d="M326.126,196.9a1.042,1.042,0,1,1-1.042-1.043h0A1.042,1.042,0,0,1,326.126,196.9Z" transform="translate(-319.211 -195.856)" fill="#edebdf"/>
          <path id="Trazado_659212-3" data-name="Trazado 659212" d="M329.864,196.9a1.042,1.042,0,1,1-1.042-1.043,1.043,1.043,0,0,1,1.042,1.043Z" transform="translate(-318.117 -195.856)" fill="#edebdf"/>
          <path id="Trazado_659213-3" data-name="Trazado 659213" d="M333.6,196.9a1.042,1.042,0,1,1-1.042-1.043A1.043,1.043,0,0,1,333.6,196.9Z" transform="translate(-317.024 -195.856)" fill="#edebdf"/>
          <path id="Trazado_659214-3" data-name="Trazado 659214" d="M337.338,196.9a1.043,1.043,0,1,1-1.043-1.043,1.044,1.044,0,0,1,1.043,1.043Z" transform="translate(-315.931 -195.856)" fill="#edebdf"/>
          <path id="Trazado_659215-3" data-name="Trazado 659215" d="M341.076,196.9a1.043,1.043,0,1,1-1.043-1.043,1.043,1.043,0,0,1,1.043,1.043Z" transform="translate(-314.837 -195.856)" fill="#edebdf"/>
          <path id="Trazado_659216-3" data-name="Trazado 659216" d="M344.813,196.9a1.043,1.043,0,1,1-1.043-1.043h0a1.042,1.042,0,0,1,1.043,1.042Z" transform="translate(-313.744 -195.856)" fill="#edebdf"/>
        </g>
        <path id="Trazado_659217-3" data-name="Trazado 659217" d="M323.45,195.706h-1.979V181.437a.992.992,0,0,1,.989-.99h0a.994.994,0,0,1,.99.99Z" transform="translate(-316.57 -180.447)" fill="#6d6d6c"/>
        <path id="Trazado_659218-3" data-name="Trazado 659218" d="M343.576,195.706H341.6V181.437a.993.993,0,0,1,.99-.99h0a.992.992,0,0,1,.989.99Z" transform="translate(-310.682 -180.447)" fill="#6d6d6c"/>
      </g>
      <g id="Grupo_894599" data-name="Grupo 894599" transform="translate(235.482 110.593)">
        <rect id="Rectángulo_299201" data-name="Rectángulo 299201" width="39.151" height="26.101" rx="2.524" transform="translate(0)" fill="#348ed8"/>
        <path id="Trazado_659329" data-name="Trazado 659329" d="M221.966,143.837H202.39l3.262-13.051H218.7Z" transform="translate(-192.602 -104.685)" fill="#d5d5d3"/>
        <path id="Trazado_659330" data-name="Trazado 659330" d="M199.866,138.359h26.1v6.525h-26.1Z" transform="translate(-193.341 -102.47)" fill="#dfdfdd"/>
        <path id="Trazado_659331" data-name="Trazado 659331" d="M219.966,137.311H203.652l1.631-6.525h13.051Z" transform="translate(-192.233 -104.685)" fill="#cececc"/>
      </g>
      <g id="Grupo_894600" data-name="Grupo 894600" transform="translate(365.716 266.392)">
        <rect id="Rectángulo_299202" data-name="Rectángulo 299202" width="39.151" height="26.101" rx="2.524" fill="#348ed8"/>
        <path id="Trazado_659332" data-name="Trazado 659332" d="M322.722,264.371H303.146l3.262-13.05H319.46Z" transform="translate(-293.358 -225.22)" fill="#d5d5d3"/>
        <path id="Trazado_659333" data-name="Trazado 659333" d="M300.622,258.893h26.1v6.525h-26.1Z" transform="translate(-294.097 -223.004)" fill="#dfdfdd"/>
        <path id="Trazado_659334" data-name="Trazado 659334" d="M320.722,257.846H304.408l1.631-6.525H319.09Z" transform="translate(-292.989 -225.22)" fill="#cececc"/>
      </g>
      <g id="Grupo_894601" data-name="Grupo 894601" transform="translate(426.601 266.392)">
        <rect id="Rectángulo_299203" data-name="Rectángulo 299203" width="39.151" height="26.101" rx="2.524" fill="#348ed8"/>
        <path id="Trazado_659335" data-name="Trazado 659335" d="M369.826,264.371H350.25l3.262-13.05h13.051Z" transform="translate(-340.462 -225.22)" fill="#d5d5d3"/>
        <path id="Trazado_659336" data-name="Trazado 659336" d="M347.726,258.893h26.1v6.525h-26.1Z" transform="translate(-341.201 -223.004)" fill="#dfdfdd"/>
        <path id="Trazado_659337" data-name="Trazado 659337" d="M367.826,257.846H351.512l1.631-6.525h13.051Z" transform="translate(-340.093 -225.22)" fill="#cececc"/>
      </g>
      <g id="Grupo_894557-4" data-name="Grupo 894557" transform="translate(235.109 275.189)">
        <rect id="Rectángulo_299178-4" data-name="Rectángulo 299178" width="37.81" height="11.404" rx="3.267" transform="translate(0 15.257)" fill="#3f3f3f"/>
        <rect id="Rectángulo_299179-4" data-name="Rectángulo 299179" width="37.795" height="4.677" transform="translate(0 18.531)" fill="#6d6d6c"/>
        <g id="Grupo_894556-4" data-name="Grupo 894556" transform="translate(3.392 19.917)">
          <path id="Trazado_659210-4" data-name="Trazado 659210" d="M199.24,254.384a1.043,1.043,0,1,1-1.043-1.042,1.043,1.043,0,0,1,1.043,1.042Z" transform="translate(-197.154 -253.342)" fill="#edebdf"/>
          <path id="Trazado_659211-4" data-name="Trazado 659211" d="M202.977,254.384a1.043,1.043,0,1,1-1.043-1.042h0A1.042,1.042,0,0,1,202.977,254.384Z" transform="translate(-196.061 -253.342)" fill="#edebdf"/>
          <path id="Trazado_659212-4" data-name="Trazado 659212" d="M206.715,254.384a1.043,1.043,0,1,1-1.043-1.042,1.043,1.043,0,0,1,1.043,1.042Z" transform="translate(-194.967 -253.342)" fill="#edebdf"/>
          <path id="Trazado_659213-4" data-name="Trazado 659213" d="M210.452,254.384a1.043,1.043,0,1,1-1.043-1.042,1.043,1.043,0,0,1,1.043,1.042Z" transform="translate(-193.874 -253.342)" fill="#edebdf"/>
          <path id="Trazado_659214-4" data-name="Trazado 659214" d="M214.188,254.384a1.043,1.043,0,1,1-1.043-1.042,1.043,1.043,0,0,1,1.043,1.042Z" transform="translate(-192.781 -253.342)" fill="#edebdf"/>
          <path id="Trazado_659215-4" data-name="Trazado 659215" d="M217.926,254.384a1.042,1.042,0,1,1-1.043-1.042,1.043,1.043,0,0,1,1.043,1.042Z" transform="translate(-191.687 -253.342)" fill="#edebdf"/>
          <path id="Trazado_659216-4" data-name="Trazado 659216" d="M221.663,254.384a1.043,1.043,0,1,1-1.043-1.042h0a1.041,1.041,0,0,1,1.042,1.042Z" transform="translate(-190.594 -253.342)" fill="#edebdf"/>
        </g>
        <path id="Trazado_659217-4" data-name="Trazado 659217" d="M200.3,253.191h-1.979V238.923a.992.992,0,0,1,.99-.99h0a.992.992,0,0,1,.989.99Z" transform="translate(-193.421 -237.933)" fill="#6d6d6c"/>
        <path id="Trazado_659218-4" data-name="Trazado 659218" d="M220.427,253.191h-1.98V238.923a.992.992,0,0,1,.99-.99h0a.994.994,0,0,1,.99.99Z" transform="translate(-187.532 -237.933)" fill="#6d6d6c"/>
      </g>
      <g id="Grupo_894602" data-name="Grupo 894602" transform="translate(174.706 348.685)">
        <rect id="Rectángulo_299204" data-name="Rectángulo 299204" width="39.151" height="26.101" rx="2.524" transform="translate(0)" fill="#348ed8"/>
        <path id="Trazado_659338" data-name="Trazado 659338" d="M174.946,328.037H155.371l3.262-13.05h13.05Z" transform="translate(-145.583 -288.886)" fill="#d5d5d3"/>
        <path id="Trazado_659339" data-name="Trazado 659339" d="M152.847,322.559h26.1v6.525h-26.1Z" transform="translate(-146.321 -286.671)" fill="#dfdfdd"/>
        <path id="Trazado_659340" data-name="Trazado 659340" d="M172.945,321.512H156.633l1.631-6.525h13.05Z" transform="translate(-145.214 -288.886)" fill="#cececc"/>
      </g>
      <g id="Grupo_894603" data-name="Grupo 894603" transform="translate(235.591 348.685)">
        <rect id="Rectángulo_299205" data-name="Rectángulo 299205" width="39.151" height="26.101" rx="2.524" transform="translate(0)" fill="#348ed8"/>
        <path id="Trazado_659341" data-name="Trazado 659341" d="M222.05,328.037H202.475l3.262-13.05h13.05Z" transform="translate(-192.687 -288.886)" fill="#d5d5d3"/>
        <path id="Trazado_659342" data-name="Trazado 659342" d="M199.951,322.559h26.1v6.525h-26.1Z" transform="translate(-193.425 -286.671)" fill="#dfdfdd"/>
        <path id="Trazado_659343" data-name="Trazado 659343" d="M220.049,321.512H203.737l1.631-6.525h13.05Z" transform="translate(-192.318 -288.886)" fill="#cececc"/>
      </g>
      <g id="Grupo_894604" data-name="Grupo 894604" transform="translate(286.641 348.685)">
        <rect id="Rectángulo_299206" data-name="Rectángulo 299206" width="39.151" height="26.101" rx="2.524" fill="#348ed8"/>
        <path id="Trazado_659344" data-name="Trazado 659344" d="M261.546,328.037H241.97l3.262-13.05h13.051Z" transform="translate(-232.182 -288.886)" fill="#d5d5d3"/>
        <path id="Trazado_659345" data-name="Trazado 659345" d="M239.446,322.559h26.1v6.525h-26.1Z" transform="translate(-232.921 -286.671)" fill="#dfdfdd"/>
        <path id="Trazado_659346" data-name="Trazado 659346" d="M259.546,321.512H243.232l1.631-6.525h13.051Z" transform="translate(-231.813 -288.886)" fill="#cececc"/>
      </g>
      <path id="Trazado_659347" data-name="Trazado 659347" d="M206.98,153.175h7.711v33.772H206.98Z" transform="translate(44.222 12.458)" fill="#4db6e4"/>
      <path id="Trazado_659348" data-name="Trazado 659348" d="M206.15,207.751h7.711v33.774H206.15Z" transform="translate(43.979 28.425)" fill="#4db6e4"/>
      <path id="Trazado_659349" data-name="Trazado 659349" d="M207,263.613h7.711v33.772H207Z" transform="translate(44.227 44.769)" fill="#4db6e4"/>
      <path id="Trazado_659350" data-name="Trazado 659350" d="M189.183,261.417l6.773,3.686-16.143,29.664-6.773-3.686Z" transform="translate(34.292 44.127)" fill="#4db6e4"/>
      <path id="Trazado_659351" data-name="Trazado 659351" d="M248.449,291.082l-6.773,3.686L225.533,265.1l6.773-3.686Z" transform="translate(49.65 44.127)" fill="#4db6e4"/>
      <path id="Trazado_659352" data-name="Trazado 659352" d="M87.118,203.629l6.773,3.685L77.748,236.979l-6.774-3.686Z" transform="translate(4.431 27.22)" fill="#4db6e4"/>
      <path id="Trazado_659353" data-name="Trazado 659353" d="M120.552,233.292l-6.773,3.686L97.636,207.314l6.773-3.685Z" transform="translate(12.231 27.22)" fill="#4db6e4"/>
      <path id="Trazado_659354" data-name="Trazado 659354" d="M327.077,203.2l6.774,3.686-16.144,29.664-6.773-3.686Z" transform="translate(74.636 27.094)" fill="#4db6e4"/>
      <path id="Trazado_659355" data-name="Trazado 659355" d="M360.512,232.864l-6.774,3.686L337.6,206.886l6.773-3.686Z" transform="translate(82.436 27.094)" fill="#4db6e4"/>
    </g>
  </g>
</svg>
