<svg xmlns="http://www.w3.org/2000/svg" width="307" height="311.743" viewBox="0 0 307 311.743">
  <g id="Grupo_895800" data-name="Grupo 895800" transform="translate(-264 -5606.866)">
    <g id="Capa_1" data-name="Capa 1" transform="translate(240 5582.866)">
      <g id="Flat" transform="translate(24 24)">
        <rect id="Rectángulo_299193" data-name="Rectángulo 299193" width="63" height="42" rx="8" transform="translate(122)" fill="#348ed8"/>
        <path id="Trazado_659285" data-name="Trazado 659285" d="M263.7,109.135H232L237.284,88h21.135Z" transform="translate(-94.622 -45.73)" fill="#d5d5d3"/>
        <path id="Trazado_659286" data-name="Trazado 659286" d="M224,112h42.27v10.568H224Z" transform="translate(-91.905 -53.878)" fill="#dfdfdd"/>
        <path id="Trazado_659287" data-name="Trazado 659287" d="M262.419,98.568H236L238.642,88h21.135Z" transform="translate(-95.98 -45.73)" fill="#cececc"/>
        <g id="Grupo_894596" data-name="Grupo 894596" transform="translate(26.419 16.653)">
          <path id="Trazado_659288" data-name="Trazado 659288" d="M64,240H74.568v31.7H64Z" transform="translate(-64 -113.991)" fill="#4db6e4"/>
          <path id="Trazado_659289" data-name="Trazado 659289" d="M115.761,75.637l42.27-26.419,5.6,8.962L121.362,84.6Z" transform="translate(-81.574 -49.215)" fill="#4db6e4"/>
          <path id="Trazado_659290" data-name="Trazado 659290" d="M115.761,434.177l5.6-8.962,42.271,26.419-5.6,8.962Z" transform="translate(-81.574 -176.876)" fill="#4db6e4"/>
          <path id="Trazado_659291" data-name="Trazado 659291" d="M323.761,58.176l5.6-8.962,42.271,26.419-5.6,8.962Z" transform="translate(-152.196 -49.214)" fill="#4db6e4"/>
          <path id="Trazado_659292" data-name="Trazado 659292" d="M323.759,451.642l42.27-26.419,5.6,8.962L329.36,460.6Z" transform="translate(-152.195 -176.879)" fill="#4db6e4"/>
          <path id="Trazado_659293" data-name="Trazado 659293" d="M432,240h10.568v31.7H432Z" transform="translate(-188.946 -113.991)" fill="#4db6e4"/>
        </g>
        <rect id="Rectángulo_299194" data-name="Rectángulo 299194" width="64" height="43" rx="8" transform="translate(243 63)" fill="#348ed8"/>
        <path id="Trazado_659294" data-name="Trazado 659294" d="M447.7,205.135H416L421.284,184h21.135Z" transform="translate(-157.095 -78.324)" fill="#d5d5d3"/>
        <path id="Trazado_659295" data-name="Trazado 659295" d="M408,208h42.27v10.568H408Z" transform="translate(-154.378 -86.473)" fill="#dfdfdd"/>
        <path id="Trazado_659296" data-name="Trazado 659296" d="M446.419,194.568H420L422.642,184h21.135Z" transform="translate(-158.453 -78.324)" fill="#cececc"/>
        <rect id="Rectángulo_299195" data-name="Rectángulo 299195" width="63" height="43" rx="8" transform="translate(0 63)" fill="#348ed8"/>
        <path id="Trazado_659297" data-name="Trazado 659297" d="M79.7,205.135H48L53.284,184H74.419Z" transform="translate(-32.149 -78.324)" fill="#d5d5d3"/>
        <path id="Trazado_659298" data-name="Trazado 659298" d="M40,208H82.27v10.568H40Z" transform="translate(-29.432 -86.473)" fill="#dfdfdd"/>
        <path id="Trazado_659299" data-name="Trazado 659299" d="M78.419,194.568H52L54.642,184H75.777Z" transform="translate(-33.507 -78.324)" fill="#cececc"/>
        <rect id="Rectángulo_299196" data-name="Rectángulo 299196" width="64" height="41" rx="8" transform="translate(243 191)" fill="#348ed8"/>
        <path id="Trazado_659300" data-name="Trazado 659300" d="M447.7,397.135H416L421.284,376h21.135Z" transform="translate(-157.095 -143.514)" fill="#d5d5d3"/>
        <path id="Trazado_659301" data-name="Trazado 659301" d="M408,400h42.27v10.568H408Z" transform="translate(-154.378 -151.662)" fill="#dfdfdd"/>
        <path id="Trazado_659302" data-name="Trazado 659302" d="M446.419,386.568H420L422.642,376h21.135Z" transform="translate(-158.453 -143.514)" fill="#cececc"/>
        <rect id="Rectángulo_299197" data-name="Rectángulo 299197" width="63" height="41" rx="8" transform="translate(0 191)" fill="#348ed8"/>
        <path id="Trazado_659303" data-name="Trazado 659303" d="M79.7,397.135H48L53.284,376H74.419Z" transform="translate(-32.149 -143.514)" fill="#d5d5d3"/>
        <path id="Trazado_659304" data-name="Trazado 659304" d="M40,400H82.27v10.568H40Z" transform="translate(-29.432 -151.662)" fill="#dfdfdd"/>
        <path id="Trazado_659305" data-name="Trazado 659305" d="M78.419,386.568H52L54.642,376H75.777Z" transform="translate(-33.507 -143.514)" fill="#cececc"/>
        <rect id="Rectángulo_299198" data-name="Rectángulo 299198" width="63" height="42" rx="8" transform="translate(122 243)" fill="#348ed8"/>
        <path id="Trazado_659306" data-name="Trazado 659306" d="M263.7,477.135H232L237.284,456h21.135Z" transform="translate(-94.622 -170.676)" fill="#d5d5d3"/>
        <path id="Trazado_659307" data-name="Trazado 659307" d="M224,480h42.27v10.568H224Z" transform="translate(-91.905 -178.824)" fill="#dfdfdd"/>
        <path id="Trazado_659308" data-name="Trazado 659308" d="M262.419,466.568H236L238.642,456h21.135Z" transform="translate(-95.98 -170.676)" fill="#cececc"/>
      </g>
    </g>
  </g>
</svg>
